<svg width="480" height="312" viewBox="0 0 480 312" fill="none" xmlns="http://www.w3.org/2000/svg">
<path opacity="0.62" d="M463.511 166.299C457.93 175.49 455.722 186.337 457.268 196.978C463.205 238.045 446.29 278.969 414.778 301.997C411.496 304.396 408.069 306.589 404.516 308.563H302.05C299.772 308.434 297.489 308.434 295.211 308.563H57.5027C54.1775 306.551 50.9649 304.359 47.8791 301.997C9.37166 272.507 -8.48498 217.472 9.33905 166.517C14.7043 151.022 23.2819 136.834 34.5102 124.884C44.1151 114.64 51.0215 102.168 54.6075 88.5907L54.6693 88.366C71.2786 26.8433 131.166 -8.5735 188.449 9.25379C194.53 11.1464 200.424 13.5926 206.058 16.5618C212.88 20.1813 220.477 22.0956 228.199 22.1409C235.922 22.1863 243.541 20.3614 250.405 16.8223C256.399 13.7599 262.698 11.3367 269.199 9.5925C283.349 5.77301 298.202 5.36555 312.54 8.40373C324.247 10.8824 336.417 9.99379 347.641 5.84073L348.419 5.55738C400.745 -13.2176 457.337 17.122 474.819 73.3167C479.635 88.7309 481.118 104.993 479.169 121.025C477.219 137.056 471.882 152.489 463.511 166.299Z" fill="#DEDFE0"/>
<path d="M410.263 264.411C408.468 264.306 406.941 264.137 405.824 264.026C404.58 263.902 403.844 263.85 403.818 264.026L406.267 299.88L406.593 304.472H272.057L272.272 299.88L273.94 264.264C273.939 264.244 273.933 264.226 273.924 264.208C273.915 264.191 273.903 264.176 273.888 264.163C272.657 263.674 271.372 263.332 270.061 263.144C261.919 261.255 243.802 255.696 244.658 229.756C244.792 212.795 246.345 195.875 249.299 179.173C249.516 178.13 249.745 177.101 249.986 176.085C250.061 175.76 250.136 175.453 250.214 175.141C250.401 174.372 250.596 173.612 250.8 172.861C250.974 172.21 251.152 171.571 251.335 170.946C251.517 170.321 251.706 169.693 251.902 169.064V169.038C252.022 168.66 252.143 168.279 252.267 167.905C252.39 167.53 252.504 167.185 252.624 166.83C254.836 159.438 258.523 152.571 263.463 146.644C268.403 140.716 274.492 135.852 281.365 132.344C282.461 131.771 283.591 131.22 284.755 130.69C297.316 125.42 310.688 122.346 324.289 121.6C331.128 121.034 338.582 120.763 346.685 120.796C350.921 120.811 354.954 120.926 358.784 121.141H358.803C371.599 121.795 384.208 124.483 396.158 129.104C401.155 130.989 405.892 133.506 410.25 136.594C420.836 144.178 428.439 155.224 431.744 167.82C432.05 168.827 432.343 169.848 432.623 170.884C433.081 172.571 433.507 174.296 433.9 176.059C434.128 177.082 434.345 178.116 434.551 179.163C437.401 193.245 438.678 209.467 440.459 227.362C444.038 263.18 421.7 265.082 410.263 264.411Z" fill="#4E9C0B"/>
<path d="M305.796 210.587C305.796 210.587 300.943 199.886 296.654 197.743C292.365 195.6 279.355 187.575 276 188.822C273.121 189.894 274.984 192.746 274.984 192.746C274.984 192.746 265.842 188.822 264.377 191.675C262.989 194.375 267.536 196.85 267.536 196.85C267.536 196.85 265.455 196.078 264.462 198.694C263.468 201.309 271.372 205.591 271.372 205.591C271.372 205.591 268.802 205.621 268.213 206.663C266.689 209.34 275.89 213.205 275.89 213.205L305.796 210.587Z" fill="#D8A77D"/>
<path d="M333.322 243.819L331.957 259.822L305.793 253.514L333.322 243.819Z" fill="#D8A77D"/>
<path d="M274.381 213.267L274.328 212.359L364.539 206.666L364.592 207.575L274.381 213.267Z" fill="white"/>
<path d="M282.605 262.421L282.328 261.558L369.719 230.358L369.996 231.221L282.605 262.421Z" fill="white"/>
<path d="M331.948 260.086L331.906 260.981L404.025 264.367L404.067 263.472L331.948 260.086Z" fill="white"/>
<path d="M364.199 207.122C364.199 207.122 379.639 207.829 386.328 208.327C394.493 208.936 401.43 210.444 402.486 210.125C403.169 213.479 403.788 224.405 403.788 224.405C403.788 224.405 400.857 226.718 377.93 229.704C373.067 230.339 369.762 230.792 369.762 230.792L364.199 207.122Z" fill="#D8A77D"/>
<path d="M294.861 204.592C294.842 204.572 292.859 202.637 290.133 200.442C285.405 197.661 280.49 195.213 275.422 193.115L275.712 192.366C280.847 194.481 285.822 196.966 290.598 199.8C293.356 202.015 295.366 203.982 295.385 204.002L294.861 204.592Z" fill="#A1542E"/>
<path d="M289.843 208.073C287.86 206.107 285.718 204.309 283.438 202.696C278.212 200.578 272.869 198.757 267.438 197.241L267.643 196.46C273.14 197.984 278.543 199.833 283.822 201.996C286.156 203.634 288.346 205.468 290.368 207.48L289.843 208.073Z" fill="#A1542E"/>
<path d="M283.661 211.304C283.635 211.285 280.997 209.2 279.687 208.093C277.215 206.991 274.606 206.224 271.93 205.813L272.066 205.015C274.868 205.453 277.595 206.277 280.169 207.464C281.472 208.561 284.101 210.64 284.123 210.659L283.661 211.304Z" fill="#A1542E"/>
<path d="M403.419 224.672L400.602 191.795L401.461 191.714L404.278 224.591L403.419 224.672Z" fill="white"/>
<path d="M358.994 119.627V91.5997H325.205V119.19C325.189 119.261 325.18 119.333 325.176 119.405C325.176 141.939 359.443 140.154 358.994 119.627Z" fill="#D8A77D"/>
<path d="M376.514 63.3025C376.514 86.5685 363.891 114.834 342.497 114.814C319.804 114.795 308.48 86.5685 308.48 63.3025C308.48 40.0365 323.712 21.1736 342.497 21.1736C361.282 21.1736 376.514 40.03 376.514 63.3025Z" fill="#D8A77D"/>
<path d="M342.493 114.344C338.11 114.247 333.82 113.053 330.017 110.873C328.19 109.885 326.472 108.71 324.891 107.365L325.411 106.789C326.956 108.096 328.632 109.241 330.411 110.205C334.094 112.316 338.246 113.472 342.49 113.569L342.493 114.344Z" fill="#A1542E"/>
<path d="M314.701 82.5057C318.433 81.2816 319.877 75.4651 317.926 69.5141C315.974 63.563 311.366 59.731 307.634 60.9551C303.901 62.1792 302.457 67.9957 304.409 73.9467C306.36 79.8978 310.968 83.7298 314.701 82.5057Z" fill="#D8A77D"/>
<path d="M381.883 73.7964C383.834 67.8454 382.39 62.0288 378.658 60.8048C374.925 59.5807 370.317 63.4127 368.366 69.3637C366.414 75.3148 367.858 81.1313 371.591 82.3554C375.323 83.5794 379.931 79.7475 381.883 73.7964Z" fill="#D8A77D"/>
<path d="M345.945 90.2874C344.343 90.2874 342.919 90.1767 342.828 90.1702L342.893 89.0304C344.678 89.1661 346.47 89.1661 348.254 89.0304C348.387 88.7047 348.638 86.949 346.169 77.713C344.779 72.5022 343.199 67.4741 343.183 67.422L344.092 67.0245C344.092 67.0733 345.671 72.0564 347.062 77.2574C349.938 88.0046 349.292 89.2193 349.051 89.6752C348.992 89.8042 348.902 89.916 348.788 90.0008C348.674 90.0856 348.541 90.1404 348.4 90.1602C347.585 90.248 346.765 90.2906 345.945 90.2874Z" fill="#160707"/>
<path d="M327.188 77.7986C328.841 77.7986 330.181 75.7631 330.181 73.2523C330.181 70.7414 328.841 68.7059 327.188 68.7059C325.535 68.7059 324.195 70.7414 324.195 73.2523C324.195 75.7631 325.535 77.7986 327.188 77.7986Z" fill="#160707"/>
<path d="M359.614 78.1456C361.267 78.1456 362.607 76.1101 362.607 73.5992C362.607 71.0883 361.267 69.0528 359.614 69.0528C357.961 69.0528 356.621 71.0883 356.621 73.5992C356.621 76.1101 357.961 78.1456 359.614 78.1456Z" fill="#160707"/>
<path d="M338.653 53.6197C338.256 53.5481 337.871 53.4699 337.507 53.3885L337.211 54.1473C337.618 54.2384 338.041 54.3264 338.487 54.4078C342.925 55.2992 347.515 55.0663 351.84 53.7304L351.582 52.9683C347.394 54.2583 342.95 54.4822 338.653 53.6197Z" fill="#A1542E"/>
<path d="M337.018 58.6766C336.523 58.5789 336.049 58.4791 335.595 58.377L335.012 59.1391C335.513 59.2542 336.04 59.3627 336.592 59.4647C342.347 60.6334 348.276 60.6511 354.038 59.5168L353.904 58.7223C348.327 59.8192 342.589 59.8036 337.018 58.6766Z" fill="#A1542E"/>
<path d="M328.104 39.2473L312.257 69.1602L308.632 60.631C307.786 53.5355 307.607 46.3762 308.098 39.2473C309.778 30.7016 313.911 24.1785 322.18 22.7065C330.449 21.2344 328.104 39.2473 328.104 39.2473Z" fill="#160707"/>
<path d="M363.922 57.5494C363.922 57.5892 363.938 57.5859 363.922 57.5494V57.5494Z" fill="#160707"/>
<path d="M379.497 46.5915C379.753 43.7369 379.066 40.8772 377.543 38.4497C377.526 38.3194 377.507 38.1923 377.491 38.0621C378.38 39.0373 378.991 40.2325 379.262 41.5239C379.263 41.3417 379.278 41.1599 379.308 40.9801C379.449 36.668 377.885 32.4741 374.954 29.3081C374.272 27.9406 373.363 26.6993 372.264 25.6377C366.319 19.7812 358.617 16.0366 350.339 14.9784C335.778 13.9363 331.183 16.1606 327.868 20.8405C323.309 27.2823 326.478 32.1935 327.351 36.5444C327.691 38.2551 328.543 39.8221 329.793 41.0387C332.483 43.675 335.732 45.671 339.299 46.8781C342.028 47.7737 344.321 48.5878 347.741 49.402C350.376 50.4669 353.544 51.6817 357.351 53.1049C362.588 55.0394 363.815 57.2636 363.946 57.5372C363.883 57.3668 363.835 57.1916 363.803 57.013C363.331 55.017 362.336 53.1824 360.92 51.698C369.16 53.1766 376.878 61.4845 376.927 60.7973C377.673 55.2504 378.024 49.6575 377.979 44.0609C378.719 44.9426 379.224 45.9968 379.448 47.1256C379.451 46.9466 379.468 46.7681 379.497 46.5915Z" fill="#160707"/>
<path d="M315.539 69.4957V70.3098C316.837 70.6647 318.079 71.1961 319.232 71.8893L319.408 71.1308C318.202 70.4061 316.899 69.8554 315.539 69.4957Z" fill="#A1542E"/>
<path d="M315.398 74.5597L315.669 75.2634C316.835 74.6129 318.087 74.1293 319.388 73.8271L319.287 73.0391C317.925 73.357 316.615 73.8689 315.398 74.5597Z" fill="#A1542E"/>
<path d="M370.729 70.4932V71.3074C369.431 71.6619 368.189 72.1934 367.036 72.8869L366.859 72.1279C368.066 71.4045 369.369 70.8544 370.729 70.4932Z" fill="#A1542E"/>
<path d="M370.86 75.5443L370.586 76.2479C369.42 75.5967 368.168 75.113 366.867 74.8116L366.968 74.0233C368.331 74.3417 369.642 74.854 370.86 75.5443Z" fill="#A1542E"/>
<path d="M340.679 100.206C340.189 100.076 339.715 99.8936 339.265 99.6618C337.4 98.5871 335.992 96.8689 335.305 94.8292L336.197 94.64L335.842 94.7378L336.474 94.6467C336.706 95.466 337.106 96.228 337.648 96.8845C338.19 97.5411 338.862 98.0779 339.623 98.4604C340.744 98.9646 341.96 99.2253 343.19 99.2253C344.419 99.2253 345.634 98.9646 346.756 98.4604L346.997 99.6097C345.002 100.455 342.796 100.663 340.679 100.206Z" fill="#160707"/>
<path d="M367.593 68.3598C363.544 66.7863 359.235 65.9897 354.892 66.0117L354.645 64.1814C357.25 63.9701 359.873 64.2068 362.398 64.8815C364.313 65.2533 366.173 65.865 367.935 66.702L367.593 68.3598Z" fill="#160707"/>
<path d="M320.097 66.6821C324.347 65.7839 328.728 65.6944 333.011 66.4183L333.554 64.6532C331.018 64.0226 328.392 63.8319 325.79 64.0897C323.836 64.1445 321.898 64.4465 320.02 64.9885L320.097 66.6821Z" fill="#160707"/>
<path d="M311.265 77.2307C310.187 76.5142 309.266 75.585 308.559 74.5003C307.852 73.4156 307.373 72.1983 307.152 70.9224C307.169 69.8348 307.449 68.7672 307.966 67.8103C308.483 66.8534 309.223 66.0354 310.123 65.425L310.647 66.0762C309.85 66.6083 309.191 67.3236 308.727 68.1622C308.263 69.0007 308.008 69.9381 307.98 70.8961C308.201 72.0414 308.646 73.1318 309.29 74.1043C309.933 75.0769 310.763 75.9122 311.731 76.5628L311.265 77.2307Z" fill="#A1542E"/>
<path d="M374.732 78.3977C375.811 77.6815 376.732 76.7529 377.44 75.6681C378.147 74.5834 378.625 73.3655 378.845 72.0894C378.829 71.0021 378.551 69.9348 378.034 68.9778C377.518 68.0208 376.779 67.2025 375.879 66.5921L375.354 67.2437C376.15 67.7761 376.808 68.4906 377.272 69.3284C377.736 70.1663 377.993 71.1031 378.022 72.0604C377.8 73.2055 377.355 74.2953 376.711 75.2678C376.067 76.2403 375.237 77.0762 374.27 77.727L374.732 78.3977Z" fill="#A1542E"/>
<path d="M311.277 72.6426C311.277 72.9878 311.29 73.3297 311.316 73.6684C311.316 73.8769 311.352 74.0852 311.378 74.2904C311.378 74.4076 311.408 74.525 311.428 74.6422C311.925 77.904 313.616 80.8646 316.173 82.9506C318.729 85.0366 321.969 86.0993 325.264 85.9326C328.559 85.7659 331.675 84.3818 334.008 82.0486C336.341 79.7153 337.725 76.599 337.892 73.3037H347.616C347.788 76.7741 349.309 80.0398 351.856 82.4038C354.403 84.7678 357.772 86.0429 361.246 85.9569C364.72 85.8708 368.022 84.4304 370.448 81.9432C372.875 79.456 374.233 76.1188 374.233 72.6441C374.233 69.1694 372.875 65.8323 370.448 63.3451C368.022 60.8579 364.72 59.4175 361.246 59.3314C357.772 59.2454 354.403 60.5205 351.856 62.8845C349.309 65.2485 347.788 68.5142 347.616 71.9846H337.892C337.738 68.8588 336.489 65.887 334.363 63.5904C332.237 61.2937 329.37 59.8191 326.266 59.4254C323.161 59.0318 320.017 59.7441 317.385 61.4374C314.753 63.1308 312.802 65.6969 311.874 68.6856C311.675 69.3247 311.524 69.978 311.424 70.6397C311.404 70.7569 311.388 70.8741 311.375 70.9913C311.349 71.1965 311.329 71.4049 311.313 71.6133C311.289 71.9542 311.277 72.2973 311.277 72.6426ZM349.029 72.6426C349.028 70.8768 349.42 69.133 350.178 67.5384C350.937 65.9439 352.042 64.5388 353.413 63.426C353.67 63.2143 353.931 63.0157 354.208 62.8301C355.905 61.6641 357.877 60.9633 359.929 60.7978C360.255 60.7685 360.581 60.7554 360.907 60.7554C364.033 60.7499 367.034 61.9829 369.253 64.1847C369.537 64.4615 369.804 64.7546 370.058 65.0575C370.482 65.5667 370.861 66.1115 371.191 66.6859C372.709 69.3084 373.169 72.4114 372.477 75.3614C371.784 78.3113 369.991 80.8859 367.465 82.5592L367.17 82.7514C365.37 83.8659 363.305 84.4796 361.188 84.5291C359.071 84.5786 356.98 84.062 355.13 83.0329C353.28 82.0037 351.738 80.4993 350.664 78.675C349.59 76.8506 349.022 74.7726 349.02 72.6555L349.029 72.6426ZM312.825 70.9685C313.232 68.0857 314.687 65.4542 316.911 63.5759C317.165 63.3577 317.426 63.1524 317.699 62.9603C319.71 61.5223 322.122 60.7512 324.594 60.7554H325.024C326.281 60.7974 327.524 61.0415 328.704 61.4784C330.942 62.3038 332.878 63.7833 334.264 65.7244C335.649 67.6655 336.418 69.9784 336.472 72.3625C336.434 72.4477 336.414 72.5397 336.413 72.6328C336.414 72.726 336.434 72.8178 336.472 72.9029C336.447 74.017 336.266 75.1222 335.934 76.1859L335.846 76.4594C334.971 79.0247 333.248 81.2152 330.961 82.6699C329.057 83.8807 326.847 84.5224 324.591 84.5197C323.03 84.5206 321.484 84.2138 320.042 83.6167C318.599 83.0196 317.288 82.1438 316.185 81.0398C315.081 79.9358 314.206 78.6251 313.609 77.1826C313.013 75.74 312.706 74.1939 312.707 72.6328C312.706 72.076 312.745 71.5196 312.825 70.9685Z" fill="black"/>
<path d="M325.206 116.044L340.747 136.08L331.198 144.726L321.871 121.066V116.044H325.206Z" fill="#408802"/>
<path d="M358.96 116.064L343.422 136.1L352.967 144.746L362.294 121.001V116.064H358.96Z" fill="#408802"/>
<path d="M475.962 305.551C475.968 306.41 475.648 307.241 475.066 307.873C474.794 308.177 474.461 308.421 474.09 308.589C473.718 308.758 473.315 308.846 472.907 308.849H3.05666C2.21665 308.818 1.4234 308.455 0.850763 307.84C0.278123 307.224 -0.0271404 306.407 0.00189718 305.567C-0.00408826 304.708 0.315926 303.878 0.897475 303.245C1.16953 302.941 1.50214 302.697 1.87395 302.528C2.24577 302.36 2.64857 302.271 3.05666 302.268H472.904C473.744 302.298 474.538 302.661 475.112 303.277C475.685 303.892 475.991 304.71 475.962 305.551Z" fill="#BABBC0"/>
<path d="M299.689 296.77H48.1465C45.3467 296.931 42.597 295.978 40.4966 294.12C38.3962 292.262 37.1155 289.649 36.9336 286.85V143.148C37.1155 140.349 38.3962 137.736 40.4966 135.878C42.597 134.02 45.3467 133.067 48.1465 133.228H299.689C302.489 133.067 305.239 134.02 307.339 135.878C309.439 137.736 310.72 140.349 310.902 143.148V286.85C310.72 289.649 309.439 292.262 307.339 294.12C305.239 295.978 302.489 296.931 299.689 296.77Z" fill="#3A3C3D"/>
<path d="M320.118 311.318H24.3684C23.705 311.318 23.0688 311.055 22.5998 310.586C22.1307 310.117 21.8672 309.48 21.8672 308.817V305.645C21.8668 305.316 21.9311 304.991 22.0566 304.687C22.1821 304.383 22.3663 304.107 22.5986 303.874C22.8309 303.642 23.1067 303.457 23.4104 303.331C23.714 303.205 24.0396 303.14 24.3684 303.14H320.114C320.443 303.14 320.768 303.205 321.072 303.331C321.376 303.457 321.652 303.642 321.884 303.874C322.116 304.107 322.3 304.383 322.426 304.687C322.551 304.991 322.616 305.316 322.615 305.645V308.817C322.615 309.479 322.352 310.115 321.884 310.584C321.416 311.053 320.78 311.317 320.118 311.318Z" fill="#3A3C3D"/>
<path d="M293.297 280.695H54.5336C48.6715 280.695 43.8906 276.927 43.8906 272.283V150.446C43.8906 145.799 48.6552 142.034 54.5336 142.034H293.297C299.159 142.034 303.94 145.802 303.94 150.446V272.283C303.937 276.927 299.175 280.695 293.297 280.695Z" fill="white"/>
<path d="M317.59 307.231H26.8923C24.1176 307.231 21.8672 306.192 21.8672 304.909L36.7373 284.522H310.797L322.619 304.909C322.619 306.192 320.368 307.231 317.59 307.231Z" fill="#EAE9E8"/>
<path d="M57.224 294.057H41.6211V297.855H57.224V294.057Z" fill="#BABBC0"/>
<path d="M76.0834 294.057H60.4805V297.855H76.0834V294.057Z" fill="#BABBC0"/>
<path d="M94.7787 294.057H79.1758V297.855H94.7787V294.057Z" fill="#BABBC0"/>
<path d="M113.47 294.057H97.8672V297.855H113.47V294.057Z" fill="#BABBC0"/>
<path d="M62.7865 289.758H47.1836V292.572H62.7865V289.758Z" fill="#BABBC0"/>
<path d="M81.642 289.758H66.0391V292.572H81.642V289.758Z" fill="#BABBC0"/>
<path d="M100.341 289.758H84.7383V292.572H100.341V289.758Z" fill="#BABBC0"/>
<path d="M119.029 289.758H103.426V292.572H119.029V289.758Z" fill="#BABBC0"/>
<path d="M137.056 289.758H121.453V292.572H137.056V289.758Z" fill="#BABBC0"/>
<path d="M155.912 289.758H140.309V292.572H155.912V289.758Z" fill="#BABBC0"/>
<path d="M174.595 289.758H158.992V292.572H174.595V289.758Z" fill="#BABBC0"/>
<path d="M193.298 289.758H177.695V292.572H193.298V289.758Z" fill="#BABBC0"/>
<path d="M211.31 289.758H195.707V292.572H211.31V289.758Z" fill="#BABBC0"/>
<path d="M230.181 289.758H214.578V292.572H230.181V289.758Z" fill="#BABBC0"/>
<path d="M248.865 289.758H233.262V292.572H248.865V289.758Z" fill="#BABBC0"/>
<path d="M267.552 289.758H251.949V292.572H267.552V289.758Z" fill="#BABBC0"/>
<path d="M285.58 289.758H269.977V292.572H285.58V289.758Z" fill="#BABBC0"/>
<path d="M304.435 289.758H288.832V292.572H304.435V289.758Z" fill="#BABBC0"/>
<path d="M71.3373 285.968H55.7344V288.782H71.3373V285.968Z" fill="#BABBC0"/>
<path d="M90.1889 285.968H74.5859V288.782H90.1889V285.968Z" fill="#BABBC0"/>
<path d="M108.888 285.968H93.2852V288.782H108.888V285.968Z" fill="#BABBC0"/>
<path d="M127.576 285.968H111.973V288.782H127.576V285.968Z" fill="#BABBC0"/>
<path d="M145.603 285.968H130V288.782H145.603V285.968Z" fill="#BABBC0"/>
<path d="M164.458 285.968H148.855V288.782H164.458V285.968Z" fill="#BABBC0"/>
<path d="M183.142 285.968H167.539V288.782H183.142V285.968Z" fill="#BABBC0"/>
<path d="M201.845 285.968H186.242V288.782H201.845V285.968Z" fill="#BABBC0"/>
<path d="M219.869 285.968H204.266V288.782H219.869V285.968Z" fill="#BABBC0"/>
<path d="M238.728 285.968H223.125V288.782H238.728V285.968Z" fill="#BABBC0"/>
<path d="M257.412 285.968H241.809V288.782H257.412V285.968Z" fill="#BABBC0"/>
<path d="M276.099 285.968H260.496V288.782H276.099V285.968Z" fill="#BABBC0"/>
<path d="M294.126 285.968H278.523V288.782H294.126V285.968Z" fill="#BABBC0"/>
<path d="M230.181 294.057H214.578V297.855H230.181V294.057Z" fill="#BABBC0"/>
<path d="M249.029 294.057H233.426V297.855H249.029V294.057Z" fill="#BABBC0"/>
<path d="M271.818 295.458H256.215V297.858H271.818V295.458Z" fill="#BABBC0"/>
<path d="M290.505 294.057H274.902V297.855H290.505V294.057Z" fill="#BABBC0"/>
<path d="M309.466 295.458H293.863V297.858H309.466V295.458Z" fill="#BABBC0"/>
<path d="M210.019 294.057H116.555V297.855H210.019V294.057Z" fill="#BABBC0"/>
<path d="M214.243 306H128.848C128.667 305.999 128.493 305.927 128.365 305.799C128.237 305.671 128.165 305.497 128.164 305.316V300.965C128.164 300.784 128.236 300.61 128.364 300.482C128.493 300.354 128.666 300.282 128.848 300.282H214.243C214.424 300.282 214.598 300.354 214.726 300.482C214.854 300.61 214.926 300.784 214.926 300.965V305.316C214.925 305.497 214.853 305.671 214.725 305.799C214.597 305.927 214.424 305.999 214.243 306Z" fill="#BABBC0"/>
<path d="M195.188 271.117H55.589C54.7475 271.117 53.9141 270.952 53.1365 270.63C52.3589 270.308 51.6523 269.836 51.0571 269.242C50.4619 268.647 49.9898 267.94 49.6677 267.163C49.3455 266.385 49.1797 265.552 49.1797 264.711V155.119C49.1793 154.277 49.3447 153.443 49.6667 152.666C49.9886 151.888 50.4607 151.181 51.0559 150.586C51.6512 149.991 52.3579 149.519 53.1357 149.197C53.9135 148.875 54.7472 148.709 55.589 148.71H195.191C196.033 148.71 196.866 148.875 197.644 149.197C198.422 149.519 199.128 149.992 199.723 150.587C200.319 151.182 200.791 151.889 201.113 152.666C201.435 153.444 201.601 154.277 201.601 155.119V264.711C201.601 265.553 201.435 266.386 201.112 267.164C200.79 267.941 200.318 268.648 199.722 269.243C199.127 269.838 198.42 270.309 197.642 270.631C196.864 270.953 196.03 271.118 195.188 271.117Z" fill="#CECECE"/>
<path d="M145.888 177.673H108.537C91.7777 177.673 78.207 191.413 78.207 204.052V214.027H176.234V204.055C176.247 191.413 162.647 177.673 145.888 177.673Z" fill="white"/>
<path d="M125.379 211.904H87.6016V204.089C87.6016 200.731 88.9351 197.511 91.3091 195.137C93.6831 192.763 96.903 191.43 100.26 191.43H112.708C116.065 191.43 119.285 192.763 121.659 195.137C124.033 197.511 125.366 200.731 125.366 204.089L125.379 211.904Z" fill="#565654"/>
<path d="M166.672 211.904H128.895V205.447C128.895 203.608 129.257 201.787 129.96 200.088C130.664 198.389 131.696 196.845 132.996 195.544C134.296 194.244 135.84 193.212 137.539 192.509C139.238 191.805 141.06 191.443 142.899 191.443H152.649C154.488 191.443 156.309 191.805 158.008 192.509C159.707 193.212 161.251 194.244 162.551 195.544C163.852 196.845 164.883 198.389 165.587 200.088C166.291 201.787 166.653 203.608 166.653 205.447V211.904H166.672Z" fill="#565654"/>
<path d="M166.691 208.244H160.8C160.591 207.623 160.192 207.083 159.661 206.701C159.129 206.319 158.491 206.114 157.836 206.114H135.729C135.075 206.114 134.436 206.319 133.905 206.701C133.373 207.083 132.975 207.623 132.766 208.244H87.5885C84.0774 208.248 80.6686 209.427 77.9062 211.594H176.373C173.611 209.427 170.202 208.248 166.691 208.244Z" fill="#070604"/>
<path d="M177.29 214.829H77.1133V206.873C77.1134 202.828 78.0028 198.832 79.7186 195.168C81.4152 191.543 83.8203 188.294 86.7922 185.613C89.8585 182.831 93.4171 180.645 97.2853 179.168C101.387 177.594 105.743 176.792 110.136 176.803H144.28C148.673 176.792 153.029 177.594 157.131 179.168C161 180.644 164.559 182.83 167.624 185.613C170.596 188.294 173.002 191.543 174.698 195.168C176.413 198.832 177.303 202.828 177.303 206.873L177.29 214.829ZM79.2626 212.875H175.166V206.863C175.166 191.354 161.312 178.738 144.286 178.738H110.127C93.0971 178.738 79.2463 191.354 79.2463 206.863L79.2626 212.875Z" fill="#F3B755"/>
<path d="M78.466 213.2L74.8835 212.223V210.947C74.8835 209.878 74.4591 208.853 73.7036 208.098C72.9481 207.342 71.9234 206.918 70.8549 206.918H66.4095C65.3126 206.918 64.2606 207.354 63.485 208.13C62.7093 208.905 62.2734 209.957 62.2734 211.054C62.2734 212.151 62.7093 213.203 63.485 213.978C64.2606 214.754 65.3126 215.19 66.4095 215.19H74.2029L80.4525 216.923L80.4883 216.789C80.5923 216.421 80.6225 216.035 80.577 215.655C80.5315 215.275 80.4113 214.908 80.2234 214.574C80.0354 214.241 79.7833 213.948 79.4817 213.712C79.1801 213.476 78.835 213.302 78.466 213.2Z" fill="#070604"/>
<path d="M174.717 213.2L178.3 212.223V210.947C178.3 209.878 178.724 208.854 179.48 208.098C180.235 207.343 181.26 206.918 182.328 206.918H186.783C187.88 206.918 188.932 207.354 189.708 208.13C190.483 208.905 190.919 209.957 190.919 211.054C190.919 212.151 190.483 213.203 189.708 213.979C188.932 214.754 187.88 215.19 186.783 215.19H178.99L172.74 216.923L172.705 216.789C172.6 216.421 172.569 216.037 172.614 215.657C172.658 215.277 172.778 214.91 172.965 214.576C173.152 214.243 173.403 213.95 173.704 213.714C174.004 213.478 174.349 213.303 174.717 213.2Z" fill="#070604"/>
<path d="M147.382 219.133C145.559 219.133 143.777 218.593 142.262 217.58C140.746 216.568 139.565 215.128 138.867 213.444C138.169 211.76 137.987 209.907 138.343 208.119C138.698 206.331 139.576 204.689 140.865 203.4C142.154 202.111 143.796 201.233 145.584 200.878C147.372 200.522 149.225 200.705 150.909 201.403C152.593 202.1 154.033 203.281 155.045 204.797C156.058 206.313 156.599 208.094 156.599 209.917C156.599 212.362 155.628 214.705 153.899 216.434C152.171 218.162 149.827 219.133 147.382 219.133ZM147.581 198.434C145.31 198.434 143.089 199.107 141.201 200.369C139.313 201.631 137.841 203.425 136.972 205.523C136.102 207.621 135.875 209.93 136.318 212.157C136.761 214.385 137.855 216.431 139.461 218.037C141.067 219.643 143.113 220.737 145.341 221.18C147.568 221.623 149.877 221.395 151.975 220.526C154.074 219.657 155.867 218.186 157.129 216.297C158.391 214.409 159.064 212.188 159.064 209.917C159.064 206.875 157.856 203.956 155.706 201.803C153.556 199.65 150.64 198.438 147.597 198.434H147.581Z" fill="#070604"/>
<path d="M85.267 266.422H74.5751C73.631 266.422 72.7257 266.046 72.0582 265.378C71.3906 264.711 71.0156 263.806 71.0156 262.862V248.933C71.0156 247.989 71.3906 247.084 72.0582 246.416C72.7257 245.749 73.631 245.373 74.5751 245.373H85.267C86.211 245.373 87.1165 245.749 87.784 246.416C88.4516 247.084 88.8266 247.989 88.8266 248.933V262.862C88.8266 263.806 88.4516 264.711 87.784 265.378C87.1165 266.046 86.211 266.422 85.267 266.422Z" fill="#080705"/>
<path d="M178.197 266.422H167.505C166.561 266.422 165.656 266.046 164.988 265.378C164.321 264.711 163.945 263.806 163.945 262.862V248.933C163.945 247.989 164.321 247.084 164.988 246.416C165.656 245.749 166.561 245.373 167.505 245.373H178.197C179.141 245.373 180.046 245.749 180.714 246.416C181.381 247.084 181.756 247.989 181.756 248.933V262.862C181.756 263.806 181.381 264.711 180.714 265.378C180.046 266.046 179.141 266.422 178.197 266.422Z" fill="#080705"/>
<path d="M177.313 255.011H77.1038C74.7225 255.011 72.4386 254.064 70.7548 252.38C69.0709 250.696 68.125 248.413 68.125 246.031V227.208C68.125 224.937 68.5722 222.688 69.4411 220.591C70.31 218.493 71.5837 216.588 73.1892 214.982C74.7947 213.377 76.7007 212.103 78.7984 211.234C80.8961 210.365 83.1444 209.917 85.415 209.917H169.002C171.273 209.917 173.521 210.365 175.618 211.234C177.716 212.103 179.622 213.377 181.228 214.982C182.833 216.588 184.107 218.493 184.976 220.591C185.845 222.688 186.292 224.937 186.292 227.208V246.031C186.292 248.413 185.346 250.696 183.662 252.38C181.978 254.064 179.694 255.011 177.313 255.011Z" fill="#F3B755"/>
<path d="M68.1406 243.64V245.991C68.1406 248.373 69.0868 250.657 70.7706 252.341C72.4545 254.025 74.7381 254.97 77.1195 254.97H177.329C179.71 254.97 181.994 254.025 183.678 252.341C185.361 250.657 186.307 248.373 186.307 245.991V243.64H68.1406Z" fill="#2D2C2C"/>
<path d="M161.287 236.596C161.287 236.596 161.287 236.629 161.287 236.642C161.281 237.38 161.084 238.103 160.714 238.742C160.589 238.959 160.445 239.166 160.284 239.358C160.204 239.456 160.118 239.549 160.027 239.638C159.628 240.038 159.155 240.355 158.634 240.571C158.112 240.787 157.553 240.899 156.989 240.898H97.9085C97.2798 240.899 96.6588 240.761 96.0893 240.495C95.5197 240.229 95.0157 239.841 94.6128 239.358C94.4513 239.166 94.3072 238.96 94.1826 238.742C93.8143 238.103 93.6169 237.38 93.6094 236.642C93.6094 236.642 93.6094 236.612 93.6094 236.596C93.6094 236.407 93.6094 236.215 93.6094 236.026C93.6449 235.316 93.7543 234.613 93.9354 233.926C93.9918 233.709 94.0537 233.503 94.121 233.31C94.366 232.575 94.6936 231.87 95.0978 231.209C95.2281 230.992 95.3648 230.787 95.5081 230.594C96.0805 229.801 96.7627 229.094 97.534 228.493C99.331 227.093 101.545 226.335 103.823 226.338H150.993C152.904 226.335 154.777 226.868 156.399 227.878C156.704 228.067 156.999 228.272 157.282 228.493C158.053 229.094 158.735 229.801 159.307 230.594C159.451 230.796 159.587 231.001 159.718 231.209C160.122 231.87 160.45 232.575 160.695 233.31C160.763 233.512 160.825 233.718 160.88 233.926C161.061 234.613 161.171 235.316 161.206 236.026C161.281 236.208 161.287 236.404 161.287 236.596Z" fill="#2D2C2C"/>
<path d="M157.325 228.497H97.5742C97.8575 228.276 98.152 228.071 98.4568 227.881H156.427C156.737 228.071 157.037 228.276 157.325 228.497Z" fill="#595554"/>
<path d="M159.775 231.213H95.1484C95.2787 230.996 95.4154 230.791 95.5587 230.598H159.361C159.506 230.798 159.645 231.003 159.775 231.213Z" fill="#595554"/>
<path d="M160.943 233.926H93.9648C94.0202 233.717 94.0821 233.512 94.1505 233.31H160.753C160.822 233.512 160.887 233.717 160.943 233.926Z" fill="#595554"/>
<path d="M161.29 236.597C161.29 236.597 161.29 236.626 161.29 236.642H93.6094C93.6094 236.642 93.6094 236.613 93.6094 236.597C93.6094 236.405 93.6094 236.216 93.6094 236.027H161.258C161.284 236.216 161.29 236.405 161.29 236.597Z" fill="#595554"/>
<path d="M160.718 238.743C160.594 238.96 160.45 239.167 160.288 239.359H94.6133C94.4519 239.167 94.3082 238.96 94.1836 238.743H160.718Z" fill="#595554"/>
<path d="M129.682 239.088C132.483 237.928 133.814 234.716 132.653 231.914C131.493 229.112 128.281 227.782 125.479 228.942C122.677 230.103 121.347 233.315 122.507 236.116C123.668 238.918 126.88 240.249 129.682 239.088Z" fill="#595554"/>
<path d="M77.9127 251.825C79.3336 251.825 80.4855 250.673 80.4855 249.252C80.4855 247.831 79.3336 246.679 77.9127 246.679C76.4917 246.679 75.3398 247.831 75.3398 249.252C75.3398 250.673 76.4917 251.825 77.9127 251.825Z" fill="white"/>
<path d="M176.374 251.825C177.795 251.825 178.946 250.673 178.946 249.252C178.946 247.831 177.795 246.679 176.374 246.679C174.953 246.679 173.801 247.831 173.801 249.252C173.801 250.673 174.953 251.825 176.374 251.825Z" fill="white"/>
<path d="M88.0596 225.566H78.3089C77.3588 225.566 76.4475 225.189 75.7757 224.517C75.1039 223.845 74.7266 222.934 74.7266 221.984V221.567C74.7266 220.617 75.1039 219.706 75.7757 219.034C76.4475 218.362 77.3588 217.984 78.3089 217.984H88.0596C89.0097 217.984 89.9207 218.362 90.5925 219.034C91.2644 219.706 91.6419 220.617 91.6419 221.567V221.984C91.6419 222.934 91.2644 223.845 90.5925 224.517C89.9207 225.189 89.0097 225.566 88.0596 225.566Z" fill="white"/>
<path d="M175.993 225.566H166.242C165.292 225.566 164.381 225.189 163.709 224.517C163.037 223.845 162.66 222.934 162.66 221.984V221.567C162.66 220.617 163.037 219.706 163.709 219.034C164.381 218.362 165.292 217.984 166.242 217.984H175.993C176.943 217.984 177.854 218.362 178.526 219.034C179.198 219.706 179.575 220.617 179.575 221.567V221.984C179.575 222.934 179.198 223.845 178.526 224.517C177.854 225.189 176.943 225.566 175.993 225.566Z" fill="white"/>
<path d="M296.156 161.857H214.161C213.405 161.857 212.679 161.557 212.144 161.022C211.609 160.487 211.309 159.761 211.309 159.004V151.563C211.309 150.806 211.609 150.08 212.144 149.545C212.679 149.01 213.405 148.71 214.161 148.71H296.156C296.53 148.71 296.901 148.784 297.248 148.927C297.594 149.07 297.908 149.28 298.173 149.545C298.438 149.81 298.648 150.125 298.792 150.471C298.935 150.817 299.009 151.188 299.009 151.563V159.004C299.009 159.379 298.935 159.75 298.792 160.096C298.648 160.442 298.438 160.757 298.173 161.022C297.908 161.287 297.594 161.496 297.248 161.64C296.901 161.783 296.53 161.857 296.156 161.857Z" fill="#CECECE"/>
<path d="M297.737 173.253H212.604C212.263 173.253 211.937 173.117 211.696 172.877C211.456 172.636 211.32 172.31 211.32 171.969V171.52C211.325 171.181 211.462 170.858 211.702 170.618C211.942 170.379 212.265 170.242 212.604 170.237H297.737C298.077 170.237 298.404 170.372 298.645 170.613C298.886 170.853 299.02 171.18 299.02 171.52V171.969C299.02 172.31 298.886 172.636 298.645 172.877C298.404 173.117 298.077 173.253 297.737 173.253Z" fill="#CECECE"/>
<path d="M297.737 178.317H212.604C212.263 178.317 211.937 178.181 211.696 177.941C211.456 177.7 211.32 177.374 211.32 177.033V176.584C211.325 176.245 211.462 175.922 211.702 175.682C211.942 175.443 212.265 175.306 212.604 175.301H297.737C298.077 175.301 298.404 175.436 298.645 175.677C298.886 175.917 299.02 176.244 299.02 176.584V177.033C299.02 177.374 298.886 177.7 298.645 177.941C298.404 178.181 298.077 178.317 297.737 178.317Z" fill="#CECECE"/>
<path d="M297.737 183.378H212.604C212.263 183.378 211.937 183.243 211.696 183.002C211.456 182.762 211.32 182.436 211.32 182.095V181.642C211.32 181.302 211.456 180.976 211.696 180.735C211.937 180.495 212.263 180.359 212.604 180.359H297.737C298.077 180.359 298.404 180.495 298.645 180.735C298.886 180.976 299.02 181.302 299.02 181.642V182.095C299.02 182.436 298.886 182.762 298.645 183.002C298.404 183.243 298.077 183.378 297.737 183.378Z" fill="#CECECE"/>
<path d="M297.737 188.442H212.604C212.263 188.442 211.937 188.307 211.696 188.066C211.456 187.825 211.32 187.499 211.32 187.159V186.71C211.325 186.371 211.462 186.048 211.702 185.808C211.942 185.568 212.265 185.431 212.604 185.426H297.737C298.077 185.426 298.404 185.562 298.645 185.802C298.886 186.043 299.02 186.369 299.02 186.71V187.159C299.02 187.499 298.886 187.825 298.645 188.066C298.404 188.307 298.077 188.442 297.737 188.442Z" fill="#CECECE"/>
<path d="M297.737 193.506H212.604C212.263 193.506 211.937 193.371 211.696 193.13C211.456 192.889 211.32 192.563 211.32 192.223V191.77C211.32 191.43 211.456 191.104 211.696 190.863C211.937 190.623 212.263 190.487 212.604 190.487H297.737C298.077 190.487 298.404 190.623 298.645 190.863C298.886 191.104 299.02 191.43 299.02 191.77V192.223C299.021 192.392 298.988 192.558 298.923 192.714C298.859 192.87 298.765 193.012 298.646 193.132C298.527 193.251 298.385 193.345 298.229 193.409C298.073 193.473 297.906 193.507 297.737 193.506Z" fill="#CECECE"/>
<path d="M297.737 198.567H212.604C212.263 198.567 211.937 198.432 211.696 198.191C211.456 197.95 211.32 197.624 211.32 197.284V196.834C211.32 196.494 211.456 196.168 211.696 195.927C211.937 195.687 212.263 195.551 212.604 195.551H297.737C298.077 195.551 298.404 195.687 298.645 195.927C298.886 196.168 299.02 196.494 299.02 196.834V197.284C299.02 197.624 298.886 197.95 298.645 198.191C298.404 198.432 298.077 198.567 297.737 198.567Z" fill="#CECECE"/>
<path d="M297.737 203.632H212.604C212.435 203.632 212.267 203.599 212.111 203.534C211.956 203.469 211.814 203.375 211.695 203.255C211.576 203.136 211.482 202.994 211.417 202.838C211.353 202.682 211.32 202.514 211.32 202.345V201.896C211.32 201.556 211.456 201.23 211.696 200.989C211.937 200.748 212.263 200.613 212.604 200.613H297.737C298.077 200.613 298.404 200.748 298.645 200.989C298.886 201.23 299.02 201.556 299.02 201.896V202.345C299.021 202.514 298.988 202.682 298.924 202.838C298.86 202.994 298.765 203.136 298.646 203.255C298.527 203.375 298.385 203.469 298.229 203.534C298.073 203.599 297.906 203.632 297.737 203.632Z" fill="#CECECE"/>
<path d="M296.758 218.82H213.588C212.984 218.82 212.403 218.58 211.976 218.152C211.548 217.725 211.309 217.145 211.309 216.541V216.277C211.309 215.672 211.548 215.092 211.976 214.664C212.403 214.237 212.984 213.997 213.588 213.997H296.758C297.362 213.997 297.943 214.237 298.37 214.664C298.798 215.092 299.038 215.672 299.038 216.277V216.541C299.038 217.145 298.798 217.725 298.37 218.152C297.943 218.58 297.362 218.82 296.758 218.82Z" fill="#CECECE"/>
<path d="M297.737 223.885H212.604C212.263 223.885 211.937 223.749 211.696 223.509C211.456 223.268 211.32 222.942 211.32 222.601V222.149C211.325 221.81 211.462 221.487 211.702 221.247C211.942 221.008 212.265 220.871 212.604 220.866H297.737C298.077 220.866 298.404 221.001 298.645 221.242C298.886 221.482 299.02 221.809 299.02 222.149V222.601C299.02 222.942 298.886 223.268 298.645 223.509C298.404 223.749 298.077 223.885 297.737 223.885Z" fill="#CECECE"/>
<path d="M297.737 228.946H212.604C212.263 228.946 211.937 228.811 211.696 228.571C211.456 228.33 211.32 228.003 211.32 227.663V227.213C211.32 226.873 211.456 226.547 211.696 226.306C211.937 226.065 212.263 225.93 212.604 225.93H297.737C298.077 225.93 298.404 226.065 298.645 226.306C298.886 226.547 299.02 226.873 299.02 227.213V227.663C299.02 228.003 298.886 228.33 298.645 228.571C298.404 228.811 298.077 228.946 297.737 228.946Z" fill="#CECECE"/>
<path d="M297.737 234.01H212.604C212.263 234.01 211.937 233.876 211.696 233.635C211.456 233.394 211.32 233.067 211.32 232.727V232.275C211.325 231.936 211.462 231.613 211.702 231.373C211.942 231.133 212.265 230.996 212.604 230.991H297.737C298.077 230.991 298.404 231.127 298.645 231.367C298.886 231.608 299.02 231.934 299.02 232.275V232.727C299.02 233.067 298.886 233.394 298.645 233.635C298.404 233.876 298.077 234.01 297.737 234.01Z" fill="#CECECE"/>
<path d="M297.737 239.074H212.604C212.263 239.074 211.937 238.939 211.696 238.699C211.456 238.458 211.32 238.131 211.32 237.791V237.338C211.325 236.999 211.462 236.676 211.702 236.436C211.942 236.197 212.265 236.06 212.604 236.055H297.737C298.077 236.055 298.404 236.19 298.645 236.431C298.886 236.672 299.02 236.998 299.02 237.338V237.791C299.021 237.959 298.988 238.127 298.923 238.283C298.859 238.439 298.765 238.58 298.646 238.699C298.527 238.819 298.385 238.912 298.229 238.977C298.073 239.041 297.906 239.074 297.737 239.074Z" fill="#CECECE"/>
<path d="M297.737 244.135H212.604C212.435 244.135 212.267 244.102 212.111 244.037C211.956 243.973 211.814 243.878 211.695 243.758C211.576 243.639 211.482 243.497 211.417 243.341C211.353 243.185 211.32 243.017 211.32 242.849V242.399C211.32 242.059 211.456 241.733 211.696 241.492C211.937 241.252 212.263 241.116 212.604 241.116H297.737C298.077 241.116 298.404 241.252 298.645 241.492C298.886 241.733 299.02 242.059 299.02 242.399V242.849C299.021 243.017 298.988 243.185 298.924 243.341C298.86 243.497 298.765 243.639 298.646 243.758C298.527 243.878 298.385 243.973 298.229 244.037C298.073 244.102 297.906 244.135 297.737 244.135Z" fill="#CECECE"/>
<path d="M297.737 249.209H212.604C212.263 249.209 211.937 249.074 211.696 248.833C211.456 248.592 211.32 248.266 211.32 247.926V247.473C211.32 247.132 211.456 246.806 211.696 246.565C211.937 246.325 212.263 246.19 212.604 246.19H297.737C298.077 246.19 298.404 246.325 298.645 246.565C298.886 246.806 299.02 247.132 299.02 247.473V247.926C299.02 248.266 298.886 248.592 298.645 248.833C298.404 249.074 298.077 249.209 297.737 249.209Z" fill="#CECECE"/>
<path d="M297.737 254.26H212.604C212.263 254.26 211.937 254.126 211.696 253.885C211.456 253.644 211.32 253.318 211.32 252.978V252.528C211.32 252.187 211.456 251.861 211.696 251.621C211.937 251.38 212.263 251.245 212.604 251.245H297.737C298.077 251.245 298.404 251.38 298.645 251.621C298.886 251.861 299.02 252.187 299.02 252.528V252.978C299.02 253.318 298.886 253.644 298.645 253.885C298.404 254.126 298.077 254.26 297.737 254.26Z" fill="#CECECE"/>
<path d="M297.737 259.327H212.604C212.263 259.327 211.937 259.193 211.696 258.952C211.456 258.712 211.32 258.385 211.32 258.045V257.592C211.32 257.251 211.456 256.925 211.696 256.685C211.937 256.444 212.263 256.308 212.604 256.308H297.737C298.077 256.308 298.404 256.444 298.645 256.685C298.886 256.925 299.02 257.251 299.02 257.592V258.045C299.02 258.385 298.886 258.712 298.645 258.952C298.404 259.193 298.077 259.327 297.737 259.327Z" fill="#CECECE"/>
<path d="M297.737 264.388H212.604C212.263 264.388 211.937 264.254 211.696 264.013C211.456 263.772 211.32 263.446 211.32 263.106V262.653C211.32 262.312 211.456 261.986 211.696 261.745C211.937 261.505 212.263 261.369 212.604 261.369H297.737C298.077 261.369 298.404 261.505 298.645 261.745C298.886 261.986 299.02 262.312 299.02 262.653V263.106C299.02 263.446 298.886 263.772 298.645 264.013C298.404 264.254 298.077 264.388 297.737 264.388Z" fill="#CECECE"/>
<path d="M297.737 269.452H212.604C212.263 269.452 211.937 269.317 211.696 269.077C211.456 268.836 211.32 268.51 211.32 268.17V267.72C211.32 267.379 211.456 267.053 211.696 266.812C211.937 266.572 212.263 266.437 212.604 266.437H297.737C298.077 266.437 298.404 266.572 298.645 266.812C298.886 267.053 299.02 267.379 299.02 267.72V268.17C299.02 268.51 298.886 268.836 298.645 269.077C298.404 269.317 298.077 269.452 297.737 269.452Z" fill="#CECECE"/>
</svg>
