<svg width="480" height="277" viewBox="0 0 480 277" fill="none" xmlns="http://www.w3.org/2000/svg">
<path d="M457.634 88.4752C458.493 89.4216 459.152 90.5313 459.572 91.7382C459.991 92.9451 460.163 94.2243 460.077 95.4992C459.886 98.0549 459.11 100.532 457.808 102.74C455.066 107.088 451.239 110.647 446.704 113.068C444.988 108.501 444.997 103.465 446.732 98.9043C448.259 94.018 453.963 86.1482 457.64 88.4722" fill="#EBEBEB"/>
<path d="M448.07 122.39C448.343 120.986 448.983 119.68 449.923 118.603C450.864 117.526 452.073 116.717 453.427 116.257C454.787 115.824 456.221 115.664 457.643 115.788C459.066 115.911 460.45 116.316 461.715 116.978C462.329 117.222 462.882 117.596 463.337 118.075C463.791 118.554 464.136 119.126 464.348 119.751C464.445 120.362 464.376 120.987 464.15 121.562C463.923 122.138 463.546 122.642 463.059 123.022C462.073 123.771 460.907 124.247 459.678 124.402C457.715 124.935 455.658 125.031 453.653 124.684C451.648 124.337 449.744 123.555 448.073 122.393" fill="#EBEBEB"/>
<path d="M437.454 134.287C437.602 133.98 437.775 133.687 437.973 133.41L439.473 131.08C441.052 128.449 443.048 126.092 445.382 124.099C447.766 122.132 450.629 120.833 453.679 120.334C454.599 120.198 455.532 120.172 456.459 120.257C456.788 120.279 457.039 120.343 457.207 120.361C457.296 120.37 457.383 120.392 457.466 120.425C456.213 120.35 454.956 120.401 453.713 120.578C450.731 121.137 447.939 122.443 445.599 124.374C443.298 126.35 441.301 128.655 439.674 131.215C439.009 132.174 438.471 132.952 438.086 133.484C437.904 133.773 437.692 134.042 437.454 134.287Z" fill="#E0E0E0"/>
<path d="M453.813 94.8687C453.792 95.0159 453.752 95.1596 453.694 95.2963C453.59 95.6016 453.45 96.0048 453.282 96.4934C452.918 97.5287 452.365 99.0281 451.684 100.87C450.304 104.553 448.325 109.613 446.035 115.153C443.744 120.692 441.527 125.661 439.887 129.231C439.069 131.018 438.388 132.459 437.914 133.446C437.682 133.916 437.502 134.285 437.355 134.578C437.299 134.715 437.226 134.844 437.139 134.963C437.173 134.82 437.224 134.682 437.291 134.551C437.417 134.246 437.597 133.864 437.789 133.387C438.25 132.337 438.889 130.896 439.664 129.112C441.246 125.515 443.411 120.537 445.714 114.997C448.017 109.457 450.026 104.418 451.461 100.757C452.17 98.9579 452.744 97.4859 453.162 96.4232C453.358 95.9406 453.514 95.5558 453.639 95.2474C453.681 95.1144 453.739 94.9872 453.813 94.8687Z" fill="#E0E0E0"/>
<path d="M440.325 122.437C440.995 119.498 440.955 116.44 440.207 113.519C439.459 110.598 438.026 107.897 436.026 105.641C435.002 104.508 433.497 103.421 432.055 103.94C430.614 104.459 430.144 106.264 430.116 107.797C430.111 110.996 431.054 114.125 432.826 116.788C434.598 119.451 437.119 121.53 440.072 122.761" fill="#EBEBEB"/>
<path d="M434.884 110.206C435.126 110.415 435.349 110.645 435.55 110.894C435.804 111.166 436.043 111.454 436.264 111.755C436.518 112.112 436.844 112.491 437.132 112.976C437.419 113.462 437.761 113.95 438.048 114.531C438.378 115.139 438.675 115.765 438.936 116.406C439.53 117.881 439.957 119.417 440.21 120.987C440.434 122.558 440.476 124.151 440.335 125.732C440.271 126.422 440.169 127.107 440.03 127.785C439.913 128.376 439.763 128.96 439.581 129.534C439.438 130.01 439.27 130.478 439.077 130.936C438.949 131.287 438.797 131.629 438.622 131.959C438.5 132.255 438.345 132.537 438.161 132.799C438.091 132.765 438.735 131.559 439.337 129.458C439.502 128.887 439.636 128.307 439.737 127.72C439.867 127.051 439.961 126.375 440.017 125.696C440.138 124.14 440.087 122.576 439.865 121.032C439.621 119.492 439.211 117.983 438.643 116.531C438.394 115.895 438.112 115.274 437.797 114.668C437.532 114.135 437.24 113.616 436.921 113.114C435.757 111.251 434.82 110.255 434.884 110.206Z" fill="#E0E0E0"/>
<path d="M22.5776 44.8508C22.5776 44.8508 16.1369 46.9305 22.3821 60.7311C25.4804 67.8649 29.0512 74.7842 33.0708 81.4426C33.0708 81.4426 34.1427 84.6278 31.4888 84.9912C28.835 85.3547 23.0723 84.1575 21.7439 87.3214C20.3727 90.6135 22.66 93.8811 27.4485 96.877C32.237 99.8729 42.5165 106.833 43.4387 107.471C44.361 108.109 45.2161 109.593 43.4387 110.131C41.6614 110.668 28.5479 111.42 29.2748 117.622C30.0016 123.825 44.7397 129.987 46.3369 130.693C47.9341 131.398 48.2914 132.107 48.1143 132.989C47.9371 133.872 43.5059 133.71 39.7832 134.083C36.0605 134.455 31.8095 135.524 32.5302 139.067C33.2509 142.609 41.7866 150.387 63.2463 153.512L73.2875 154.309L79.1632 146.063C90.652 127.663 90.2397 116.135 87.9981 113.289C85.7566 110.442 82.1957 112.983 79.5053 115.6C76.8148 118.218 74.0785 121.693 73.2875 121.25C72.4966 120.807 72.1881 120.08 72.6767 118.407C73.1654 116.733 77.9966 101.507 73.7334 96.9411C69.4702 92.3756 60.4153 101.898 58.864 102.905C57.3126 103.913 56.7263 102.276 56.8392 101.183C56.9522 100.09 58.2898 87.7458 59.1022 82.1389C59.9145 76.5319 58.8915 72.6718 55.4955 71.6091C52.2187 70.5738 49.4122 75.741 47.4149 77.5336C45.4177 79.3262 43.683 76.4495 43.683 76.4495C41.2028 69.0747 38.235 61.873 34.7993 54.892C28.3006 41.1984 22.4279 44.8875 22.4279 44.8875" fill="#EBEBEB"/>
<path d="M73.6999 156.709C68.9664 146.631 60.8735 128.576 53.816 113.118C46.7584 97.6588 40.3788 83.6688 35.7033 73.5727C33.364 68.5307 31.4676 64.4507 30.1452 61.6136C29.4947 60.2119 28.9908 59.1155 28.6396 58.3643C28.4717 58.0009 28.3342 57.7199 28.2548 57.5184C28.1754 57.3168 28.1357 57.213 28.1357 57.213C28.1357 57.213 28.1907 57.3046 28.2823 57.4939C28.374 57.6832 28.5206 57.9703 28.6946 58.3276C29.058 59.0758 29.5833 60.16 30.2551 61.5556C31.605 64.356 33.5381 68.4299 35.8987 73.4658C40.6323 83.5437 47.0516 97.5152 54.0939 112.974C61.1361 128.433 69.2198 146.521 73.8831 156.617" fill="#E0E0E0"/>
<path d="M29.7373 89.3248C29.9764 89.3758 30.2089 89.4537 30.4305 89.5568C30.8703 89.7187 31.4933 89.9783 32.2629 90.299C33.7898 90.9494 35.9092 91.9022 38.221 92.9955L44.115 95.8112C44.8236 96.1472 45.4252 96.422 45.9077 96.651C46.1354 96.7363 46.3517 96.8491 46.552 96.987C46.3137 96.9375 46.0813 96.8627 45.8588 96.764C45.4191 96.5961 44.796 96.3426 44.0265 96.0067C42.4995 95.3409 40.3924 94.3606 38.0897 93.2582C35.7871 92.1557 33.7562 91.2212 32.1804 90.4852L30.3817 89.6515C30.1544 89.5692 29.938 89.4595 29.7373 89.3248Z" fill="#E0E0E0"/>
<path d="M47.2729 96.3749C47.1965 96.3413 48.9617 91.907 51.243 86.4742C53.5242 81.0413 55.4085 76.6651 55.4848 76.7017C55.5612 76.7384 53.796 81.1695 51.5148 86.6024C49.2335 92.0353 47.3584 96.3993 47.2729 96.3749Z" fill="#E0E0E0"/>
<path d="M57.0205 120.602C57.1427 120.384 57.2881 120.179 57.4542 119.992C57.7962 119.57 58.2176 119.039 58.7215 118.416C59.7934 117.084 61.2563 115.243 62.8046 113.151C64.3529 111.059 65.6905 109.117 66.6494 107.703C67.0984 107.037 67.4831 106.481 67.7824 106.029C67.9093 105.814 68.0599 105.615 68.2314 105.434C68.1436 105.665 68.0288 105.886 67.8893 106.09C67.6511 106.502 67.2938 107.098 66.8388 107.819C65.9226 109.269 64.6186 111.23 63.0581 113.316C61.4975 115.402 60.0042 117.243 58.8925 118.538C58.3337 119.182 57.8786 119.701 57.5488 120.065C57.3947 120.264 57.2174 120.445 57.0205 120.602Z" fill="#E0E0E0"/>
<path d="M39.7578 117.726C39.9877 117.712 40.2185 117.726 40.4449 117.769C40.9488 117.833 41.5657 117.909 42.3017 118.007C43.8622 118.217 46.0183 118.532 48.4095 118.895C50.8007 119.259 52.9384 119.61 54.4929 119.876L56.3252 120.212C56.3551 120.131 56.4142 120.064 56.4909 120.024C56.5676 119.985 56.6563 119.976 56.7395 119.998C56.8228 120.021 56.8945 120.074 56.9406 120.147C56.9867 120.22 57.0038 120.307 56.9886 120.392C56.9734 120.477 56.9269 120.553 56.8583 120.606C56.7897 120.658 56.704 120.683 56.6181 120.675C56.5322 120.667 56.4522 120.628 56.3941 120.564C56.3359 120.5 56.3037 120.417 56.3038 120.331C55.7999 120.267 55.1831 120.19 54.4471 120.093C52.8865 119.882 50.7305 119.567 48.3393 119.204C45.9481 118.84 43.8103 118.489 42.2559 118.224L40.4236 117.888C40.1964 117.858 39.9731 117.804 39.7578 117.726Z" fill="#E0E0E0"/>
<path d="M45.6445 140.204C45.9381 140.197 46.2316 140.218 46.521 140.268L48.9 140.573C50.9033 140.833 53.6763 141.218 56.7271 141.658C59.778 142.097 62.5448 142.513 64.542 142.827C65.4948 142.989 66.2919 143.114 66.9088 143.218C67.2008 143.253 67.489 143.315 67.77 143.401C67.4765 143.408 67.1829 143.387 66.8935 143.337L64.5146 143.032C62.5112 142.772 59.7383 142.387 56.6874 141.948C53.6366 141.508 50.8697 141.093 48.8725 140.778C47.9197 140.616 47.1226 140.491 46.5118 140.387C46.2176 140.353 45.9272 140.292 45.6445 140.204Z" fill="#E0E0E0"/>
<path d="M67.249 143.169C67.4059 142.896 67.5836 142.636 67.7804 142.39L69.3073 140.338C70.6022 138.601 72.3796 136.2 74.2699 133.491C76.1603 130.783 77.8125 128.3 78.9974 126.467C79.5654 125.6 80.0326 124.87 80.3991 124.33C80.5583 124.058 80.7412 123.8 80.9457 123.56C80.8256 123.851 80.6784 124.13 80.506 124.394C80.2006 124.919 79.7578 125.676 79.1898 126.599C78.0568 128.446 76.4412 130.96 74.5325 133.678C72.6239 136.396 70.8282 138.775 69.4906 140.482C68.8187 141.328 68.269 142.009 67.872 142.476C67.6867 142.726 67.4781 142.958 67.249 143.169Z" fill="#E0E0E0"/>
<path d="M230.797 127.672C212.858 118.648 206.109 98.0493 204.008 78.9716C203.257 75.8634 203.231 72.6244 203.931 69.5045C204.404 67.9867 205.414 66.6937 206.773 65.8687C208.132 65.0437 209.745 64.7434 211.31 65.0244C213.823 65.794 215.243 68.3837 216.889 70.4573C219.087 73.2234 222.022 75.313 225.355 76.4857C226.401 76.9628 227.547 77.18 228.696 77.1188C229.844 77.0577 230.961 76.72 231.951 76.1345C234.464 74.2289 234.241 70.4085 233.783 67.2568C232.894 61.3832 232.007 55.5116 231.123 49.642C230.478 46.5175 230.342 43.309 230.723 40.1413C230.921 38.5661 231.497 37.0619 232.401 35.7567C233.304 34.4514 234.51 33.3836 235.915 32.644C237.353 31.9888 238.991 31.9273 240.473 32.4728C241.956 33.0183 243.163 34.1268 243.834 35.5574C244.139 36.8466 244.359 38.1544 244.493 39.4725C244.568 40.1294 244.835 40.7497 245.261 41.2554C245.687 41.7612 246.253 42.13 246.888 42.3157C248.198 42.505 249.331 41.427 250.143 40.3703C252.771 36.5704 254.758 32.3654 256.025 27.9227C257.293 23.4796 259.082 19.2019 261.354 15.1787C262.491 13.1811 264.015 11.4309 265.838 10.0311C267.661 8.63137 269.746 7.61027 271.969 7.0279C274.217 6.52521 276.567 6.78912 278.647 7.7776C280.727 8.76607 282.416 10.4222 283.446 12.4822C285.232 16.7576 283.293 21.6439 281.003 25.6506C277.586 31.5928 273.329 37.0112 268.366 41.7385C267.374 42.4891 266.648 43.5364 266.292 44.7283C265.913 46.9271 268.204 48.7258 270.381 49.1167C272.875 49.2921 275.38 49.2123 277.857 48.8785C279.106 48.7298 280.372 48.9122 281.529 49.4075C282.685 49.9028 283.69 50.6935 284.444 51.7003C286.2 54.7389 283.995 58.5044 281.665 61.0971C276.979 66.2886 271.436 70.6373 265.278 73.954C262.987 74.9598 260.899 76.3768 259.118 78.1348C258.242 79.0434 257.68 80.2091 257.515 81.4608C257.35 82.7124 257.591 83.984 258.202 85.0886C259.034 86.027 260.14 86.6809 261.363 86.9587C262.586 87.2364 263.866 87.1239 265.022 86.6369C267.304 85.618 269.492 84.3998 271.56 82.9966C275.655 80.7337 281.293 80.2237 284.609 83.5708C285.642 84.7364 286.391 86.1256 286.797 87.6294C287.203 89.1332 287.255 90.7106 286.949 92.2377C286.308 95.2838 285.062 98.1699 283.284 100.724C277.61 109.967 269.583 117.537 260.025 122.661C251.203 127.816 240.81 129.594 230.775 127.666" fill="#F5F5F5"/>
<path d="M233.977 115.059C235.633 104.257 237.91 93.5599 240.796 83.0201C241.545 80.2125 242.285 77.4447 243.016 74.7165C243.752 71.9924 244.479 69.2897 245.355 66.6939C247.045 61.7023 249.01 56.8085 251.243 52.0352C253.344 47.4697 255.5 43.2064 257.543 39.2425C259.586 35.2785 261.584 31.6077 263.535 28.3614C266.589 23.2094 270.047 18.3078 273.876 13.7027C275.226 12.0719 276.319 10.8382 277.067 10.0197C277.43 9.62882 277.711 9.32039 277.928 9.10357C278.019 8.99112 278.121 8.88872 278.234 8.79816C278.156 8.92016 278.067 9.03466 277.968 9.14019C277.766 9.3784 277.491 9.69906 277.156 10.1144C276.435 10.9603 275.369 12.2155 274.047 13.8676C270.295 18.5196 266.896 23.4461 263.88 28.6057C261.956 31.8673 259.996 35.5289 257.965 39.4929C255.934 43.4568 253.799 47.7384 251.72 52.2918C249.512 57.0484 247.565 61.9215 245.887 66.8894C245.019 69.473 244.299 72.1543 243.569 74.8845C242.839 77.6147 242.106 80.3815 241.358 83.188C238.48 93.7078 236.194 104.381 234.511 115.156" fill="#E0E0E0"/>
<path d="M245.52 66.639C245.307 66.2243 245.138 65.7882 245.016 65.338C244.711 64.4921 244.344 63.2522 243.895 61.71C242.979 58.6377 241.901 54.344 240.71 49.6104C239.519 44.8769 238.365 40.6136 237.418 37.5597C236.948 36.0328 236.557 34.8112 236.276 33.9531C236.101 33.5208 235.976 33.07 235.903 32.6094C236.145 33.0094 236.342 33.4343 236.493 33.8767C236.844 34.7044 237.29 35.9198 237.809 37.4345C238.859 40.4671 240.084 44.7303 241.275 49.4638C242.439 54.1394 243.495 58.3629 244.298 61.597C244.669 63.0527 244.982 64.2742 245.236 65.2616C245.383 65.7085 245.478 66.1706 245.52 66.639Z" fill="#E0E0E0"/>
<path d="M284.957 53.2062C284.442 53.3982 283.91 53.5413 283.369 53.6337C282.34 53.878 280.855 54.2231 279.029 54.7056C275.365 55.6432 270.368 57.1152 264.92 58.9811C259.472 60.847 254.613 62.7618 251.141 64.246C249.397 64.9729 248.005 65.605 247.04 66.0325C246.551 66.2844 246.04 66.489 245.513 66.6433C245.962 66.3227 246.44 66.0456 246.942 65.8157C247.879 65.3271 249.254 64.64 250.976 63.8551C254.415 62.2732 259.264 60.2973 264.719 58.4161C269.378 56.8023 274.116 55.4283 278.916 54.2995C280.749 53.8658 282.275 53.5849 283.308 53.4108C283.849 53.2887 284.402 53.2202 284.957 53.2062Z" fill="#E0E0E0"/>
<path d="M234.36 114.235C234.222 114.1 234.104 113.947 234.009 113.78C233.764 113.41 233.462 112.961 233.093 112.415C232.308 111.224 231.23 109.474 229.914 107.29C227.287 102.929 223.851 96.7878 220.141 89.9684C216.431 83.1491 213.056 76.9802 210.527 72.5612C209.288 70.4235 208.274 68.6553 207.51 67.3452C207.189 66.7771 206.915 66.3099 206.698 65.9251C206.591 65.7638 206.506 65.5893 206.444 65.4059C206.58 65.5424 206.698 65.6953 206.796 65.861C207.04 66.2305 207.342 66.6794 207.712 67.226C208.487 68.4171 209.575 70.167 210.891 72.3505C213.517 76.7115 216.953 82.8528 220.663 89.6783C224.374 96.5038 227.742 102.667 230.277 107.086C231.517 109.223 232.531 110.991 233.294 112.302C233.615 112.87 233.89 113.337 234.106 113.722C234.213 113.881 234.299 114.053 234.36 114.235Z" fill="#E0E0E0"/>
<path d="M285.721 89.0952C285.567 89.2176 285.398 89.3202 285.217 89.4005L283.727 90.1488L278.23 92.8514C273.588 95.1327 267.209 98.3484 260.172 101.94C253.136 105.531 246.735 108.689 242.032 110.882C239.687 111.975 237.781 112.842 236.453 113.416L234.926 114.067C234.751 114.154 234.565 114.218 234.373 114.256C234.528 114.134 234.697 114.031 234.877 113.951L236.367 113.203L241.864 110.5C246.506 108.219 252.886 105.003 259.922 101.411C266.958 97.8201 273.359 94.6624 278.062 92.4789C280.407 91.3856 282.313 90.5183 283.642 89.9441L285.168 89.2936C285.341 89.1982 285.528 89.1312 285.721 89.0952Z" fill="#E0E0E0"/>
<path d="M474.084 274.301C474.084 274.399 369.079 274.485 239.572 274.485C110.066 274.485 5.0332 274.399 5.0332 274.301C5.0332 274.204 110.02 274.118 239.572 274.118C369.125 274.118 474.084 274.201 474.084 274.301Z" fill="#263238"/>
<path d="M203.975 274.298L110.914 273.865C108.252 273.852 105.619 273.316 103.164 272.287C100.71 271.257 98.4819 269.754 96.6083 267.863C94.7346 265.973 93.2518 263.731 92.2443 261.268C91.2368 258.804 90.7245 256.166 90.7365 253.504L91.7229 20.1865C91.7333 17.5234 92.2686 14.8884 93.298 12.4322C94.3274 9.97607 95.8308 7.74689 97.7223 5.87214C99.6138 3.99739 101.856 2.51383 104.321 1.50629C106.787 0.498747 109.426 -0.0130125 112.089 0.000251376L205.151 0.427795C207.812 0.439799 210.446 0.97596 212.9 2.00566C215.355 3.03537 217.583 4.53845 219.456 6.42909C221.33 8.31972 222.813 10.5609 223.82 13.0246C224.828 15.4883 225.34 18.1264 225.328 20.7881L224.341 254.106C224.332 256.769 223.797 259.405 222.768 261.862C221.739 264.319 220.236 266.549 218.344 268.424C216.453 270.299 214.21 271.784 211.744 272.792C209.279 273.799 206.639 274.311 203.975 274.298Z" fill="#455A64"/>
<path d="M205.019 8.50232L186.977 8.41681C186.388 8.42635 185.808 8.55186 185.268 8.78618C184.729 9.02049 184.241 9.35899 183.832 9.78227C183.424 10.2056 183.103 10.7053 182.888 11.2529C182.673 11.8004 182.568 12.3851 182.579 12.9732V16.2439C182.591 16.8337 182.486 17.4199 182.27 17.969C182.055 18.518 181.733 19.0191 181.323 19.4433C180.913 19.8676 180.424 20.2067 179.883 20.4411C179.341 20.6756 178.759 20.8008 178.169 20.8095L143.001 20.6477C141.813 20.6149 140.687 20.1122 139.869 19.25C139.051 18.3877 138.609 17.2364 138.64 16.0485V12.7778C138.67 11.5899 138.228 10.4385 137.41 9.57628C136.593 8.71404 135.466 8.21137 134.279 8.1786L127.936 8.15112L112.141 8.08088C108.375 8.06465 104.757 9.54481 102.083 12.1958C99.4082 14.8469 97.8962 18.4516 97.8793 22.2174L96.9142 249.943C96.9058 251.807 97.2645 253.654 97.9699 255.379C98.6753 257.104 99.7136 258.673 101.025 259.997C102.337 261.321 103.897 262.373 105.616 263.094C107.334 263.815 109.178 264.191 111.042 264.199L203.923 264.627C207.688 264.643 211.306 263.163 213.981 260.512C216.655 257.861 218.167 254.256 218.184 250.49L219.149 22.764C219.162 19.0003 217.682 15.3851 215.033 12.7115C212.384 10.0379 208.783 8.52413 205.019 8.50232Z" fill="#FAFAFA"/>
<path d="M143.248 242.578L177.513 207.067L210.104 240.287L143.248 242.578Z" fill="#EBEBEB"/>
<path d="M182.861 202.479L218.54 167.137C218.54 168.706 218.235 240.449 218.235 240.449L182.861 202.479Z" fill="#EBEBEB"/>
<path d="M152.312 182.627L172.553 202.868L132.59 244.096L114.126 221.952L152.312 182.627Z" fill="#EBEBEB"/>
<path d="M96.9141 235.276L108.696 224.828L125.016 244.105H96.9202V236.732" fill="#EBEBEB"/>
<path d="M112.18 35.6577C110.939 34.736 109.771 33.7202 108.687 32.6191V32.3534L108.708 32.332L108.751 32.2892L108.836 32.2037L109.01 32.0419L109.346 31.7365C109.563 31.5349 109.78 31.3364 109.991 31.1471L111.09 30.1668C111.408 29.8396 111.771 29.5589 112.168 29.3331C111.91 29.7136 111.602 30.0577 111.252 30.3561C110.916 30.686 110.574 31.028 110.207 31.3914L109.597 32.0022L109.261 32.3076L109.093 32.4694L109.007 32.5549L108.964 32.5977L108.943 32.6191V32.3473C110.104 33.3677 111.186 34.4743 112.18 35.6577Z" fill="#263238"/>
<path d="M208.946 30.3165C208.946 30.4663 208.902 30.6128 208.819 30.7373C208.736 30.8618 208.617 30.9589 208.479 31.0162C208.341 31.0736 208.188 31.0886 208.041 31.0593C207.894 31.0301 207.759 30.958 207.654 30.852C207.548 30.7461 207.475 30.6112 207.446 30.4643C207.417 30.3174 207.432 30.1651 207.489 30.0267C207.547 29.8883 207.644 29.77 207.768 29.6868C207.893 29.6036 208.039 29.5591 208.189 29.5591C208.39 29.5591 208.583 29.6389 208.725 29.781C208.867 29.923 208.946 30.1156 208.946 30.3165Z" fill="#263238"/>
<path d="M208.725 32.3926C208.831 32.4986 208.903 32.6335 208.932 32.7804C208.961 32.9273 208.946 33.0795 208.889 33.2178C208.831 33.3562 208.734 33.4744 208.61 33.5575C208.485 33.6407 208.339 33.6851 208.189 33.6851C208.039 33.6851 207.893 33.6407 207.768 33.5575C207.644 33.4744 207.547 33.3562 207.489 33.2178C207.432 33.0795 207.417 32.9273 207.446 32.7804C207.475 32.6335 207.547 32.4986 207.653 32.3926C207.795 32.2511 207.988 32.1716 208.189 32.1716C208.39 32.1716 208.583 32.2511 208.725 32.3926Z" fill="#263238"/>
<path d="M208.946 35.5479C208.946 35.6977 208.902 35.8441 208.819 35.9687C208.736 36.0932 208.617 36.1903 208.479 36.2476C208.341 36.3049 208.188 36.3199 208.041 36.2907C207.894 36.2615 207.759 36.1894 207.654 36.0834C207.548 35.9775 207.475 35.8426 207.446 35.6957C207.417 35.5487 207.432 35.3965 207.489 35.2581C207.547 35.1197 207.644 35.0014 207.768 34.9182C207.893 34.835 208.039 34.7905 208.189 34.7905C208.39 34.7905 208.583 34.8703 208.725 35.0124C208.867 35.1544 208.946 35.347 208.946 35.5479Z" fill="#263238"/>
<path d="M176.136 33.4183H143.383V36.1485H176.136V33.4183Z" fill="#263238"/>
<path d="M451.058 179.807H62.6084V236.805H451.058V179.807Z" fill="#E8505B"/>
<path d="M451.058 179.807H62.6084V236.805H451.058V179.807Z" fill="#A4762C"/>
<path d="M117.331 273.787C137.97 272.399 153.577 254.541 152.189 233.902C150.8 213.262 132.943 197.655 112.303 199.044C91.6635 200.432 76.057 218.289 77.4453 238.929C78.8336 259.569 96.6908 275.175 117.331 273.787Z" fill="#263238"/>
<path d="M77.3782 235.783C77.3782 235.816 77.3782 235.847 77.3782 235.88C77.2964 245.775 81.133 255.3 88.0501 262.376C94.9673 269.451 104.403 273.503 114.297 273.645C124.191 273.787 133.739 270.009 140.857 263.136C147.975 256.262 152.084 246.851 152.287 236.958C152.287 236.925 152.287 236.894 152.287 236.861L77.3782 235.783Z" fill="#263238"/>
<path d="M88.5184 236.044C88.4428 241.244 89.9111 246.351 92.7376 250.717C95.5641 255.083 99.6218 258.513 104.398 260.573C109.173 262.633 114.453 263.23 119.568 262.29C124.683 261.349 129.405 258.913 133.136 255.289C136.866 251.665 139.439 247.016 140.527 241.93C141.616 236.844 141.172 231.55 139.252 226.716C137.331 221.883 134.02 217.727 129.738 214.775C125.456 211.823 120.395 210.207 115.194 210.132C108.221 210.031 101.492 212.704 96.4898 217.563C91.4871 222.423 88.6197 229.07 88.5184 236.044Z" fill="#FAFAFA"/>
<path d="M115.191 210.132C108.218 210.031 101.49 212.704 96.4869 217.563C91.4843 222.423 88.6169 229.07 88.5156 236.044L141.104 236.801C141.155 233.348 140.525 229.919 139.251 226.71C137.976 223.5 136.081 220.573 133.675 218.096C131.268 215.62 128.397 213.641 125.226 212.275C122.054 210.908 118.644 210.18 115.191 210.132Z" fill="#E0E0E0"/>
<path d="M98.8151 236.187C98.7696 239.355 99.6645 242.466 101.387 245.125C103.109 247.785 105.581 249.874 108.491 251.129C111.401 252.383 114.617 252.747 117.733 252.174C120.85 251.6 123.726 250.116 125.998 247.907C128.271 245.699 129.838 242.867 130.501 239.769C131.163 236.67 130.892 233.445 129.722 230.5C128.552 227.556 126.535 225.024 123.926 223.226C121.317 221.428 118.233 220.444 115.065 220.398C110.817 220.339 106.719 221.968 103.672 224.929C100.625 227.889 98.8779 231.939 98.8151 236.187Z" fill="#263238"/>
<path d="M403.358 273.819C424.01 272.623 439.782 254.912 438.586 234.26C437.39 213.608 419.679 197.836 399.027 199.032C378.375 200.228 362.603 217.939 363.799 238.591C364.995 259.242 382.706 275.015 403.358 273.819Z" fill="#263238"/>
<path d="M363.783 235.783C363.783 235.817 363.783 235.847 363.783 235.881C363.701 245.775 367.537 255.301 374.454 262.376C381.372 269.452 390.807 273.503 400.701 273.646C410.595 273.788 420.144 270.01 427.262 263.136C434.379 256.263 438.489 246.852 438.692 236.959C438.692 236.925 438.692 236.895 438.692 236.861L363.783 235.783Z" fill="#263238"/>
<path d="M374.947 236.041C374.872 241.241 376.34 246.347 379.166 250.713C381.993 255.079 386.051 258.509 390.826 260.569C395.602 262.629 400.881 263.227 405.997 262.286C411.112 261.346 415.834 258.909 419.564 255.285C423.295 251.661 425.868 247.013 426.956 241.927C428.045 236.841 427.601 231.546 425.68 226.713C423.76 221.879 420.449 217.724 416.167 214.772C411.885 211.82 406.823 210.204 401.623 210.128C394.649 210.027 387.921 212.7 382.918 217.56C377.916 222.419 375.048 229.067 374.947 236.041Z" fill="#FAFAFA"/>
<path d="M401.597 210.128C394.623 210.027 387.895 212.7 382.892 217.56C377.889 222.419 375.022 229.067 374.921 236.041L427.509 236.798C427.56 233.345 426.931 229.916 425.656 226.706C424.381 223.497 422.486 220.57 420.08 218.093C417.673 215.616 414.802 213.638 411.631 212.271C408.459 210.905 405.05 210.176 401.597 210.128Z" fill="#E0E0E0"/>
<path d="M385.22 236.19C385.175 239.358 386.07 242.468 387.792 245.128C389.514 247.788 391.987 249.877 394.896 251.131C397.806 252.386 401.022 252.75 404.139 252.176C407.255 251.603 410.131 250.118 412.404 247.91C414.676 245.702 416.243 242.87 416.906 239.771C417.569 236.673 417.298 233.447 416.127 230.503C414.957 227.558 412.94 225.027 410.331 223.229C407.722 221.431 404.638 220.446 401.47 220.401C397.222 220.341 393.124 221.971 390.077 224.932C387.03 227.892 385.283 231.942 385.22 236.19Z" fill="#263238"/>
<path d="M163.912 147.735C163.912 147.735 108.756 151.803 88.3101 156.39C73.9018 159.624 46.1205 165.197 46.4564 182.681L48.6613 195.202C45.5733 196.773 42.9778 199.165 41.1596 202.115C39.3414 205.064 38.3709 208.457 38.3544 211.922C38.3544 223.93 35.8411 242.568 59.8905 243.31C63.8606 243.435 71.3854 243.31 71.3854 243.31C71.3854 243.31 66.7648 192.081 113.835 190.575C161.717 189.048 158.537 242.84 158.537 242.84H358.381C358.381 242.84 350.182 190.435 401.725 190.365C453.269 190.294 445.414 243.197 445.414 243.197C445.414 243.197 464.373 244.834 473.205 228.902C482.037 212.97 479.731 201.624 479.731 201.624L479.426 191.547C479.378 189.893 478.705 188.32 477.541 187.145C476.378 185.97 474.811 185.28 473.159 185.216C473.159 185.216 476.604 159.85 471.327 155.459C466.05 151.067 437.077 124.59 437.077 124.59L438.458 123.723C438.977 123.396 439.393 122.93 439.658 122.377C439.923 121.824 440.027 121.208 439.957 120.599C439.886 119.99 439.645 119.413 439.261 118.935C438.877 118.458 438.365 118.098 437.786 117.899C426.792 114.118 405.039 106.633 399.917 104.849C399.151 104.583 398.354 104.415 397.545 104.352C394.491 104.12 385.86 103.567 370.001 103.399C350.686 103.197 273.99 103.399 273.99 103.399C273.99 103.399 247.595 105.57 232.891 112.044C217.438 118.845 163.912 147.735 163.912 147.735Z" fill="#F3B755"/>
<g opacity="0.4">
<path d="M52.3436 210.536C51.2391 210.236 50.0854 210.163 48.9517 210.32C47.8181 210.477 46.728 210.863 45.7472 211.452C44.7266 212.591 44.1565 214.062 44.1439 215.59C43.8223 217.653 43.8699 219.756 44.2844 221.802C44.4958 222.824 44.9158 223.79 45.518 224.642C46.1202 225.494 46.8916 226.212 47.7841 226.752C48.692 227.269 49.7414 227.481 50.7785 227.357C51.8156 227.233 52.7858 226.781 53.5468 226.065C54.6904 224.52 55.1966 222.595 54.9608 220.687C55.0751 218.138 54.9648 215.583 54.631 213.053C54.5172 212.499 54.2825 211.978 53.9439 211.526C53.7666 211.255 53.5302 211.028 53.2525 210.862C52.9748 210.696 52.6629 210.595 52.3406 210.567" fill="black"/>
</g>
<path d="M48.6582 195.21C54.5125 195.21 60.1897 194.89 66.0348 194.496C66.387 194.55 66.7472 194.515 67.0826 194.395C67.418 194.275 67.718 194.072 67.9553 193.806C68.1926 193.541 68.3597 193.22 68.4414 192.873C68.5231 192.526 68.5167 192.164 68.423 191.82C68.6514 190.267 68.546 188.683 68.1136 187.174C67.6813 185.664 66.932 184.265 65.9157 183.068C64.3589 181.925 62.4898 181.286 60.5592 181.236C55.8086 180.733 51.0054 181.216 46.4502 182.656L48.6582 195.21Z" fill="#FAFAFA"/>
<path d="M170.244 241.242C170.244 241.242 170.222 241.074 170.195 240.744C170.167 240.414 170.14 239.91 170.097 239.275C170.027 237.974 169.923 236.068 169.792 233.625C169.66 231.182 169.486 228.171 169.141 224.699C168.78 220.766 168.089 216.871 167.077 213.054C165.798 208.443 163.902 204.026 161.439 199.923C158.655 195.185 154.951 191.052 150.546 187.768C140.026 180.735 127.641 177.013 114.986 177.079C102.314 176.8 89.9031 180.708 79.6772 188.199C75.2579 191.461 71.3868 195.408 68.2098 199.889C65.4312 203.787 63.1726 208.031 61.4913 212.514C60.1094 216.213 59.1574 220.058 58.6542 223.975C58.264 226.931 58.1495 229.918 58.3122 232.895C58.4219 234.775 58.6514 236.646 58.9993 238.496C59.1123 239.125 59.2009 239.611 59.2589 239.947C59.3169 240.283 59.3352 240.445 59.3352 240.445C59.3352 240.445 59.2925 240.283 59.2222 239.956C59.152 239.629 59.0543 239.138 58.9168 238.515C58.5417 236.664 58.2887 234.791 58.1595 232.908C57.9729 229.923 58.067 226.927 58.4404 223.96C58.9243 220.023 59.8619 216.155 61.2348 212.434C62.9131 207.925 65.1716 203.653 67.9533 199.727C71.1368 195.208 75.0226 191.227 79.4635 187.936C89.7432 180.386 102.229 176.443 114.98 176.719C127.708 176.653 140.163 180.406 150.735 187.493C155.17 190.81 158.895 194.981 161.693 199.761C164.161 203.89 166.055 208.337 167.321 212.978C168.325 216.811 168.999 220.723 169.337 224.671C169.673 228.15 169.813 231.155 169.926 233.613C170.039 236.071 170.109 237.962 170.164 239.269C170.193 239.906 170.214 240.396 170.228 240.738C170.25 241.068 170.244 241.242 170.244 241.242Z" fill="white"/>
<path d="M172.362 242.112C172.362 242.112 172.362 241.972 172.34 241.691C172.319 241.41 172.313 240.992 172.298 240.451C172.264 239.352 172.212 237.727 172.151 235.614C172.032 231.372 171.846 225.154 171.626 217.257C171.406 209.359 171.149 199.755 170.85 188.761C170.773 186.008 170.695 183.172 170.618 180.253C170.566 178.768 170.63 177.281 170.807 175.806C170.911 175.058 171.018 174.307 171.128 173.553C171.238 172.798 171.433 172.053 171.589 171.29C172.314 168.2 173.358 165.194 174.704 162.32C176.093 159.299 177.814 156.441 179.835 153.8V153.779H179.856L214.463 131.977C217.537 130.037 220.653 128.074 223.811 126.089C226.961 123.995 230.268 122.148 233.702 120.564C237.198 118.932 240.784 117.5 244.443 116.274C246.275 115.629 248.169 115.098 250.05 114.536C251.955 114.053 253.852 113.513 255.797 113.122C263.134 111.548 270.593 110.606 278.091 110.306C285.284 109.962 292.491 109.985 299.682 110.377H299.883L299.84 110.578C296.53 125.393 293.406 139.367 290.541 152.172V152.2V152.227C288.831 155.045 287.432 158.04 286.37 161.16C285.307 164.123 284.827 167.264 284.956 170.41C285.194 173.482 285.276 176.493 285.356 179.407C285.435 182.32 285.469 185.163 285.524 187.906C285.686 198.9 285.725 208.483 285.756 216.386C285.786 224.29 285.756 230.486 285.777 234.731C285.777 236.845 285.777 238.463 285.756 239.569C285.756 240.115 285.756 240.521 285.756 240.808C285.756 241.096 285.756 241.23 285.756 241.23C285.756 241.23 285.756 241.089 285.756 240.808C285.756 240.527 285.756 240.109 285.756 239.569C285.756 238.469 285.756 236.845 285.728 234.731C285.701 230.489 285.664 224.278 285.625 216.386C285.585 208.495 285.499 198.897 285.319 187.912C285.262 185.167 285.201 182.334 285.136 179.413C285.05 176.493 284.962 173.498 284.724 170.431C284.585 167.246 285.065 164.065 286.138 161.062C287.202 157.914 288.608 154.892 290.331 152.05L290.309 152.099C293.159 139.272 296.273 125.313 299.572 110.496L299.734 110.712C292.556 110.323 285.362 110.302 278.182 110.648C270.701 110.947 263.259 111.886 255.938 113.455C253.998 113.84 252.108 114.371 250.212 114.863C248.336 115.422 246.458 115.947 244.626 116.591C240.98 117.812 237.406 119.24 233.922 120.867C230.504 122.443 227.214 124.281 224.079 126.364C220.922 128.353 217.804 130.313 214.725 132.246C202.418 139.981 190.789 147.298 180.088 154.02L180.122 153.986C178.115 156.605 176.405 159.44 175.025 162.436C173.681 165.288 172.639 168.273 171.916 171.341C170.878 177.083 170.619 182.938 171.146 188.749C171.418 199.743 171.656 209.341 171.855 217.245C172.053 225.148 172.191 231.36 172.288 235.602C172.331 237.715 172.365 239.34 172.392 240.439C172.392 240.985 172.399 241.398 172.414 241.679C172.368 241.972 172.362 242.112 172.362 242.112Z" fill="#263238"/>
<path d="M299.468 111.558C299.468 111.558 299.581 111.558 299.798 111.536L300.763 111.503L304.479 111.411C307.729 111.347 312.419 111.258 318.265 111.139C329.979 110.938 346.29 110.663 364.739 110.348H364.824L364.879 110.419C366.965 112.975 369.155 115.662 371.39 118.392L389.985 141.196L392.099 143.795C394.105 146.321 395.207 149.446 395.229 152.672C395.246 154.638 394.862 156.586 394.102 158.398C393.367 160.113 392.659 161.758 391.979 163.333L385.566 178.203C384.803 179.947 384.217 181.306 383.801 182.237C383.6 182.686 383.444 183.034 383.331 183.281C383.218 183.529 383.163 183.633 383.163 183.633C383.163 183.633 383.206 183.507 383.297 183.269C383.389 183.031 383.542 182.658 383.731 182.213C384.122 181.269 384.696 179.901 385.432 178.151C386.931 174.615 389.097 169.527 391.754 163.239C393.545 159.983 394.629 156.385 394.933 152.681C394.908 150.619 394.437 148.587 393.552 146.723C393.085 145.755 392.513 144.842 391.845 143.999L389.723 141.41L371.094 118.627C368.868 115.897 366.669 113.21 364.583 110.654L364.723 110.718L318.24 111.39L304.455 111.552L300.738 111.579H299.773L299.468 111.558Z" fill="#263238"/>
<path d="M276.003 173.368C276.003 173.347 276.199 173.347 276.562 173.282C277.088 173.191 277.588 172.99 278.031 172.693C278.734 172.23 279.262 171.545 279.531 170.748C279.688 170.255 279.752 169.737 279.72 169.221C279.703 168.639 279.555 168.069 279.286 167.553C278.975 166.966 278.51 166.474 277.942 166.129C277.374 165.784 276.723 165.599 276.058 165.593H271.34H260.523C259.624 165.594 258.757 165.926 258.087 166.526C257.417 167.125 256.991 167.949 256.889 168.842C256.774 169.692 256.931 170.557 257.338 171.313C257.744 172.025 258.374 172.583 259.131 172.901C259.879 173.158 260.672 173.255 261.461 173.188H263.751L267.868 173.209L273.826 173.264L275.445 173.298C275.632 173.294 275.819 173.309 276.003 173.34C275.816 173.371 275.625 173.383 275.435 173.374L273.817 173.408L267.859 173.463L263.742 173.484H261.452C261.052 173.484 260.667 173.484 260.23 173.484C259.802 173.458 259.381 173.361 258.984 173.197C258.156 172.853 257.464 172.246 257.017 171.468C256.573 170.649 256.399 169.711 256.519 168.787C256.629 167.804 257.096 166.896 257.833 166.236C258.569 165.576 259.522 165.21 260.511 165.208H271.328L276.052 165.229C277.083 165.248 278.066 165.67 278.791 166.404C279.515 167.137 279.924 168.125 279.931 169.157C279.956 169.703 279.878 170.249 279.699 170.766C279.405 171.597 278.838 172.304 278.089 172.769C277.626 173.06 277.105 173.244 276.562 173.31C276.379 173.351 276.191 173.37 276.003 173.368Z" fill="#263238"/>
<path d="M379.574 173.368C379.574 173.347 379.769 173.347 380.132 173.282C380.658 173.191 381.158 172.99 381.601 172.693C382.304 172.23 382.832 171.545 383.101 170.748C383.261 170.256 383.326 169.737 383.29 169.221C383.273 168.639 383.125 168.069 382.857 167.553C382.545 166.966 382.081 166.474 381.512 166.129C380.944 165.784 380.293 165.599 379.629 165.593H374.91H364.094C363.195 165.594 362.328 165.926 361.658 166.526C360.988 167.125 360.561 167.949 360.459 168.842C360.344 169.692 360.501 170.557 360.908 171.313C361.315 172.025 361.945 172.583 362.701 172.901C363.449 173.158 364.243 173.255 365.031 173.188H367.321L371.438 173.209L377.396 173.264L379.015 173.298C379.202 173.294 379.389 173.309 379.574 173.34C379.386 173.371 379.196 173.383 379.006 173.374L377.387 173.408L371.429 173.463L367.312 173.484H365.022C364.622 173.484 364.237 173.484 363.8 173.484C363.372 173.458 362.951 173.361 362.554 173.197C361.726 172.853 361.035 172.246 360.588 171.468C360.144 170.649 359.97 169.711 360.09 168.787C360.199 167.804 360.667 166.896 361.403 166.236C362.139 165.576 363.092 165.21 364.081 165.208H374.898L379.626 165.229C380.657 165.248 381.64 165.67 382.364 166.404C383.089 167.137 383.498 168.125 383.504 169.157C383.53 169.703 383.451 170.249 383.272 170.766C382.979 171.597 382.411 172.304 381.663 172.769C381.2 173.06 380.678 173.244 380.136 173.31C379.951 173.351 379.763 173.37 379.574 173.368Z" fill="#263238"/>
<path d="M470.394 156.463H449.671C448.277 156.463 446.909 156.844 445.716 157.565C444.523 158.286 443.549 159.319 442.9 160.553C442.364 161.571 442.065 162.698 442.025 163.849C441.985 164.999 442.205 166.144 442.668 167.198L450.798 185.662L471.564 185.46C471.564 185.46 475.965 162.043 470.394 156.463Z" fill="#FAFAFA"/>
<path d="M182.583 153.852L289.515 151.885L359.11 150.612L382.06 137.364C382.498 137.111 382.877 136.767 383.171 136.356C383.466 135.945 383.67 135.476 383.77 134.981C383.87 134.485 383.864 133.973 383.751 133.48C383.638 132.987 383.422 132.524 383.117 132.121L368.834 113.351C368.1 112.385 367.153 111.6 366.068 111.056C364.983 110.512 363.787 110.224 362.574 110.215L284.733 109.586C284.733 109.586 255.415 107.885 232.328 120.815C215.093 130.811 198.481 141.843 182.583 153.852Z" fill="#263238"/>
<path d="M231.577 111.517C231.577 111.517 236.939 113.96 233.446 116.229C229.952 118.498 175.782 152.65 175.782 152.65L163.328 147.003C185.396 134.721 207.674 122.783 231.577 111.517Z" fill="#455A64"/>
<path d="M177.544 153.494C177.544 153.494 177.431 153.527 177.208 153.576C176.985 153.625 176.64 153.701 176.222 153.793L172.42 154.578C169.115 155.237 164.327 156.16 158.39 157.177C146.517 159.22 130.019 161.602 111.699 163.19C107.118 163.59 102.638 163.917 98.3139 164.198C93.9896 164.479 89.8149 164.744 85.851 165.114C78.8179 165.62 71.8512 166.813 65.0509 168.678C60.475 169.961 56.0717 171.794 51.9374 174.138C50.4471 174.923 49.3874 175.692 48.6331 176.154C48.2697 176.386 47.9888 176.566 47.778 176.694L47.4727 176.868C47.4727 176.868 47.5643 176.792 47.7444 176.667L48.5782 176.093C49.3203 175.61 50.3708 174.819 51.855 174.013C55.9757 171.608 60.3811 169.729 64.9684 168.418C71.7769 166.51 78.7593 165.288 85.8113 164.772C89.7813 164.399 93.953 164.127 98.2803 163.856C102.608 163.584 107.082 163.245 111.659 162.842C129.983 161.26 146.474 158.921 158.344 156.939C164.287 155.952 169.079 155.07 172.392 154.453L176.207 153.732C176.634 153.656 176.964 153.598 177.202 153.549L177.544 153.494Z" fill="#263238"/>
<path d="M478.693 201.379C478.693 201.476 471.565 201.562 462.779 201.562C453.993 201.562 446.859 201.476 446.859 201.379C446.859 201.281 453.987 201.195 462.779 201.195C471.572 201.195 478.693 201.287 478.693 201.379Z" fill="#263238"/>
<path d="M348.288 219.569C348.288 219.667 308.059 219.753 258.44 219.753C208.82 219.753 168.585 219.667 168.585 219.569C168.585 219.472 208.808 219.386 258.44 219.386C308.072 219.386 348.288 219.472 348.288 219.569Z" fill="#263238"/>
<path d="M66.6079 201.982C66.6079 202.08 60.9154 202.165 53.9006 202.165C46.8858 202.165 41.1934 202.083 41.1934 201.982C41.1934 201.881 46.8797 201.799 53.9006 201.799C60.9215 201.799 66.6079 201.881 66.6079 201.982Z" fill="#263238"/>
<path d="M436.511 123.86C436.511 123.86 431.735 129.211 433.613 133.129C435.491 137.047 454.884 150.78 454.884 150.78L468.962 153.419L436.511 123.86Z" fill="#455A64"/>
<path d="M302.631 114.289L299.467 148.493L356.123 146.874L378.954 133.599L364.173 114.295L302.631 114.289Z" fill="#455A64"/>
<path d="M195.993 150.233C195.993 150.233 230.172 125.545 243.658 120.644C253.835 116.532 264.705 114.405 275.682 114.377C287.366 114.047 294.487 114.377 294.487 114.377L285.457 149.14L195.993 150.233Z" fill="#455A64"/>
<path d="M190.999 150.345C191 149.282 191.284 148.239 191.82 147.321C192.357 146.404 193.127 145.645 194.053 145.123L201.901 140.713C204.139 139.455 206.663 138.794 209.231 138.795C210.815 138.794 212.389 139.044 213.894 139.537C215.529 140.104 216.953 141.156 217.976 142.552C218.999 143.948 219.572 145.622 219.62 147.352C219.664 148.515 219.473 149.675 219.058 150.763C218.644 151.85 218.014 152.843 217.207 153.681C216.4 154.52 215.432 155.187 214.361 155.643C213.29 156.098 212.138 156.333 210.975 156.334H196.985C195.397 156.333 193.874 155.702 192.752 154.579C191.63 153.456 190.999 151.933 190.999 150.345Z" fill="#F3B755"/>
<path d="M190.999 150.346C191.021 150.346 191.021 150.611 191.091 151.103C191.269 152.39 191.866 153.583 192.79 154.497C193.714 155.411 194.914 155.994 196.203 156.157C197.007 156.214 197.813 156.229 198.619 156.2C202.036 156.2 206.098 156.178 210.599 156.157C211.734 156.184 212.864 155.998 213.931 155.61C215.038 155.195 216.047 154.553 216.893 153.726C217.771 152.872 218.451 151.838 218.888 150.694C219.329 149.512 219.508 148.248 219.413 146.989C219.319 145.749 218.954 144.545 218.343 143.462C217.732 142.379 216.889 141.444 215.876 140.723C214.893 140.059 213.789 139.595 212.627 139.358C211.517 139.091 210.379 138.957 209.237 138.958C207.118 138.956 205.022 139.404 203.09 140.274C202.174 140.68 201.361 141.19 200.54 141.633L198.2 142.934C196.708 143.76 195.366 144.504 194.175 145.166C193.351 145.612 192.641 146.244 192.104 147.012C191.567 147.78 191.217 148.664 191.082 149.591C191.012 150.074 191.018 150.339 190.996 150.339C190.97 150.084 190.97 149.826 190.996 149.57C191.074 148.833 191.293 148.117 191.641 147.463C192.196 146.414 193.045 145.551 194.084 144.977L198.081 142.702C198.823 142.28 199.608 141.84 200.405 141.379C201.202 140.918 202.042 140.414 202.968 139.993C206.016 138.591 209.446 138.246 212.713 139.013C213.915 139.257 215.056 139.738 216.072 140.427C217.129 141.177 218.008 142.152 218.646 143.281C219.283 144.41 219.664 145.666 219.761 146.959C219.863 148.272 219.677 149.592 219.214 150.825C218.763 151.995 218.068 153.055 217.177 153.937C216.285 154.818 215.216 155.5 214.041 155.937C212.932 156.336 211.759 156.523 210.581 156.49L198.6 156.447C197.785 156.467 196.97 156.443 196.157 156.377C195.426 156.277 194.719 156.044 194.072 155.69C193.039 155.111 192.191 154.251 191.628 153.21C191.285 152.554 191.069 151.839 190.99 151.103C190.972 150.851 190.975 150.597 190.999 150.346Z" fill="#F3B755"/>
<path d="M454.336 241.56C454.336 241.56 454.336 241.392 454.357 241.078C454.379 240.763 454.412 240.271 454.455 239.658C454.498 239.044 454.568 238.265 454.608 237.346C454.648 236.426 454.678 235.37 454.712 234.188C454.745 233.006 454.712 231.675 454.69 230.218C454.599 228.776 454.593 227.201 454.385 225.527C454.067 221.717 453.391 217.944 452.363 214.261C451.759 212.125 451.013 210.032 450.131 207.995C449.188 205.78 448.057 203.651 446.75 201.63C443.833 197.183 440.124 193.31 435.808 190.203C431.053 186.748 425.742 184.132 420.105 182.467C414.036 180.742 407.749 179.904 401.44 179.981C395.128 179.919 388.844 180.833 382.811 182.69C379.958 183.592 377.188 184.738 374.532 186.117C371.996 187.466 369.587 189.041 367.334 190.823C363.152 194.107 359.424 197.93 356.245 202.192C354.849 204.151 353.617 206.221 352.562 208.382C351.599 210.385 350.748 212.439 350.012 214.536C347.77 220.868 346.411 227.479 345.972 234.182C345.859 236.555 345.874 238.402 345.929 239.648C345.962 240.259 345.993 240.742 346.011 241.068C346.03 241.395 346.011 241.551 346.011 241.551C346.011 241.551 345.99 241.389 345.956 241.068C345.923 240.748 345.886 240.262 345.837 239.648C345.735 237.818 345.726 235.983 345.81 234.151C346.197 227.425 347.524 220.787 349.752 214.429C350.486 212.321 351.334 210.254 352.293 208.239C353.354 206.06 354.591 203.971 355.991 201.994C359.173 197.697 362.915 193.845 367.117 190.539C369.383 188.743 371.807 187.154 374.358 185.793C377.036 184.406 379.828 183.252 382.704 182.342C388.77 180.468 395.091 179.547 401.44 179.612C407.782 179.536 414.102 180.38 420.203 182.119C425.875 183.803 431.217 186.446 435.997 189.934C438.214 191.562 440.285 193.38 442.188 195.367C443.996 197.232 445.608 199.279 446.998 201.475C448.31 203.509 449.441 205.655 450.378 207.888C451.257 209.939 451.999 212.047 452.598 214.197C453.616 217.892 454.28 221.676 454.58 225.497C454.77 227.176 454.764 228.758 454.846 230.203C454.846 231.653 454.846 232.976 454.846 234.173C454.846 235.37 454.748 236.414 454.706 237.337C454.663 238.259 454.565 239.022 454.516 239.648C454.467 240.274 454.419 240.732 454.382 241.068C454.345 241.404 454.336 241.56 454.336 241.56Z" fill="white"/>
<path d="M283.951 153.857C283.899 153.873 283.844 153.88 283.789 153.878L283.313 153.9C282.865 153.9 282.254 153.914 281.481 153.942L274.762 154.061C269.091 154.165 261.264 154.367 252.609 154.614C243.954 154.861 236.118 155.02 230.45 155.054C227.616 155.075 225.32 155.075 223.732 155.054L221.899 155.026C221.71 155.026 221.557 155.026 221.423 155.026C221.418 155.046 221.406 155.063 221.389 155.074C221.372 155.085 221.352 155.089 221.332 155.087C221.313 155.084 221.294 155.074 221.281 155.059C221.268 155.044 221.261 155.025 221.261 155.005C221.261 154.985 221.268 154.966 221.281 154.951C221.294 154.936 221.313 154.926 221.332 154.923C221.352 154.921 221.372 154.925 221.389 154.936C221.406 154.948 221.418 154.964 221.423 154.984L221.899 154.962C222.347 154.962 222.958 154.948 223.732 154.919L230.45 154.8C236.121 154.697 243.954 154.495 252.609 154.248C261.264 154 269.1 153.841 274.768 153.808C277.605 153.787 279.899 153.787 281.487 153.808L283.319 153.835C283.509 153.835 283.661 153.835 283.796 153.835C283.848 153.834 283.901 153.841 283.951 153.857Z" fill="white"/>
<path d="M274.676 164.378C270.59 164.621 266.494 164.621 262.408 164.378C266.494 164.135 270.59 164.135 274.676 164.378Z" fill="white"/>
<path d="M276.93 126.913C276.964 127.005 269.354 130.175 259.923 133.992C250.493 137.809 242.821 140.826 242.776 140.735C242.73 140.643 250.352 137.473 259.783 133.656C269.213 129.839 276.888 126.821 276.93 126.913Z" fill="white"/>
<path d="M261.491 129.302C261.534 129.393 254.281 132.585 245.305 136.436C236.33 140.287 229.007 143.325 228.97 143.234C228.933 143.142 236.18 139.951 245.155 136.1C254.131 132.249 261.457 129.21 261.491 129.302Z" fill="white"/>
<path d="M359.343 125.585C359.377 125.677 351.767 128.846 342.336 132.664C332.906 136.481 325.234 139.499 325.189 139.407C325.143 139.315 332.765 136.145 342.196 132.328C351.626 128.511 359.31 125.487 359.343 125.585Z" fill="white"/>
<path d="M343.921 127.977C343.964 128.069 336.711 131.26 327.736 135.111C318.76 138.962 311.437 142 311.401 141.909C311.364 141.817 318.611 138.626 327.586 134.775C336.562 130.924 343.888 127.885 343.921 127.977Z" fill="white"/>
<path d="M360.846 153.846C360.846 153.943 345.702 154.117 327.021 154.23C308.341 154.343 293.196 154.349 293.196 154.252C293.196 154.154 308.335 153.98 327.021 153.867C345.708 153.754 360.846 153.742 360.846 153.846Z" fill="white"/>
<path d="M377.601 163.797C377.601 163.894 373.359 164.019 368.112 164.068C362.866 164.117 358.627 164.068 358.627 163.977C358.627 163.885 362.869 163.754 368.112 163.705C373.356 163.656 377.601 163.693 377.601 163.797Z" fill="white"/>
<path d="M87.6449 158.617C87.5117 158.661 87.3729 158.687 87.2327 158.693L86.0416 158.846C85.5225 158.901 84.8934 158.986 84.1666 159.105C83.4397 159.224 82.606 159.328 81.696 159.511C79.8636 159.817 77.7259 160.309 75.3377 160.941C72.9496 161.573 70.4027 162.419 67.7702 163.439C65.1377 164.459 62.6946 165.622 60.5172 166.749C58.3398 167.876 56.4433 169.012 54.8797 170.026C54.0887 170.509 53.4016 171 52.7939 171.413C52.1861 171.825 51.6609 172.188 51.2456 172.497C50.8302 172.805 50.5248 173.007 50.2714 173.19C50.1597 173.276 50.0401 173.35 49.9141 173.413C50.0059 173.309 50.1083 173.215 50.2194 173.132L51.157 172.384C51.5632 172.054 52.0732 171.669 52.6839 171.242C53.2947 170.814 53.9666 170.325 54.7484 169.806C56.2967 168.762 58.1993 167.623 60.3645 166.447C62.7283 165.195 65.1588 164.074 67.645 163.088C70.1372 162.122 72.6797 161.293 75.2614 160.602C77.6495 159.991 79.8178 159.53 81.6746 159.243C82.5907 159.075 83.4306 158.983 84.1604 158.892C84.8903 158.8 85.5255 158.73 86.0447 158.696C86.5639 158.663 86.9273 158.632 87.2418 158.604C87.3763 158.599 87.511 158.603 87.6449 158.617Z" fill="white"/>
<path d="M212.669 142.098C212.642 142.12 212.458 141.826 211.997 141.448C211.324 140.939 210.525 140.622 209.685 140.531C208.427 140.433 207.161 140.57 205.954 140.938C201.688 142.009 197.725 144.048 194.373 146.896C192.706 148.294 191.832 149.339 191.774 149.275C191.944 149.007 192.142 148.759 192.364 148.533C192.939 147.887 193.55 147.275 194.196 146.7C196.332 144.79 198.763 143.237 201.394 142.101C202.84 141.476 204.337 140.977 205.868 140.611C207.118 140.251 208.426 140.137 209.719 140.275C210.599 140.395 211.425 140.772 212.092 141.359C212.27 141.52 212.427 141.701 212.562 141.9C212.639 142.016 212.681 142.092 212.669 142.098Z" fill="white"/>
<path d="M438.086 123.606C437.11 123.843 436.107 123.946 435.103 123.911C433.927 123.879 432.757 123.734 431.609 123.477C430.093 123.131 428.605 122.673 427.156 122.106C425.538 121.495 423.815 120.72 421.965 119.929L419.061 118.753C418.059 118.353 417.002 118.011 415.936 117.62C411.264 116.037 406.499 114.74 401.669 113.735C392.884 111.901 383.965 110.791 374.999 110.416C373.276 110.324 371.722 110.324 370.357 110.281H366.848L364.628 110.33C364.39 110.33 364.2 110.33 364.054 110.33C363.989 110.341 363.923 110.341 363.858 110.33C363.922 110.313 363.988 110.304 364.054 110.303C364.2 110.303 364.396 110.282 364.628 110.26L366.848 110.141C367.822 110.141 368.986 110.107 370.363 110.077C371.734 110.098 373.298 110.077 375.02 110.153C384.007 110.454 392.95 111.532 401.751 113.375C406.597 114.382 411.375 115.694 416.056 117.302C417.127 117.693 418.193 118.044 419.186 118.451L422.099 119.648C423.962 120.46 425.669 121.245 427.272 121.859C428.704 122.436 430.176 122.909 431.676 123.273C432.809 123.54 433.964 123.704 435.127 123.761C435.863 123.788 436.6 123.76 437.332 123.676L437.906 123.606C438.031 123.606 438.086 123.6 438.086 123.606Z" fill="#263238"/>
<path d="M101.229 124.562C99.941 116.717 97.8408 109.028 94.9621 101.618C93.4015 96.4079 90.8668 92.9234 87.7365 91.7171C85.6233 90.9048 75.0934 87.1027 71.4165 88.3578C67.826 89.6315 64.4087 91.349 61.244 93.4701C58.7863 95.0999 56.9238 97.4832 55.9363 100.262L50.2988 116.063L60.1568 125.899L65.1011 115.397L70.4637 127.973L69.6728 140.68L100.438 148.956C103.226 144.476 102.82 133.262 101.229 124.562Z" fill="#4E9C0B"/>
<g opacity="0.2">
<path d="M93.2105 107.859C91.8515 115.833 91.6347 116.933 90.2757 124.906C89.8028 128.174 88.5013 131.266 86.495 133.888C85.2296 135.452 83.5407 136.618 81.6301 137.247C79.4945 137.762 77.2569 137.665 75.1742 136.966C74.2009 136.344 73.4386 135.442 72.9873 134.379C72.536 133.315 72.4169 132.14 72.6456 131.008C75.2505 131.567 76.0629 132.437 78.3105 131.008C80.6602 129.427 82.6396 127.356 84.1129 124.937C88.6082 116.255 89.8482 115.946 93.2013 107.859" fill="black"/>
</g>
<path d="M70.9495 123.313C70.4489 122.637 69.9949 121.928 69.5905 121.191C68.7293 119.783 67.6299 117.999 66.4175 116.024C65.2051 114.048 64.0507 112.298 63.1682 110.905C62.6894 110.221 62.2549 109.507 61.8672 108.767C62.0376 108.919 62.1856 109.094 62.307 109.287C62.5727 109.629 62.9361 110.142 63.385 110.777C64.2798 112.05 65.4708 113.831 66.7259 115.846C67.9811 117.862 69.0561 119.719 69.8073 121.078C70.186 121.756 70.4792 122.318 70.6746 122.702C70.7978 122.89 70.8905 123.096 70.9495 123.313Z" fill="#263238"/>
<path d="M92.4256 137.621C92.1961 137.738 91.9544 137.829 91.7049 137.893C91.417 137.989 91.1244 138.071 90.8284 138.137C90.4863 138.214 90.0924 138.321 89.6526 138.382C88.6235 138.559 87.5818 138.653 86.5377 138.663C83.9712 138.685 81.4239 138.22 79.0312 137.291C78.0572 136.913 77.1155 136.457 76.2155 135.926C75.8668 135.729 75.5284 135.514 75.2016 135.282C74.9495 135.119 74.7068 134.941 74.4748 134.751C74.2598 134.607 74.0647 134.435 73.8945 134.241C73.9373 134.186 74.8107 134.851 76.3377 135.703C77.2424 136.193 78.1801 136.618 79.1442 136.977C80.327 137.405 81.5423 137.738 82.7783 137.972C84.0184 138.186 85.2733 138.304 86.5316 138.324C87.5592 138.333 88.5861 138.265 89.6038 138.122C91.3536 137.881 92.4042 137.551 92.4256 137.621Z" fill="#263238"/>
<path d="M80.0659 113.748C80.011 114.02 76.7066 120.601 76.7066 120.601L61.1074 112.38L59.5193 105.661C59.3927 105.126 59.1615 104.62 58.8389 104.174C58.5164 103.728 58.1089 103.35 57.6399 103.061C57.1708 102.773 56.6494 102.58 56.1057 102.494C55.5619 102.408 55.0065 102.43 54.4712 102.559L49.8721 104.443C49.6817 104.516 49.5126 104.636 49.3803 104.791C49.2481 104.946 49.1567 105.132 49.1147 105.332C49.0506 105.674 49.1361 106.003 49.7255 105.942C50.8676 105.851 53.2466 105.6 53.2466 105.6L52.1625 109.43C51.8752 110.434 51.9845 111.509 52.4679 112.435L53.1611 113.757L54.6881 116.2L54.6606 116.222C54.6606 116.222 69.8262 131.797 78.3405 132.807C83.4588 133.418 89.2551 119.065 89.2551 119.065L80.0659 113.748Z" fill="#B78876"/>
<path d="M53.1123 105.882C53.1123 105.86 53.2314 105.72 53.491 105.546C53.8375 105.305 54.2506 105.178 54.6728 105.183C54.8911 105.191 55.1031 105.258 55.2868 105.376C55.4705 105.494 55.6191 105.659 55.7173 105.854C55.8577 106.16 55.7661 106.38 55.7448 106.374C55.7234 106.367 55.7448 106.172 55.5768 105.934C55.4734 105.783 55.3372 105.659 55.1785 105.569C55.0198 105.479 54.8427 105.426 54.6606 105.415C54.2783 105.414 53.9022 105.511 53.5673 105.696C53.3016 105.818 53.1459 105.909 53.1123 105.882Z" fill="#AA6550"/>
<path d="M55.0662 108.265C55.0326 108.265 54.9684 108.14 54.8127 107.96C54.6231 107.721 54.3748 107.534 54.092 107.419C53.8074 107.309 53.4989 107.275 53.1972 107.322C52.959 107.355 52.8185 107.407 52.7971 107.377C52.7758 107.346 52.9101 107.242 53.1605 107.16C53.4942 107.064 53.8501 107.079 54.1744 107.203C54.4989 107.331 54.7702 107.566 54.944 107.868C55.0662 108.091 55.0937 108.259 55.0662 108.265Z" fill="#AA6550"/>
<path d="M83.2996 92.9801L79.0791 112.998L90.2747 119.717L94.5746 107.416C94.5746 107.416 92.7942 92.4823 83.2996 92.9801Z" fill="#4E9C0B"/>
<path d="M89.3424 93.3336C89.3424 93.3336 89.2508 93.4038 89.0554 93.5168C88.8599 93.6298 88.579 93.7764 88.2003 93.9657C87.4582 94.3444 86.3679 94.8819 85.009 95.4927C81.459 97.121 77.7196 98.2997 73.8775 99.0016C70.015 99.6954 66.0493 99.5622 62.2422 98.6107C61.095 98.3121 59.9769 97.9115 58.9012 97.4136C58.5164 97.2456 58.2355 97.0776 58.04 96.9799C57.9371 96.9347 57.8406 96.8761 57.7529 96.8058C58.1626 96.9444 58.5643 97.1055 58.9562 97.2883C60.0472 97.7316 61.1702 98.092 62.3155 98.3664C66.0944 99.2318 70.0089 99.3273 73.8256 98.6473C77.6383 97.9455 81.3585 96.8113 84.9143 95.2667C86.2855 94.6925 87.3941 94.1947 88.1484 93.8588C88.5339 93.6566 88.9328 93.4811 89.3424 93.3336Z" fill="#EBEBEB"/>
<path d="M92.2966 95.5416C92.2966 95.5416 92.1989 95.6332 91.9912 95.7737C91.7835 95.9142 91.4384 96.131 91.075 96.3692C90.5814 96.6874 90.0718 96.9799 89.5481 97.2456C88.9373 97.551 88.2746 97.9542 87.4836 98.2962L86.2621 98.8551C85.8345 99.0505 85.3734 99.2124 84.9031 99.3956C83.9869 99.7865 82.9364 100.104 81.8492 100.452C77.1199 101.878 72.177 102.463 67.2455 102.181C66.1125 102.089 65.0344 102.028 64.0389 101.875C63.5411 101.799 63.0525 101.75 62.5974 101.665L61.2751 101.405C60.4292 101.258 59.6871 101.036 59.0274 100.865C58.4612 100.726 57.9025 100.558 57.3539 100.361L56.3095 99.9972C56.1859 99.9602 56.0662 99.9111 55.9521 99.8506C56.0806 99.8632 56.2075 99.8888 56.3308 99.927L57.3875 100.232C57.8425 100.373 58.4014 100.538 59.0671 100.672C59.7329 100.807 60.475 101.029 61.3148 101.155L62.631 101.393C63.0861 101.469 63.5686 101.512 64.0664 101.582C65.0619 101.729 66.1308 101.784 67.2516 101.863C69.6976 101.966 72.1479 101.881 74.5809 101.61C77.0043 101.302 79.4012 100.813 81.7515 100.147C82.8234 99.8048 83.8526 99.5025 84.784 99.133C85.2543 98.9497 85.7002 98.7971 86.1338 98.6138L87.3554 98.0733C88.1463 97.7526 88.8182 97.3739 89.429 97.0777C90.0398 96.7815 90.5498 96.4974 90.9559 96.2592L91.9148 95.7279C92.0354 95.6528 92.1633 95.5904 92.2966 95.5416Z" fill="#EBEBEB"/>
<path d="M90.2766 119.717C89.9591 119.589 89.6526 119.434 89.3605 119.256C88.7497 118.904 87.9099 118.443 86.896 117.869L78.4733 113.017L78.3604 112.952L78.3817 112.833C78.6871 111.334 78.9925 109.731 79.3406 108.078C79.8507 105.586 80.3362 103.22 80.776 101.054C81.0081 99.9764 81.1974 98.9473 81.4051 98.0005C81.5957 97.0989 81.8962 96.2241 82.2999 95.3956C82.8826 94.1689 83.9198 93.2172 85.1919 92.7417C85.537 92.6242 85.8993 92.5654 86.2638 92.5676C86.3916 92.5597 86.5197 92.5742 86.6425 92.6104C86.165 92.6365 85.6934 92.728 85.2408 92.8822C84.0376 93.3859 83.0698 94.3264 82.532 95.5147C82.1512 96.3265 81.8712 97.1818 81.6982 98.0616C81.5089 99.0267 81.3135 100.05 81.1027 101.116C80.6691 103.278 80.1866 105.654 79.6949 108.139C79.359 109.792 79.0292 111.395 78.7299 112.894L78.6474 112.711C81.9884 114.693 84.8865 116.416 86.9998 117.674C87.9954 118.285 88.8047 118.773 89.4154 119.143C89.7188 119.308 90.007 119.5 90.2766 119.717Z" fill="#263238"/>
<path d="M93.7137 106.825C93.7715 107.448 93.753 108.075 93.6587 108.694C93.352 111.691 92.5792 114.623 91.3683 117.382C91.1498 117.967 90.8584 118.522 90.501 119.034C90.6671 118.436 90.8774 117.851 91.1301 117.284C92.1992 114.501 92.9621 111.609 93.4052 108.66C93.469 108.042 93.5721 107.429 93.7137 106.825Z" fill="#263238"/>
<path d="M32.9691 218.167L32.8438 228.856C32.8438 228.856 21.9353 232.322 21.7246 234.295L42.4422 235.281L43.3187 218.632L32.9691 218.167Z" fill="#455A64"/>
<path d="M39.2978 228.257C39.4955 228.326 39.6603 228.466 39.7603 228.651C39.8602 228.835 39.888 229.049 39.8383 229.253C39.7754 229.452 39.6389 229.619 39.4567 229.721C39.2745 229.822 39.0603 229.85 38.8581 229.799C38.6497 229.724 38.4765 229.575 38.3717 229.38C38.2668 229.185 38.2378 228.958 38.29 228.743C38.3777 228.542 38.5392 228.383 38.741 228.298C38.9429 228.214 39.1696 228.21 39.3742 228.288" fill="#E0E0E0"/>
<path d="M42.4273 235.27L42.4487 233.59L22.58 233.285C22.58 233.285 21.6425 233.642 21.7127 234.299L42.4273 235.27Z" fill="#E0E0E0"/>
<path d="M32.5111 228.734C32.5111 228.832 33.015 228.902 33.4976 229.253C33.9801 229.605 34.2244 230.038 34.316 230.002C34.4076 229.965 34.2885 229.372 33.7052 228.966C33.1219 228.56 32.4928 228.637 32.5111 228.734Z" fill="#263238"/>
<path d="M30.2913 229.525C30.2638 229.623 30.6914 229.812 31.0181 230.261C31.3449 230.71 31.4182 231.177 31.522 231.177C31.6259 231.177 31.7114 230.609 31.3052 230.063C30.899 229.516 30.2913 229.434 30.2913 229.525Z" fill="#263238"/>
<path d="M28.9246 232.071C29.0162 232.099 29.1841 231.595 28.9459 231.036C28.7077 230.477 28.2527 230.224 28.2039 230.309C28.155 230.395 28.4359 230.7 28.6161 231.171C28.7963 231.641 28.8238 232.041 28.9246 232.071Z" fill="#263238"/>
<path d="M32.8122 226.294C32.8458 226.385 33.3222 226.272 33.8902 226.337C34.4583 226.401 34.898 226.602 34.953 226.52C35.008 226.437 34.5957 226.059 33.9238 225.988C33.252 225.918 32.7694 226.217 32.8122 226.294Z" fill="#263238"/>
<g opacity="0.3">
<path d="M32.9435 220.28L32.916 222.186L43.1038 222.577L43.1954 220.86L32.9435 220.28Z" fill="black"/>
</g>
<path d="M32.8848 224.141C33.2192 224.251 33.5776 224.266 33.92 224.184C34.5201 224.105 35.0996 223.912 35.6272 223.616C35.7471 223.558 35.8556 223.479 35.9478 223.384C36.0191 223.315 36.0649 223.224 36.0776 223.126C36.0904 223.027 36.0694 222.928 36.0181 222.843C35.9711 222.769 35.9073 222.708 35.8319 222.664C35.7565 222.62 35.6716 222.594 35.5844 222.59C35.4532 222.582 35.3214 222.593 35.1935 222.623C34.9694 222.666 34.7496 222.73 34.5369 222.813C34.1796 222.953 33.8466 223.149 33.5505 223.393C33.0466 223.814 32.8634 224.184 32.9 224.205C32.9367 224.226 33.2054 223.933 33.6971 223.594C33.9937 223.397 34.3138 223.237 34.6499 223.118C34.8492 223.051 35.0534 223 35.2607 222.965C35.4836 222.916 35.6669 222.922 35.7218 223.029C35.7432 223.063 35.7432 223.084 35.6943 223.142C35.6236 223.21 35.5433 223.266 35.4562 223.31C35.2749 223.416 35.0884 223.511 34.8973 223.597C34.5671 223.74 34.2247 223.852 33.8742 223.933C33.541 223.985 33.2108 224.055 32.8848 224.141Z" fill="#263238"/>
<path d="M33.0118 224.299C33.2201 224.012 33.3323 223.667 33.3325 223.313C33.3719 222.93 33.3408 222.542 33.2409 222.171C33.1812 221.95 33.1035 221.734 33.0088 221.526C32.9596 221.387 32.8748 221.262 32.7629 221.165C32.651 221.068 32.5157 221.002 32.3705 220.973C32.2783 220.971 32.1873 220.995 32.1079 221.042C32.0285 221.089 31.9639 221.157 31.9216 221.239C31.8641 221.36 31.8221 221.487 31.7964 221.618C31.7508 221.848 31.7394 222.084 31.7628 222.317C31.8018 222.708 31.936 223.083 32.1537 223.41C32.5324 223.963 32.9507 224.11 32.9599 224.076C32.9691 224.043 32.6545 223.817 32.3644 223.285C32.2 222.981 32.1042 222.644 32.0834 222.299C32.0683 222.099 32.0848 221.898 32.1323 221.703C32.175 221.486 32.2667 221.312 32.3491 221.34C32.4316 221.367 32.6209 221.514 32.7003 221.697C32.7956 221.881 32.8733 222.073 32.9324 222.271C33.0326 222.61 33.084 222.962 33.0851 223.316C33.0821 223.902 32.9538 224.272 33.0118 224.299Z" fill="#263238"/>
<path d="M75.1901 140.8C75.1901 140.8 42.8372 127.231 32.8173 126.651C26.5385 126.288 21.7836 130.316 22.6387 136.824C23.0662 140.079 32.005 178.14 32.005 178.14L45.6437 171.91L39.09 145.591L65.6589 158.509L75.1901 140.8Z" fill="#263238"/>
<path d="M35.0031 138.927C35.6443 140.061 36.3426 141.162 37.095 142.226C38.228 144.058 38.9853 145.628 39.1105 145.585C38.3589 143.042 36.9395 140.748 35 138.94L35.0031 138.927Z" fill="#455A64"/>
<path d="M32.3516 140.44C33.4619 141.361 34.6232 142.218 35.83 143.008C36.944 143.925 38.1083 144.778 39.3175 145.565C38.4131 144.419 37.3304 143.426 36.1109 142.624C34.9848 141.696 33.715 140.959 32.3516 140.44Z" fill="#455A64"/>
<path d="M100.419 148.959C98.2921 151.739 95.5819 154.019 92.4791 155.638C87.5929 157.437 51.5569 174.45 51.5569 174.45C51.5569 174.45 45.0185 223.025 45.5346 221.001L30.4453 220.637L32.0822 175.892C32.4533 172.785 33.5196 169.802 35.2019 167.164C36.8842 164.527 39.1394 162.302 41.7997 160.656L75.1818 140.805L100.419 148.959Z" fill="#263238"/>
<path d="M31.7881 184.079C31.8271 183.877 31.8485 183.673 31.8523 183.468C31.8736 183.019 31.9072 182.433 31.9439 181.712C32.0232 179.558 32.222 177.41 32.5394 175.278C32.9798 172.126 34.0921 169.106 35.801 166.421C36.8634 164.881 38.174 163.528 39.6794 162.418C41.3134 161.228 43.0232 160.145 44.7977 159.177C52.0568 155.018 58.3234 150.776 62.9592 147.878C65.271 146.409 67.1462 145.239 68.4563 144.439L69.9557 143.523C70.1366 143.423 70.3074 143.305 70.4657 143.172C70.273 143.242 70.0878 143.331 69.913 143.438C69.5557 143.627 69.0304 143.908 68.3646 144.284C67.027 145.032 65.1245 146.159 62.7913 147.594C58.1066 150.431 51.8125 154.618 44.5748 158.774C42.78 159.75 41.0536 160.847 39.4076 162.057C37.8633 163.204 36.5214 164.6 35.4375 166.189C33.7102 168.938 32.6082 172.034 32.2096 175.256C31.9208 177.403 31.7709 179.567 31.7606 181.733V183.499C31.7508 183.692 31.76 183.887 31.7881 184.079Z" fill="#455A64"/>
<path d="M87.1119 154.078C87.1669 154.014 86.7271 153.608 86.1958 152.832C85.5001 151.819 85.0141 150.677 84.7665 149.473C84.5217 148.272 84.5217 147.033 84.7665 145.832C84.9183 145.338 85.0427 144.835 85.1391 144.327C84.7969 144.737 84.5591 145.225 84.4459 145.747C84.0884 146.989 84.0352 148.299 84.2909 149.567C84.5466 150.834 85.1036 152.021 85.9148 153.027C86.5592 153.797 87.0845 154.121 87.1119 154.078Z" fill="#455A64"/>
<path d="M35.9843 220.633C36.0076 220.554 36.0239 220.472 36.0331 220.389C36.0545 220.2 36.0881 219.955 36.1247 219.653C36.195 218.975 36.2988 218.022 36.4301 216.825C36.6744 214.333 37.0256 210.782 37.4532 206.415C37.6639 204.21 37.893 201.806 38.1403 199.223C38.3877 196.639 38.6503 193.872 38.8549 190.962C39.0596 188.051 39.3588 185.004 39.8841 181.889C40.395 178.668 41.3273 175.528 42.657 172.55C44.0565 169.601 45.9115 166.89 48.1541 164.518C50.2418 162.304 52.5298 160.288 54.9887 158.496C59.2093 155.519 63.5934 152.782 68.1204 150.296C71.95 148.097 75.0039 146.222 77.0317 144.799C78.0548 144.1 78.8243 143.532 79.3435 143.132L79.9237 142.677C80.0489 142.573 80.1192 142.515 80.1131 142.509C80.0342 142.542 79.9611 142.587 79.8962 142.643L79.2855 143.064C78.7541 143.434 77.9631 143.981 76.934 144.653C74.8756 146.018 71.8095 147.838 67.9586 150.003C63.3934 152.452 58.9769 155.169 54.7321 158.138C52.2425 159.937 49.9267 161.964 47.8151 164.194C45.5431 166.602 43.6644 169.353 42.2478 172.345C40.9022 175.364 39.9606 178.547 39.4474 181.812C38.9221 184.955 38.6503 188.024 38.4396 190.934C38.2289 193.845 38.0059 196.611 37.7739 199.195C37.5418 201.779 37.3402 204.188 37.1631 206.393C36.7997 210.769 36.4973 214.333 36.2866 216.819C36.195 218.024 36.1247 218.97 36.0759 219.656C36.0545 219.962 36.0423 220.203 36.0331 220.398C36.024 220.594 35.9721 220.633 35.9843 220.633Z" fill="#455A64"/>
<path d="M71.5124 63.74C71.0051 62.431 70.047 61.3462 68.8107 60.681C67.5745 60.0159 66.1413 59.8141 64.7694 60.112C64.1647 60.3284 63.5344 60.465 62.8943 60.5182C62.1174 60.3821 61.354 60.1777 60.613 59.9074C59.7722 59.7691 58.9099 59.9495 58.1949 60.4131C57.4799 60.8768 56.9636 61.5905 56.7468 62.4146C56.0879 62.2555 55.4023 62.2414 54.7375 62.3732C54.0726 62.505 53.4442 62.7796 52.8958 63.1781C52.3608 63.5944 51.9816 64.1787 51.8192 64.8369C51.6569 65.4951 51.721 66.1888 52.0011 66.8061C52.2729 67.3161 52.7218 67.7223 52.9753 68.2476C53.2103 69.1701 53.3807 70.1079 53.4853 71.0541C53.7542 71.7116 54.2026 72.2802 54.7794 72.6949C55.3561 73.1097 56.0379 73.3538 56.7468 73.3995C58.1666 73.465 59.5859 73.2576 60.9276 72.7887" fill="#263238"/>
<path d="M65.0447 91.4303C64.8707 90.0805 64.7393 89.1277 64.7393 89.1277C63.2267 88.9761 61.8004 88.351 60.6638 87.3415C59.5271 86.332 58.7379 84.9896 58.4086 83.5054C57.4365 79.7927 56.8109 75.9977 56.5396 72.1694C56.4593 71.3447 56.5469 70.5124 56.7971 69.7225C57.0474 68.9327 57.4551 68.2017 57.9957 67.5738C58.5363 66.9459 59.1985 66.4341 59.9423 66.0692C60.6862 65.7043 61.4963 65.4939 62.3237 65.4508L74.3103 64.8217L74.5698 66.6785L77.7276 89.7262C77.9542 91.4112 77.5025 93.1172 76.4717 94.4693C75.4409 95.8213 73.9154 96.7088 72.2306 96.9365C70.548 97.156 68.8471 96.6997 67.5003 95.6677C66.1534 94.6357 65.2704 93.112 65.0447 91.4303Z" fill="#B78876"/>
<path d="M58.2423 75.4754C58.2711 75.6674 58.3737 75.8406 58.5283 75.9581C58.6829 76.0756 58.8772 76.1281 59.0699 76.1045C59.1646 76.0969 59.2568 76.0704 59.3411 76.0265C59.4254 75.9827 59.5001 75.9224 59.5607 75.8493C59.6214 75.7761 59.6667 75.6916 59.6941 75.6006C59.7216 75.5097 59.7305 75.4141 59.7204 75.3196C59.6916 75.1276 59.589 74.9544 59.4344 74.8369C59.2798 74.7194 59.0855 74.6669 58.8928 74.6905C58.7981 74.6982 58.7059 74.7247 58.6216 74.7685C58.5373 74.8123 58.4626 74.8726 58.402 74.9457C58.3414 75.0189 58.296 75.1034 58.2686 75.1944C58.2411 75.2854 58.2322 75.3809 58.2423 75.4754Z" fill="#263238"/>
<path d="M57.9429 74.4352C58.0468 74.5177 58.5384 74.0138 59.3294 73.8886C60.1203 73.7634 60.7647 74.0718 60.835 73.9588C60.8686 73.9099 60.7494 73.7481 60.4715 73.6076C60.092 73.4253 59.6654 73.3645 59.25 73.4335C58.8397 73.4997 58.4604 73.6931 58.1659 73.9863C57.9429 74.2123 57.8849 74.4016 57.9429 74.4352Z" fill="#263238"/>
<path d="M65.754 74.198C65.7828 74.39 65.8854 74.5632 66.04 74.6807C66.1946 74.7982 66.3889 74.8507 66.5816 74.8271C66.6763 74.8195 66.7685 74.793 66.8528 74.7491C66.9371 74.7053 67.0118 74.6451 67.0724 74.5719C67.1331 74.4988 67.1784 74.4142 67.2059 74.3232C67.2333 74.2322 67.2422 74.1367 67.2321 74.0422C67.2033 73.8502 67.1007 73.677 66.9461 73.5595C66.7916 73.442 66.5972 73.3895 66.4045 73.4131C66.3098 73.4208 66.2176 73.4473 66.1333 73.4911C66.049 73.5349 65.9743 73.5952 65.9137 73.6684C65.8531 73.7415 65.8077 73.826 65.7803 73.917C65.7529 74.008 65.7439 74.1035 65.754 74.198Z" fill="#263238"/>
<path d="M65.7438 73.3433C65.8476 73.4288 66.3546 72.9219 67.1363 72.7966C67.9181 72.6714 68.5717 72.9799 68.6419 72.8669C68.6755 72.818 68.5564 72.6562 68.2785 72.5157C67.8989 72.3334 67.4723 72.2725 67.0569 72.3416C66.6466 72.4078 66.2674 72.6011 65.9728 72.8944C65.7438 73.1203 65.6949 73.3097 65.7438 73.3433Z" fill="#263238"/>
<path d="M63.8041 79.6726C63.3662 79.6087 62.922 79.5995 62.4818 79.6451C62.2802 79.6451 62.0756 79.6451 62.0207 79.5108C61.9734 79.3075 61.9883 79.0947 62.0634 78.9C62.1764 78.3808 62.2955 77.8372 62.4146 77.2692C62.7643 75.879 62.9983 74.4623 63.114 73.0334C62.6562 74.3942 62.3069 75.7891 62.0695 77.2051C61.9565 77.7792 61.8466 78.3258 61.7397 78.8419C61.649 79.1065 61.6566 79.3949 61.7611 79.6543C61.802 79.7207 61.8572 79.7771 61.9227 79.8194C61.9882 79.8617 62.0624 79.8887 62.1398 79.8986C62.2564 79.9131 62.3743 79.9131 62.491 79.8986C62.936 79.8748 63.3767 79.7989 63.8041 79.6726Z" fill="#263238"/>
<path d="M64.7422 89.1161C67.4483 88.7283 69.9933 87.5959 72.0929 85.8453C71.5299 87.2442 70.5514 88.4366 69.2894 89.2618C68.0273 90.0869 66.5425 90.5051 65.0354 90.4598L64.7422 89.1161Z" fill="#AA6550"/>
<path d="M66.2071 79.8472C66.0728 79.8472 66.2071 80.7237 65.578 81.4444C64.9489 82.1651 64.0084 82.2201 64.0236 82.3392C64.0236 82.3942 64.2557 82.4736 64.6344 82.4247C65.1387 82.3496 65.6015 82.1026 65.9445 81.7254C66.2716 81.3611 66.4426 80.883 66.4209 80.3939C66.3965 80.0305 66.2621 79.835 66.2071 79.8472Z" fill="#263238"/>
<path d="M65.0404 70.2789C65.1534 70.4804 65.9291 70.2514 66.8728 70.2147C67.8164 70.1781 68.6104 70.3124 68.7051 70.1017C68.7479 70.004 68.586 69.8208 68.2501 69.662C67.8079 69.4659 67.3251 69.3789 66.8422 69.4085C66.3583 69.4264 65.8853 69.5582 65.4619 69.7933C65.1382 69.9826 64.9916 70.1811 65.0404 70.2789Z" fill="#263238"/>
<path d="M57.8753 72.0868C58.0433 72.2395 58.5624 71.9677 59.2129 71.8547C59.8634 71.7417 60.4345 71.7845 60.5444 71.5737C60.5872 71.476 60.4681 71.308 60.2024 71.1736C59.8452 71.0234 59.4515 70.9824 59.0711 71.0558C58.6906 71.1292 58.3404 71.3137 58.0647 71.586C57.8387 71.8242 57.799 72.0196 57.8753 72.0868Z" fill="#263238"/>
<path d="M55.9595 69.6466C57.1261 69.9286 58.3401 69.9526 59.5169 69.7168C60.6937 69.481 61.8048 68.9912 62.7727 68.2815C65.1609 66.6843 68.059 65.6826 68.7797 66.1193C69.5005 66.5561 69.9708 69.1732 72.5941 69.6069C72.5941 69.6069 73.0552 74.6489 75.0372 74.2152C76.445 73.9098 75.6266 68.3487 75.0372 65.1757C74.9207 64.5592 74.5983 64.0004 74.1229 63.5909C73.6474 63.1815 73.047 62.9456 72.42 62.9219L68.7309 62.7814L64.1225 64.0702L59.1783 65.4139L55.4189 66.9744L55.9595 69.6466Z" fill="#263238"/>
<path d="M74.5859 72.1727C74.6623 72.1177 77.7223 70.5144 78.2903 73.8523C78.3945 74.2654 78.3932 74.6981 78.2867 75.1106C78.1801 75.5231 77.9717 75.9022 77.6805 76.2131C77.3893 76.5241 77.0246 76.7569 76.62 76.8903C76.2154 77.0237 75.7837 77.0533 75.3647 76.9764C75.3342 76.8787 74.5859 72.1727 74.5859 72.1727Z" fill="#B78876"/>
<path d="M76.1665 75.5314C76.1665 75.5314 76.2306 75.559 76.3344 75.5864C76.4819 75.6195 76.6364 75.5966 76.768 75.5223C76.9606 75.3482 77.1036 75.1262 77.1824 74.8789C77.2613 74.6316 77.2732 74.3679 77.217 74.1145C77.1767 73.8263 77.0723 73.5508 76.9116 73.3082C76.8632 73.2094 76.7915 73.1238 76.7026 73.0589C76.6138 72.994 76.5105 72.9517 76.4016 72.9357C76.3338 72.9328 76.267 72.9525 76.2117 72.9918C76.1565 73.031 76.1158 73.0876 76.0962 73.1525C76.0687 73.2502 76.0962 73.3143 76.0962 73.3265C76.0962 73.3388 76.0137 73.2838 76.0199 73.1372C76.0223 73.0504 76.0572 72.9676 76.1176 72.9051C76.1977 72.821 76.307 72.7708 76.423 72.7646C76.564 72.7688 76.7017 72.8089 76.823 72.881C76.9443 72.9531 77.0452 73.055 77.1162 73.1769C77.3047 73.4425 77.4272 73.7493 77.4735 74.0717C77.5394 74.3662 77.5166 74.6737 77.4079 74.9553C77.2992 75.2368 77.1095 75.4798 76.8627 75.6536C76.7774 75.6943 76.684 75.7154 76.5894 75.7154C76.4948 75.7154 76.4015 75.6943 76.3161 75.6536C76.1817 75.617 76.1573 75.5467 76.1665 75.5314Z" fill="#AA6550"/>
<path d="M57.5277 61.1809C57.5552 61.1809 57.6468 61.3549 57.8789 61.6298C58.2207 62.0066 58.6557 62.2867 59.1402 62.4421C59.8597 62.6758 60.6292 62.7096 61.3664 62.5398C62.2838 62.3167 63.1847 62.031 64.063 61.6848C64.9746 61.3265 65.9483 61.1531 66.9276 61.1748C67.7522 61.2029 68.5324 61.5552 69.0989 62.1551C69.4907 62.5459 69.7273 63.0657 69.7646 63.6179C69.7923 63.8167 69.7582 64.0193 69.6669 64.1981C69.6333 64.1981 69.6669 63.9874 69.6242 63.6301C69.5341 63.1333 69.2856 62.6789 68.9157 62.3352C68.376 61.8141 67.6564 61.521 66.9062 61.5168C65.9737 61.5179 65.0497 61.694 64.1821 62.036C63.2905 62.3908 62.3713 62.6717 61.4336 62.8758C60.6408 63.0401 59.8175 62.9744 59.0607 62.6864C58.5456 62.5016 58.0985 62.1652 57.7781 61.7214C57.543 61.4038 57.5063 61.187 57.5277 61.1809Z" fill="#455A64"/>
<path d="M68.8055 64.3819C68.778 64.4033 68.6375 64.2078 68.2863 63.9604C67.7863 63.6357 67.2029 63.4628 66.6066 63.4627C65.7196 63.4553 64.8441 63.6649 64.0566 64.0734C63.0749 64.6107 62.06 65.085 61.018 65.4935C60.0299 65.8004 58.9893 65.9011 57.9607 65.7892C56.9321 65.6773 55.9375 65.3553 55.0385 64.843C54.4976 64.5393 54.003 64.1598 53.5696 63.7161C53.2642 63.3955 53.1298 63.197 53.1481 63.1848C53.7695 63.7304 54.4448 64.2114 55.1637 64.6201C56.9348 65.547 59.0001 65.7379 60.9111 65.1515C61.9388 64.7456 62.944 64.2848 63.9223 63.7711C64.7592 63.3516 65.6898 63.1539 66.625 63.197C67.2616 63.2218 67.8741 63.4473 68.3749 63.8413C68.566 63.9778 68.7152 64.165 68.8055 64.3819Z" fill="#455A64"/>
<path d="M58.4428 121.276L42.1869 107.421L36.8242 108.642C39.491 114.325 42.7557 119.706 46.5631 124.697C47.8072 126.257 49.5064 127.391 51.4245 127.942C53.3427 128.492 55.3847 128.432 57.267 127.769C63.9245 125.414 58.4428 121.276 58.4428 121.276Z" fill="#B78876"/>
<path d="M40.9501 92.1581H34.0392C33.7782 92.1715 33.5234 92.2431 33.2937 92.3677C33.0639 92.4922 32.8649 92.6665 32.7112 92.8779C32.5575 93.0893 32.453 93.3324 32.4053 93.5893C32.3577 93.8463 32.3681 94.1106 32.4359 94.3631L39.3896 107.898C39.5218 108.156 39.7226 108.372 39.97 108.523C40.2173 108.674 40.5016 108.753 40.7913 108.753L49.214 108.732C49.4096 108.706 49.596 108.633 49.7572 108.519C49.9184 108.405 50.0496 108.254 50.1397 108.078C50.2297 107.903 50.2759 107.708 50.2742 107.51C50.2726 107.313 50.2231 107.119 50.1301 106.945L43.4116 93.6912C43.185 93.2317 42.8344 92.8446 42.3995 92.5737C41.9645 92.3028 41.4625 92.1588 40.9501 92.1581Z" fill="#455A64"/>
<path d="M40.4913 92.9763H33.5833C33.3853 92.9753 33.1903 93.0253 33.0172 93.1216C32.8442 93.2179 32.6989 93.3572 32.5954 93.5261C32.4919 93.695 32.4338 93.8877 32.4265 94.0856C32.4193 94.2835 32.4633 94.48 32.5542 94.6559L39.3308 107.895C39.463 108.152 39.6638 108.369 39.9112 108.52C40.1585 108.67 40.4428 108.75 40.7325 108.75H49.0635C49.1802 108.751 49.2952 108.722 49.3974 108.666C49.4996 108.61 49.5856 108.528 49.647 108.429C49.7084 108.329 49.7432 108.216 49.748 108.1C49.7528 107.983 49.7274 107.867 49.6743 107.763L42.9557 94.5094C42.7289 94.0493 42.3779 93.6619 41.9424 93.391C41.5068 93.1201 41.0042 92.9765 40.4913 92.9763Z" fill="#263238"/>
<path d="M39.8969 98.5211L35.6886 100.201L34.7725 103.59L36.7972 108.632L44.2334 109.711L42.056 107.484L42.337 105.545C42.337 105.545 44.4106 104.895 44.4594 104.58C44.5083 104.265 44.1998 103.2 43.8853 103.145C43.0357 103.33 42.2024 103.583 41.3933 103.902C41.3933 103.902 43.9708 101.865 43.8914 101.535C43.812 101.205 43.5402 100.372 43.0302 100.274C41.4254 100.766 39.8637 101.389 38.3608 102.137L37.6889 103.664L37.0995 101.221C37.0995 101.221 40.807 100.195 39.8969 98.5211Z" fill="#B78876"/>
<path d="M40.4139 106.474C40.3864 106.474 40.3101 106.327 40.2734 106.052C40.228 105.693 40.271 105.328 40.3986 104.989C40.5241 104.65 40.7282 104.346 40.9941 104.101C41.2049 103.917 41.3576 103.856 41.3728 103.878C41.057 104.233 40.7975 104.635 40.6032 105.069C40.4676 105.524 40.4038 105.998 40.4139 106.474Z" fill="#AA6550"/>
<path d="M38.4258 105.726C38.5019 105.363 38.558 104.996 38.5937 104.626C38.6107 104.212 38.6815 103.801 38.8044 103.405C38.8891 103.165 39.0198 102.944 39.1893 102.754C39.3863 102.564 39.6202 102.417 39.8764 102.321C40.8842 101.957 41.7881 101.661 42.4539 101.444C42.8053 101.31 43.1681 101.208 43.538 101.139C43.2081 101.319 42.8613 101.466 42.5027 101.578C41.8584 101.832 40.9483 102.153 39.9619 102.495C39.7357 102.58 39.5283 102.709 39.3511 102.873C39.1953 103.038 39.0757 103.234 38.9999 103.447C38.8719 103.826 38.7899 104.219 38.7556 104.617C38.7444 105.009 38.6307 105.391 38.4258 105.726Z" fill="#AA6550"/>
<path d="M37.4727 104.971C37.4112 104.698 37.4206 104.413 37.5001 104.144C37.5765 103.695 37.6834 103.337 37.7384 103.353C37.7999 103.626 37.7904 103.911 37.7109 104.18C37.6406 104.629 37.5338 104.977 37.4727 104.971Z" fill="#AA6550"/>
<path d="M37.3584 95.5322C37.3584 95.7067 37.4102 95.8774 37.5071 96.0225C37.6041 96.1676 37.742 96.2808 37.9032 96.3476C38.0645 96.4144 38.242 96.4319 38.4132 96.3978C38.5844 96.3637 38.7416 96.2797 38.8651 96.1562C38.9885 96.0328 39.0725 95.8756 39.1066 95.7044C39.1407 95.5332 39.1232 95.3557 39.0564 95.1944C38.9896 95.0332 38.8765 94.8953 38.7313 94.7983C38.5862 94.7014 38.4155 94.6496 38.241 94.6496C38.0069 94.6496 37.7824 94.7426 37.6169 94.9081C37.4514 95.0736 37.3584 95.2981 37.3584 95.5322Z" fill="#FAFAFA"/>
<path d="M13.148 228.986C14.2448 229.326 15.2616 229.884 16.1375 230.627C17.0133 231.369 17.7301 232.281 18.245 233.307C19.2623 235.37 19.796 237.637 19.8055 239.937C19.677 244.553 18.3476 249.056 15.9484 253.002C12.5323 250.258 10.2347 246.362 9.4864 242.045C8.43586 237.577 9.23903 228.867 13.148 228.986Z" fill="#4E9C0B"/>
<path d="M21.2408 259.574C20.8094 258.365 20.7054 257.063 20.9392 255.8C21.173 254.538 21.7364 253.36 22.5723 252.385C23.4245 251.427 24.4586 250.647 25.6146 250.092C26.7706 249.537 28.0254 249.217 29.3061 249.151C29.891 249.057 30.4893 249.092 31.0591 249.254C31.6289 249.416 32.1563 249.701 32.6043 250.088C32.9578 250.516 33.1908 251.03 33.2794 251.577C33.368 252.125 33.3089 252.686 33.1082 253.203C32.6894 254.233 32.0056 255.134 31.1262 255.815C29.8555 257.128 28.311 258.146 26.6025 258.796C24.894 259.446 23.0635 259.711 21.2408 259.574Z" fill="#4E9C0B"/>
<path d="M18.495 273.629C18.4678 273.325 18.4678 273.018 18.495 272.713C18.5164 272.069 18.55 271.229 18.5867 270.227C18.6054 267.471 19.0684 264.735 19.9579 262.125C20.8972 259.509 22.5163 257.19 24.6486 255.407C25.2992 254.883 26.0084 254.436 26.7619 254.075C26.9664 253.977 27.1765 253.89 27.391 253.816C27.5376 253.761 27.615 253.739 27.6231 253.752C26.6216 254.266 25.6743 254.88 24.7952 255.584C22.7463 257.381 21.1852 259.667 20.2571 262.229C19.3802 264.808 18.8913 267.502 18.8065 270.224C18.7302 271.269 18.6722 272.121 18.6111 272.704C18.6001 273.015 18.5613 273.325 18.495 273.629Z" fill="#263238"/>
<path d="M13.1141 235.672C13.1647 235.795 13.1995 235.924 13.218 236.056C13.275 236.343 13.3523 236.715 13.4501 237.171C13.6455 238.136 13.9051 239.544 14.2196 241.282C14.8304 244.76 15.6336 249.57 16.3818 254.905C17.13 260.24 17.7041 265.093 18.0706 268.599C18.2538 270.355 18.3912 271.778 18.4706 272.764C18.5053 273.226 18.5338 273.604 18.5562 273.897C18.5716 274.03 18.5716 274.164 18.5562 274.297C18.5169 274.17 18.4933 274.039 18.4859 273.906C18.4523 273.601 18.4004 273.241 18.3393 272.779C18.2141 271.756 18.0339 270.336 17.8354 268.629C17.414 265.12 16.8063 260.283 16.0581 254.948C15.3099 249.613 14.5525 244.797 13.9845 241.315C13.7035 239.599 13.4806 238.2 13.3187 237.192C13.2485 236.731 13.1935 236.359 13.1508 236.066C13.1197 235.937 13.1073 235.804 13.1141 235.672Z" fill="#263238"/>
<path d="M15.2929 263.159C14.4654 260.583 13.0368 258.241 11.1252 256.326C9.2135 254.411 6.87361 252.979 4.29885 252.147C3.67725 251.855 2.98497 251.746 2.3037 251.834C1.62243 251.923 0.980614 252.204 0.453995 252.645C0.116029 253.245 -0.0389124 253.931 0.00830067 254.618C0.0555137 255.305 0.302809 255.963 0.719677 256.511C2.1798 258.988 4.34081 260.977 6.93006 262.227C9.51931 263.477 12.4208 263.932 15.2684 263.535" fill="#4E9C0B"/>
<path d="M5.48582 256.19C5.7679 256.239 6.04491 256.314 6.31343 256.413C6.63472 256.508 6.94988 256.622 7.25709 256.755C7.61439 256.917 8.04193 257.061 8.47864 257.296C9.52275 257.813 10.5165 258.427 11.447 259.128C13.7439 260.843 15.5818 263.098 16.7975 265.694C17.0603 266.257 17.2918 266.834 17.4907 267.423C17.6693 267.935 17.8212 268.455 17.9457 268.983C18.0556 269.415 18.1402 269.852 18.1992 270.293C18.2601 270.624 18.2999 270.959 18.3183 271.295C18.3567 271.58 18.3659 271.869 18.3458 272.156C18.2755 272.156 18.2206 270.935 17.735 269.041C17.6025 268.524 17.4414 268.014 17.2525 267.514C17.0448 266.938 16.8084 266.372 16.544 265.819C15.3174 263.286 13.5143 261.075 11.2791 259.363C10.7955 258.988 10.293 258.637 9.7735 258.313C9.29709 257.992 8.82068 257.745 8.38702 257.507C6.64325 256.597 5.45833 256.255 5.48582 256.19Z" fill="#263238"/>
</svg>
