<svg width="18" height="16" viewBox="0 0 18 16" fill="none" xmlns="http://www.w3.org/2000/svg">
<path d="M9.99981 15.2584C9.85979 15.1151 9.77566 14.9264 9.76264 14.7265C9.74961 14.5266 9.80856 14.3286 9.92881 14.1684L9.99981 14.0834L15.1998 8.83237H0.817814C0.608577 8.82881 0.408389 8.74643 0.257243 8.6017C0.106096 8.45696 0.0151214 8.26053 0.00249229 8.05164C-0.0101369 7.84276 0.0565098 7.6368 0.189118 7.47491C0.321726 7.31302 0.510531 7.20712 0.717814 7.17837L0.817814 7.17237H17.1818C17.3446 7.17297 17.5034 7.22211 17.6381 7.31349C17.7728 7.40488 17.8771 7.53436 17.9378 7.68537C17.9917 7.81921 18.0103 7.96466 17.9917 8.10774C17.9731 8.25082 17.9181 8.38672 17.8318 8.50237L17.7588 8.58537L11.1588 15.2564C11.0834 15.3332 10.9935 15.3942 10.8942 15.4358C10.795 15.4775 10.6884 15.4989 10.5808 15.4989C10.4732 15.4989 10.3666 15.4775 10.2674 15.4358C10.1682 15.3942 10.0782 15.3332 10.0028 15.2564L9.99981 15.2584ZM13.7258 5.67437L13.6448 5.60237L9.99981 1.92037C9.84627 1.76357 9.76027 1.55284 9.76027 1.33337C9.76027 1.11391 9.84627 0.90318 9.99981 0.746374C10.1384 0.603905 10.3244 0.517337 10.5226 0.503139C10.7209 0.488941 10.9174 0.548105 11.0748 0.669374L11.1598 0.744374L14.7998 4.42237C14.9532 4.57947 15.039 4.79032 15.039 5.00987C15.039 5.22943 14.9532 5.44027 14.7998 5.59737C14.6616 5.7397 14.4759 5.8262 14.278 5.8404C14.0801 5.8546 13.8839 5.7955 13.7268 5.67437H13.7258Z" fill="white"/>
</svg>
