<svg width="14" height="11" viewBox="0 0 14 11" fill="none" xmlns="http://www.w3.org/2000/svg">
<path d="M5.13764 10.2508C4.95586 10.2511 4.7758 10.2156 4.60782 10.1461C4.43983 10.0766 4.28725 9.97462 4.15883 9.84595L0.40646 6.08884C0.146654 5.82966 0.000445839 5.47789 1.01794e-06 5.11091C-0.000443803 4.74394 0.144911 4.39181 0.404088 4.13201C0.663265 3.8722 1.01504 3.72599 1.38201 3.72555C1.74899 3.7251 2.10111 3.87046 2.36092 4.12964L5.13764 6.90636L11.6652 0.378845C11.927 0.130939 12.2753 -0.00494269 12.6359 0.000137484C12.9964 0.00521766 13.3408 0.150858 13.5955 0.406044C13.8503 0.661229 13.9954 1.0058 13.9999 1.36636C14.0044 1.72693 13.8679 2.07501 13.6196 2.33647L6.11645 9.83963C5.98804 9.96829 5.83545 10.0703 5.66747 10.1398C5.49949 10.2092 5.31942 10.2448 5.13764 10.2444" fill="white"/>
</svg>
