<svg width="168" height="40" viewBox="0 0 168 40" fill="none" xmlns="http://www.w3.org/2000/svg">
<path d="M36.6959 18.3281C36.1232 17.568 33.9959 17.0445 33.0959 15.6766C32.1959 14.3086 31.4592 11.3461 29.1686 10.2078C26.8779 9.06953 22.4998 8.75 19.9998 8.75C17.4998 8.75 13.1248 9.0625 10.8311 10.2055C8.5373 11.3484 7.80371 14.3086 6.90371 15.6742C6.00371 17.0398 3.87637 17.568 3.30371 18.3281C2.73105 19.0883 2.32793 23.8938 2.57324 26.25C2.81855 28.6062 3.27637 30 3.27637 30H9.99512C11.0951 30 11.4529 29.5867 13.7029 29.375C16.1717 29.1406 18.5936 29.0625 19.9998 29.0625C21.4061 29.0625 23.9061 29.1406 26.3732 29.375C28.6232 29.5883 28.9928 30 30.0811 30H36.7217C36.7217 30 37.1795 28.6062 37.4248 26.25C37.6701 23.8938 37.2654 19.0883 36.6959 18.3281ZM31.2498 30H35.6248V31.25H31.2498V30ZM4.3748 30H8.7498V31.25H4.3748V30Z" stroke="#F3B755" stroke-width="3" stroke-linecap="round" stroke-linejoin="round"/>
<path d="M28.4744 24.1531C28.0127 23.6195 26.508 23.1742 24.5158 22.8758C22.5236 22.5773 21.7971 22.5 20.0158 22.5C18.2346 22.5 17.4244 22.6281 15.515 22.8758C13.6057 23.1234 12.1721 23.5641 11.5572 24.1531C10.6346 25.0469 11.9861 26.05 13.0471 26.1719C14.0752 26.2891 16.1307 26.2461 20.0244 26.2461C23.9182 26.2461 25.9736 26.2891 27.0018 26.1719C28.0611 26.043 29.3158 25.1094 28.4744 24.1531ZM33.7166 18.9883C33.7122 18.9262 33.6851 18.868 33.6404 18.8247C33.5957 18.7815 33.5366 18.7563 33.4744 18.7539C32.5518 18.7211 31.615 18.7867 29.9533 19.2766C29.1055 19.5241 28.3094 19.9226 27.6033 20.4531C27.4252 20.5922 27.4885 20.968 27.7119 21.0078C29.0816 21.1685 30.4594 21.2493 31.8385 21.25C32.6658 21.25 33.5197 21.0156 33.6783 20.2781C33.7592 19.8529 33.7721 19.4176 33.7166 18.9883ZM6.28379 18.9883C6.28818 18.9262 6.31533 18.868 6.36002 18.8247C6.40472 18.7815 6.46382 18.7563 6.52598 18.7539C7.44864 18.7211 8.38536 18.7867 10.0471 19.2766C10.8949 19.5241 11.691 19.9226 12.3971 20.4531C12.5752 20.5922 12.5119 20.968 12.2885 21.0078C10.9188 21.1685 9.54097 21.2493 8.16192 21.25C7.33458 21.25 6.48067 21.0156 6.32207 20.2781C6.24122 19.8529 6.2283 19.4176 6.28379 18.9883Z" fill="#55AC0A"/>
<path d="M33.75 15H35M5 15H6.25M6.09375 16.4844C6.09375 16.4844 9.71484 15.5469 20 15.5469C30.2852 15.5469 33.9062 16.4844 33.9062 16.4844" stroke="#F3B755" stroke-width="3" stroke-linecap="round" stroke-linejoin="round"/>
<path d="M51.4512 27.2344C47.2715 27.2344 44.7324 24.5 44.7324 19.9492C44.7324 15.4082 47.3203 12.6641 51.373 12.6641C54.0098 12.6641 56.0508 13.8359 57.0176 15.8672C57.2129 16.2383 57.3105 16.6191 57.3105 16.9707C57.3105 17.7422 56.793 18.2402 56.0117 18.2402C55.3477 18.2402 54.9277 17.9473 54.6055 17.2637C53.9609 15.8281 52.8086 15.1055 51.4023 15.1055C49.1758 15.1055 47.7402 16.9707 47.7402 19.9395C47.7402 22.9473 49.1562 24.8027 51.4121 24.8027C52.8965 24.8027 54.0098 24.1289 54.6445 22.7129C54.9473 22.0488 55.3184 21.7852 55.9434 21.7852C56.7734 21.7852 57.3203 22.3125 57.3203 23.0938C57.3203 23.4258 57.2422 23.7383 57.0957 24.0801C56.2168 26.0332 54.1172 27.2344 51.4512 27.2344ZM59.8789 27.1855C58.9609 27.1855 58.3848 26.6484 58.3848 25.7988C58.3848 25.5547 58.4531 25.2227 58.5801 24.8613L62.4277 14.3828C62.8379 13.2402 63.5312 12.7129 64.6445 12.7129C65.7969 12.7129 66.4805 13.2207 66.9004 14.373L70.7676 24.8613C70.9043 25.2422 70.9531 25.5059 70.9531 25.7988C70.9531 26.6094 70.3379 27.1855 69.4785 27.1855C68.6484 27.1855 68.209 26.8047 67.9453 25.8867L67.2031 23.6602H62.1152L61.373 25.8574C61.0996 26.7949 60.6602 27.1855 59.8789 27.1855ZM62.7598 21.375H66.5195L64.6543 15.6035H64.5859L62.7598 21.375ZM74.2246 27.2051C73.3066 27.2051 72.75 26.6387 72.75 25.6719V14.4414C72.75 13.4746 73.2969 12.9082 74.2246 12.9082H78.5215C81.7637 12.9082 83.6191 14.6172 83.6191 17.4004C83.6191 19.1582 82.75 20.6621 81.1973 21.3262L83.2285 24.8418C83.4727 25.2617 83.541 25.5156 83.541 25.8574C83.541 26.6387 82.916 27.2051 82.0566 27.2051C81.3535 27.2051 81.0312 26.9512 80.5527 26.0918L78.209 21.8438H75.6992V25.6719C75.6992 26.6387 75.1523 27.2051 74.2246 27.2051ZM75.6992 19.7051H78.2383C79.7227 19.7051 80.5918 18.8555 80.5918 17.459C80.5918 16.0918 79.6738 15.2129 78.209 15.2129H75.6992V19.7051Z" fill="#F3B755"/>
<path d="M95.8066 27.2344C91.627 27.2344 89.0879 24.5 89.0879 19.9492C89.0879 15.4082 91.6758 12.6641 95.7285 12.6641C98.3652 12.6641 100.406 13.8359 101.373 15.8672C101.568 16.2383 101.666 16.6191 101.666 16.9707C101.666 17.7422 101.148 18.2402 100.367 18.2402C99.7031 18.2402 99.2832 17.9473 98.9609 17.2637C98.3164 15.8281 97.1641 15.1055 95.7578 15.1055C93.5312 15.1055 92.0957 16.9707 92.0957 19.9395C92.0957 22.9473 93.5117 24.8027 95.7676 24.8027C97.252 24.8027 98.3652 24.1289 99 22.7129C99.3027 22.0488 99.6738 21.7852 100.299 21.7852C101.129 21.7852 101.676 22.3125 101.676 23.0938C101.676 23.4258 101.598 23.7383 101.451 24.0801C100.572 26.0332 98.4727 27.2344 95.8066 27.2344ZM105.26 27.1855C104.332 27.1855 103.785 26.6191 103.785 25.6523V14.2559C103.785 13.2793 104.332 12.7129 105.26 12.7129C106.188 12.7129 106.734 13.2793 106.734 14.2559V18.6309H113.082V14.2559C113.082 13.2793 113.629 12.7129 114.557 12.7129C115.484 12.7129 116.031 13.2793 116.031 14.2559V25.6523C116.031 26.6191 115.484 27.1855 114.557 27.1855C113.629 27.1855 113.082 26.6191 113.082 25.6523V21.0625H106.734V25.6523C106.734 26.6191 106.188 27.1855 105.26 27.1855ZM119.312 27.1855C118.395 27.1855 117.818 26.6484 117.818 25.7988C117.818 25.5547 117.887 25.2227 118.014 24.8613L121.861 14.3828C122.271 13.2402 122.965 12.7129 124.078 12.7129C125.23 12.7129 125.914 13.2207 126.334 14.373L130.201 24.8613C130.338 25.2422 130.387 25.5059 130.387 25.7988C130.387 26.6094 129.771 27.1855 128.912 27.1855C128.082 27.1855 127.643 26.8047 127.379 25.8867L126.637 23.6602H121.549L120.807 25.8574C120.533 26.7949 120.094 27.1855 119.312 27.1855ZM122.193 21.375H125.953L124.088 15.6035H124.02L122.193 21.375ZM137.047 27.2344C134.137 27.2344 132.271 26.0723 131.705 24.5293C131.607 24.2754 131.549 24.002 131.549 23.7383C131.549 22.957 132.086 22.4395 132.848 22.4395C133.453 22.4395 133.854 22.6738 134.205 23.2988C134.664 24.373 135.768 24.8613 137.115 24.8613C138.697 24.8613 139.771 24.0996 139.771 23.0645C139.771 22.1367 139.107 21.6094 137.34 21.248L135.846 20.9551C133.033 20.3984 131.656 19.0508 131.656 16.9512C131.656 14.373 133.902 12.6641 137.037 12.6641C139.615 12.6641 141.559 13.748 142.184 15.584C142.252 15.7793 142.291 15.9844 142.291 16.2383C142.291 16.9414 141.783 17.4199 141.031 17.4199C140.367 17.4199 139.957 17.1562 139.625 16.5508C139.156 15.4863 138.248 15.0469 137.037 15.0469C135.582 15.0469 134.615 15.7305 134.615 16.7656C134.615 17.6348 135.289 18.1719 136.959 18.5039L138.443 18.8066C141.432 19.4023 142.721 20.6035 142.721 22.7422C142.721 25.4961 140.562 27.2344 137.047 27.2344ZM146.002 27C145.074 27 144.527 26.4336 144.527 25.457V14.4414C144.527 13.4746 145.074 12.9082 146.002 12.9082H152.701C153.512 12.9082 154.039 13.3672 154.039 14.1289C154.039 14.8906 153.502 15.3496 152.701 15.3496H147.477V18.7383H152.447C153.18 18.7383 153.678 19.168 153.678 19.8711C153.678 20.5742 153.189 21.0039 152.447 21.0039H147.477V24.5586H152.701C153.502 24.5586 154.039 25.0176 154.039 25.7793C154.039 26.541 153.512 27 152.701 27H146.002ZM157.467 27.2051C156.549 27.2051 155.992 26.6387 155.992 25.6719V14.4414C155.992 13.4746 156.539 12.9082 157.467 12.9082H161.764C165.006 12.9082 166.861 14.6172 166.861 17.4004C166.861 19.1582 165.992 20.6621 164.439 21.3262L166.471 24.8418C166.715 25.2617 166.783 25.5156 166.783 25.8574C166.783 26.6387 166.158 27.2051 165.299 27.2051C164.596 27.2051 164.273 26.9512 163.795 26.0918L161.451 21.8438H158.941V25.6719C158.941 26.6387 158.395 27.2051 157.467 27.2051ZM158.941 19.7051H161.48C162.965 19.7051 163.834 18.8555 163.834 17.459C163.834 16.0918 162.916 15.2129 161.451 15.2129H158.941V19.7051Z" fill="#55AC0A"/>
</svg>
