<svg width="18" height="17" viewBox="0 0 18 17" fill="none" xmlns="http://www.w3.org/2000/svg">
<path fill-rule="evenodd" clip-rule="evenodd" d="M12.0999 11.359L12.5559 10.906C13.1859 10.28 14.1669 10.151 14.9729 10.589L16.8829 11.628C18.1099 12.295 18.3809 13.93 17.4219 14.883L16.0019 16.295C15.6399 16.655 15.1919 16.917 14.6759 16.965C13.4839 17.076 11.0309 17.016 8.13688 15.322L12.0999 11.359ZM6.18988 5.48301L6.47688 5.19701C7.18388 4.49501 7.25088 3.36701 6.63388 2.54301L5.37388 0.86001C4.60988 -0.15999 3.13488 -0.29499 2.25988 0.57501L0.68988 2.13501C0.25688 2.56701 -0.0331206 3.12501 0.00187944 3.74501C0.0668794 4.88501 0.45488 6.96501 2.15088 9.52101L6.18988 5.48301Z" fill="#4E9C0B"/>
<path opacity="0.6" d="M8.06337 9.49699C5.11737 6.56799 6.18337 5.48899 6.19037 5.48199L2.15137 9.522C2.81837 10.526 3.68637 11.603 4.81537 12.726C5.95537 13.86 7.07537 14.701 8.13737 15.322L12.1004 11.36C12.1004 11.36 11.0184 12.436 8.06337 9.49799" fill="#4E9C0B"/>
</svg>
