<svg width="60" height="60" viewBox="0 0 60 60" fill="none" xmlns="http://www.w3.org/2000/svg">
<g filter="url(#filter0_d_344_16966)">
<path d="M30 51C43.2548 51 54 40.2548 54 27C54 13.7452 43.2548 3 30 3C16.7452 3 6 13.7452 6 27C6 40.2548 16.7452 51 30 51Z" fill="white"/>
</g>
<path d="M30.0115 37.2609C29.3839 37.1701 28.791 36.9167 28.2917 36.5258C28.0934 36.3958 27.9274 36.2222 27.8065 36.0183C27.6855 35.8143 27.6127 35.5855 27.5936 35.3491C27.5936 34.8431 28.0572 34.6127 28.4864 34.5125C29.838 34.4069 31.1957 34.4069 32.5472 34.5125C32.9765 34.6113 33.44 34.8431 33.44 35.3491C33.4211 35.5855 33.3486 35.8145 33.2279 36.0187C33.1071 36.2228 32.9414 36.3967 32.7434 36.5272C32.2441 36.9173 31.6519 37.1706 31.0249 37.2623C30.8549 37.2842 30.6835 37.2952 30.512 37.2952C30.3446 37.2951 30.1773 37.2837 30.0115 37.2609ZM25.7779 33.0259C24.6663 32.9261 23.6302 32.4215 22.8663 31.6079C22.2991 30.9424 21.9913 30.0945 21.9996 29.2202C21.9479 28.3829 22.2095 27.5563 22.7333 26.9011C23.0986 26.5237 23.3819 26.0749 23.5655 25.5829C23.7491 25.0908 23.829 24.5661 23.8003 24.0417V23.6138C23.7316 22.2074 24.1909 20.8261 25.088 19.7409C25.7514 18.9547 26.5777 18.3221 27.5098 17.8869C28.4418 17.4516 29.4573 17.2242 30.486 17.2202H30.5765C31.6294 17.2229 32.6683 17.4609 33.6175 17.9167C34.5666 18.3725 35.4018 19.0347 36.0622 19.8547C36.9078 20.9192 37.3346 22.2563 37.2622 23.6138V24.0417C37.2387 24.5654 37.3209 25.0886 37.504 25.5799C37.6871 26.0711 37.9672 26.5205 38.3278 26.9011C38.852 27.5561 39.1136 28.3829 39.0615 29.2202C39.0698 30.0945 38.762 30.9424 38.1948 31.6079C37.431 32.4209 36.3956 32.9254 35.2846 33.0259C33.7075 33.1631 32.1303 33.2728 30.5299 33.2728C28.9425 33.2807 27.3559 33.1983 25.7779 33.0259Z" fill="#F3B755"/>
<defs>
<filter id="filter0_d_344_16966" x="0" y="0" width="60" height="60" filterUnits="userSpaceOnUse" color-interpolation-filters="sRGB">
<feFlood flood-opacity="0" result="BackgroundImageFix"/>
<feColorMatrix in="SourceAlpha" type="matrix" values="0 0 0 0 0 0 0 0 0 0 0 0 0 0 0 0 0 0 127 0" result="hardAlpha"/>
<feOffset dy="3"/>
<feGaussianBlur stdDeviation="3"/>
<feColorMatrix type="matrix" values="0 0 0 0 0 0 0 0 0 0 0 0 0 0 0 0 0 0 0.129 0"/>
<feBlend mode="normal" in2="BackgroundImageFix" result="effect1_dropShadow_344_16966"/>
<feBlend mode="normal" in="SourceGraphic" in2="effect1_dropShadow_344_16966" result="shape"/>
</filter>
</defs>
</svg>
