<svg width="420" height="283" viewBox="0 0 420 283" fill="none" xmlns="http://www.w3.org/2000/svg">
<path d="M51.1007 282.65C43.4058 282.632 35.8754 280.421 29.3931 276.277C22.9107 272.132 17.7448 266.225 14.5019 259.249C7.36364 243.919 2.73087 227.544 0.779066 210.747C-2.12068 185.6 2.85781 158.472 19.3662 140.166C22.719 137.394 25.2959 133.802 26.8449 129.738C28.3939 125.674 28.862 121.278 28.2041 116.979C29.8757 69.6231 66.1123 27.7266 109.506 16.4848C152.9 5.24305 200.451 22.261 232.686 55.0573C252.327 48.9075 273.195 47.7618 293.391 51.7242C313.588 55.6866 332.473 64.6315 348.332 77.7461C354.114 82.4335 359.31 87.8011 363.806 93.7325C384.14 121.181 397.601 160.263 395.98 194.058C395.271 208.787 390.289 283 359.647 283L51.1007 282.65Z" fill="#DFDFDF"/>
<path d="M52.6535 35.5885H34.2773V45.4096H52.6535V35.5885Z" fill="white"/>
<path d="M74.187 45.4121L65.1045 45.6683C63.5676 45.7106 62.024 45.7438 60.473 45.7679C58.922 45.7921 57.3676 45.8132 55.8106 45.8313H55.3944V45.4089C55.3944 43.7741 55.3553 42.1333 55.3553 40.4984L55.3398 35.5879V35.1144H55.8143C58.8739 35.1144 61.9424 35.1142 65.0021 35.1595L69.5975 35.2108L74.1929 35.2922H74.4949V35.594C74.4617 37.265 74.416 38.933 74.3557 40.5678L74.187 45.4121ZM74.187 45.4121L74.033 40.438C73.9727 38.8032 73.9248 37.1925 73.8916 35.5908L74.1929 35.8926L69.5975 35.9739L65.0021 36.0253C61.9424 36.0615 58.8739 36.0584 55.8143 36.0704L56.285 35.6V40.5106C56.285 42.1454 56.2602 43.7832 56.2482 45.4211L55.8261 45.0017C57.3328 45.0118 58.8415 45.0331 60.3522 45.0652C61.8629 45.0974 63.3817 45.1295 64.9085 45.1617L74.187 45.4121Z" fill="white"/>
<path d="M84.88 48.028H66.5039V57.8491H84.88V48.028Z" fill="white"/>
<path d="M23.1278 114.575H41.5039V104.754H23.1278V114.575Z" fill="white"/>
<path d="M12.9654 117.195L21.6132 116.938C23.0757 116.896 24.5485 116.864 26.0311 116.842C27.5136 116.82 28.9939 116.798 30.4725 116.776H30.8858V117.198C30.8858 118.833 30.9255 120.473 30.9255 122.108L30.9403 127.019V127.492H30.4666L26.0915 127.477C24.634 127.477 23.1738 127.459 21.7163 127.444L17.3405 127.393L12.9654 127.312H12.6641V127.01C12.6973 125.339 12.7422 123.671 12.8026 122.036L12.9654 117.195ZM12.9654 117.195L13.1223 122.169C13.1796 123.803 13.2283 125.414 13.2615 127.016L12.9595 126.714L17.3346 126.633L21.7097 126.581C23.1671 126.581 24.6311 126.551 26.0885 126.548L30.4636 126.533L29.9929 127.004L30.0076 122.093C30.0076 120.458 30.0323 118.818 30.0474 117.183L30.4666 117.602C29.0303 117.602 27.5971 117.566 26.1578 117.535C24.7185 117.505 23.2762 117.478 21.8187 117.439L12.9654 117.195Z" fill="white"/>
<path d="M2.25371 114.575H19.7578V104.754H2.25371V114.575Z" fill="white"/>
<path d="M315.347 36.899H333.723V27.0779H315.347V36.899Z" fill="white"/>
<path d="M274.128 27.0764L283.211 26.8201C284.746 26.7779 286.289 26.7456 287.842 26.7235C289.395 26.7014 290.95 26.6803 292.507 26.6602H292.924V27.0825C292.924 28.7173 292.96 30.3582 292.96 31.993V36.9035V37.3772H292.486C289.424 37.3772 286.357 37.3772 283.298 37.3319L278.702 37.2776L274.11 37.1963H273.809V36.8945C273.842 35.2235 273.887 33.5555 273.95 31.9207L274.128 27.0764ZM274.128 27.0764L274.285 32.0503C274.343 33.6851 274.391 35.293 274.424 36.8976L274.122 36.5959L278.715 36.5145L283.31 36.4632C286.373 36.427 289.435 36.4299 292.498 36.4179L292.027 36.8884L292.043 31.9779C292.043 30.3431 292.067 28.7022 292.082 27.0674L292.501 27.4866C290.994 27.4765 289.486 27.4554 287.975 27.4233C286.466 27.3961 284.957 27.3661 283.419 27.3238L274.128 27.0764Z" fill="white"/>
<path d="M263.425 24.4598L281.801 24.4598V14.6387L263.425 14.6387V24.4598Z" fill="white"/>
<path d="M141.651 86.667L150.733 86.4105C152.266 86.3683 153.814 86.3383 155.365 86.3111C156.916 86.284 158.47 86.2599 160.027 86.2478H160.443V86.6699C160.443 88.3048 160.48 89.9458 160.48 91.5807V96.4912V96.9647H160.009C156.946 96.9647 153.884 96.9646 150.821 96.9194L146.226 96.8682L141.629 96.7867H141.328V96.4851C141.361 94.8141 141.406 93.1461 141.467 91.5113L141.651 86.667ZM141.651 86.667L141.805 91.6409C141.865 93.2787 141.91 94.8864 141.943 96.4881L141.642 96.1865L146.237 96.1051L150.833 96.0508C153.895 96.0146 156.962 96.0176 160.021 96.0055L159.547 96.4761V91.5656C159.547 89.9307 159.572 88.2899 159.584 86.655L160.006 87.0742C158.499 87.0642 156.99 87.0431 155.48 87.0109C153.969 86.9787 152.45 86.9466 150.923 86.9144L141.651 86.667Z" fill="white"/>
<path d="M119.909 96.4926H138.285V86.6714H119.909V96.4926Z" fill="white"/>
<path d="M192.35 47.8628C205.572 47.8628 216.291 37.1484 216.291 23.9314C216.291 10.7145 205.572 0 192.35 0C179.129 0 168.41 10.7145 168.41 23.9314C168.41 37.1484 179.129 47.8628 192.35 47.8628Z" fill="white"/>
<path d="M192.352 45.1555C204.077 45.1555 213.582 35.6537 213.582 23.9327C213.582 12.2117 204.077 2.70996 192.352 2.70996C180.626 2.70996 171.121 12.2117 171.121 23.9327C171.121 35.6537 180.626 45.1555 192.352 45.1555Z" fill="#DFDFDF"/>
<path d="M202.839 24.4286H191.867V8.81018H192.86V23.4392H202.841L202.839 24.4286Z" fill="white"/>
<path d="M361.286 98.2304C361.031 98.2282 360.782 98.1527 360.568 98.0132C360.354 97.8737 360.185 97.676 360.08 97.4432L358.447 93.8234C358.235 93.3493 357.893 92.9446 357.462 92.6555C357.03 92.3664 356.525 92.2045 356.006 92.1886L249.778 88.6082C249.197 88.5901 248.621 88.7226 248.106 88.9926C247.591 89.2627 247.154 89.6612 246.839 90.1495L243.453 95.4222C243.256 95.7073 242.956 95.9049 242.617 95.9734C242.277 96.0419 241.924 95.9758 241.632 95.7893C241.341 95.6027 241.132 95.3102 241.052 94.9733C240.972 94.6364 241.026 94.2813 241.202 93.9832L244.584 88.7109C245.151 87.8345 245.935 87.119 246.86 86.6339C247.784 86.1488 248.818 85.9107 249.862 85.9421L356.091 89.5254C357.109 89.5574 358.098 89.8749 358.944 90.4419C359.79 91.0088 360.459 91.8024 360.876 92.7317L362.509 96.3511C362.653 96.674 362.664 97.041 362.539 97.3718C362.413 97.7026 362.161 97.97 361.839 98.1156C361.666 98.1949 361.477 98.2344 361.286 98.2304Z" fill="#CE9840"/>
<path d="M162.893 131.169L220.293 95.0067C223.416 93.0386 227.045 92.0238 230.737 92.0869L372.049 94.4636C374.648 94.5074 377.21 95.0841 379.577 96.1581C381.944 97.2321 384.065 98.7808 385.809 100.708L415.627 133.652C418.442 136.759 420 140.801 419.999 144.993V188.428C419.999 190.961 419.43 193.462 418.334 195.745C416.956 198.619 414.793 201.045 412.095 202.742C409.397 204.439 406.274 205.339 403.087 205.337H81.3622C79.0301 205.337 76.7479 204.662 74.791 203.394C72.8341 202.126 71.286 200.319 70.3334 198.192L65.7019 187.84C65.0078 186.288 64.6486 184.608 64.6484 182.908V166.364C64.6491 163.218 65.8767 160.197 68.0703 157.942L80.5658 145.105C82.4429 143.177 84.9096 141.931 87.5753 141.563L162.893 131.169Z" fill="#F3B755"/>
<mask id="mask0_344_18792" style="mask-type:luminance" maskUnits="userSpaceOnUse" x="64" y="92" width="356" height="114">
<path d="M162.889 131.169L220.29 95.0061C223.412 93.038 227.042 92.0232 230.733 92.0863L372.045 94.463C374.644 94.5068 377.206 95.0835 379.573 96.1575C381.94 97.2315 384.061 98.7801 385.805 100.707L415.623 133.651C418.438 136.758 419.996 140.8 419.995 144.992V188.427C419.995 190.96 419.426 193.461 418.33 195.745C416.952 198.618 414.789 201.044 412.091 202.741C409.393 204.439 406.27 205.338 403.083 205.337H81.3583C79.0262 205.336 76.744 204.661 74.7871 203.393C72.8302 202.125 71.2821 200.319 70.3295 198.191L65.698 187.839C65.0039 186.287 64.6447 184.607 64.6445 182.907V166.363C64.6451 163.218 65.8728 160.196 68.0664 157.941L80.5619 145.104C82.439 143.177 84.9057 141.93 87.5714 141.563L162.889 131.169Z" fill="white"/>
</mask>
<g mask="url(#mask0_344_18792)">
<path d="M64.6445 193.902H424.114V209.647H64.6445V193.902Z" fill="#CE9840"/>
</g>
<mask id="mask1_344_18792" style="mask-type:luminance" maskUnits="userSpaceOnUse" x="64" y="92" width="356" height="114">
<path d="M162.889 131.169L220.29 95.0061C223.412 93.038 227.042 92.0232 230.733 92.0863L372.045 94.463C374.644 94.5068 377.206 95.0835 379.573 96.1575C381.94 97.2315 384.061 98.7801 385.805 100.707L415.623 133.651C418.438 136.758 419.996 140.8 419.995 144.992V188.427C419.995 190.96 419.426 193.461 418.33 195.745C416.952 198.618 414.789 201.044 412.091 202.741C409.393 204.439 406.27 205.338 403.083 205.337H81.3583C79.0262 205.336 76.744 204.661 74.7871 203.393C72.8302 202.125 71.2821 200.319 70.3295 198.191L65.698 187.839C65.0039 186.287 64.6447 184.607 64.6445 182.907V166.363C64.6451 163.218 65.8728 160.196 68.0664 157.941L80.5619 145.104C82.439 143.177 84.9057 141.93 87.5714 141.563L162.889 131.169Z" fill="white"/>
</mask>
<g mask="url(#mask1_344_18792)">
<path d="M87.3102 156.221H65.5664V144.33H96.2269V147.301C96.2277 148.472 95.9976 149.632 95.5499 150.714C95.1021 151.796 94.4449 152.78 93.6168 153.608C92.7888 154.436 91.8061 155.093 90.7239 155.541C89.6417 155.99 88.4816 156.221 87.3102 156.221Z" fill="#FBE6C4"/>
</g>
<mask id="mask2_344_18792" style="mask-type:luminance" maskUnits="userSpaceOnUse" x="64" y="92" width="356" height="114">
<path d="M162.889 131.169L220.29 95.0061C223.412 93.038 227.042 92.0232 230.733 92.0863L372.045 94.463C374.644 94.5068 377.206 95.0835 379.573 96.1575C381.94 97.2315 384.061 98.7801 385.805 100.707L415.623 133.651C418.438 136.758 419.996 140.8 419.995 144.992V188.427C419.995 190.96 419.426 193.461 418.33 195.745C416.952 198.618 414.789 201.044 412.091 202.741C409.393 204.439 406.27 205.338 403.083 205.337H81.3583C79.0262 205.336 76.744 204.661 74.7871 203.393C72.8302 202.125 71.2821 200.319 70.3295 198.191L65.698 187.839C65.0039 186.287 64.6447 184.607 64.6445 182.907V166.363C64.6451 163.218 65.8728 160.196 68.0664 157.941L80.5619 145.104C82.439 143.177 84.9057 141.93 87.5714 141.563L162.889 131.169Z" fill="white"/>
</mask>
<g mask="url(#mask2_344_18792)">
<path d="M69.0074 185.304C68.4544 185.304 67.9236 185.085 67.5326 184.694C67.1416 184.303 66.9219 183.773 66.9219 183.22V167.991C66.9219 167.438 67.1416 166.908 67.5326 166.517C67.9236 166.126 68.4544 165.906 69.0074 165.906C69.5604 165.906 70.0905 166.126 70.4815 166.517C70.8725 166.908 71.0922 167.438 71.0922 167.991V183.22C71.0914 183.773 70.8716 184.302 70.4808 184.693C70.0899 185.084 69.5601 185.304 69.0074 185.304Z" fill="#E8993C"/>
</g>
<mask id="mask3_344_18792" style="mask-type:luminance" maskUnits="userSpaceOnUse" x="64" y="92" width="356" height="114">
<path d="M162.889 131.169L220.29 95.0061C223.412 93.038 227.042 92.0232 230.733 92.0863L372.045 94.463C374.644 94.5068 377.206 95.0835 379.573 96.1575C381.94 97.2315 384.061 98.7801 385.805 100.707L415.623 133.651C418.438 136.758 419.996 140.8 419.995 144.992V188.427C419.995 190.96 419.426 193.461 418.33 195.745C416.952 198.618 414.789 201.044 412.091 202.741C409.393 204.439 406.27 205.338 403.083 205.337H81.3583C79.0262 205.336 76.744 204.661 74.7871 203.393C72.8302 202.125 71.2821 200.319 70.3295 198.191L65.698 187.839C65.0039 186.287 64.6447 184.607 64.6445 182.907V166.363C64.6451 163.218 65.8728 160.196 68.0664 157.941L80.5619 145.104C82.439 143.177 84.9057 141.93 87.5714 141.563L162.889 131.169Z" fill="white"/>
</mask>
<g mask="url(#mask3_344_18792)">
<path d="M428.661 160.515H402.204C400.124 160.515 398.128 159.688 396.657 158.217C395.186 156.747 394.359 154.752 394.359 152.672V147.448C394.359 145.368 395.186 143.373 396.657 141.902C398.128 140.432 400.124 139.606 402.204 139.606H428.661V160.515Z" fill="#FBE6C4"/>
</g>
<path d="M95.2877 181.295C99.3388 177.245 104.5 174.487 110.119 173.37C115.739 172.253 121.563 172.826 126.856 175.018C132.149 177.21 136.673 180.921 139.856 185.683C143.039 190.445 144.738 196.043 144.738 201.77C144.738 207.497 143.039 213.096 139.856 217.858C136.673 222.62 132.149 226.331 126.856 228.523C121.563 230.714 115.739 231.288 110.119 230.171C104.5 229.053 99.3388 226.295 95.2877 222.246C89.8552 216.815 86.8033 209.45 86.8033 201.77C86.8033 194.091 89.8552 186.725 95.2877 181.295Z" fill="black" fill-opacity="0.7"/>
<path d="M128.246 214.569C135.127 207.691 135.127 196.539 128.246 189.661C121.366 182.783 110.21 182.783 103.329 189.661C96.4489 196.539 96.4489 207.691 103.329 214.569C110.21 221.447 121.366 221.447 128.246 214.569Z" fill="white"/>
<path d="M116.734 194.964H114.784L113.879 187.227H117.666L116.734 194.964Z" fill="#2D395F"/>
<path d="M114.773 208.574H116.722L117.626 216.311H113.867L114.773 208.574Z" fill="#2D395F"/>
<path d="M122.578 202.746V200.794L130.315 199.89V203.675L122.578 202.746Z" fill="#2D395F"/>
<path d="M108.955 200.795V202.747L101.219 203.652V199.866L108.955 200.795Z" fill="#2D395F"/>
<path d="M121.266 197.645L119.891 196.266L124.718 190.146L127.398 192.825L121.266 197.645Z" fill="#2D395F"/>
<path d="M110.261 205.891L111.64 207.269L106.812 213.389L104.133 210.71L110.261 205.891Z" fill="#2D395F"/>
<path d="M119.902 207.269L121.278 205.891L127.4 210.717L124.721 213.395L119.902 207.269Z" fill="#2D395F"/>
<path d="M111.645 196.267L110.266 197.645L104.145 192.819L106.824 190.141L111.645 196.267Z" fill="#2D395F"/>
<path d="M344.924 181.297C348.976 177.247 354.137 174.489 359.756 173.372C365.375 172.255 371.2 172.828 376.493 175.02C381.786 177.212 386.31 180.923 389.493 185.685C392.676 190.447 394.375 196.045 394.375 201.772C394.375 207.499 392.676 213.098 389.493 217.86C386.31 222.622 381.786 226.333 376.493 228.525C371.2 230.716 365.375 231.29 359.756 230.173C354.137 229.055 348.976 226.297 344.924 222.248C339.492 216.817 336.44 209.452 336.44 201.772C336.44 194.093 339.492 186.727 344.924 181.297Z" fill="black" fill-opacity="0.7"/>
<path d="M377.883 214.571C384.763 207.693 384.763 196.541 377.883 189.663C371.002 182.785 359.847 182.785 352.966 189.663C346.086 196.541 346.086 207.693 352.966 214.571C359.847 221.449 371.002 221.449 377.883 214.571Z" fill="white"/>
<path d="M366.397 194.967H364.444L363.539 187.23H367.326L366.397 194.967Z" fill="#2D395F"/>
<path d="M364.445 208.577H366.398L367.303 216.314H363.516L364.445 208.577Z" fill="#2D395F"/>
<path d="M372.227 202.749V200.797L379.964 199.892V203.678L372.227 202.749Z" fill="#2D395F"/>
<path d="M358.607 200.798V202.75L350.867 203.655V199.869L358.607 200.798Z" fill="#2D395F"/>
<path d="M370.918 197.648L369.539 196.269L374.367 190.149L377.047 192.828L370.918 197.648Z" fill="#2D395F"/>
<path d="M359.91 205.893L361.288 207.272L356.461 213.392L353.781 210.713L359.91 205.893Z" fill="#2D395F"/>
<path d="M369.539 207.272L370.918 205.893L377.04 210.719L374.361 213.398L369.539 207.272Z" fill="#2D395F"/>
<path d="M361.294 196.27L359.915 197.648L353.793 192.822L356.472 190.143L361.294 196.27Z" fill="#2D395F"/>
<path d="M292.688 130.812H404.031L378.543 102.974C377.331 101.652 375.863 100.59 374.228 99.8528C372.593 99.1154 370.825 98.7182 369.032 98.6852L292.691 97.2794L292.688 130.812Z" fill="#FBE6C4"/>
<path d="M188.932 119.443L170.27 130.814H191.591L188.932 119.443Z" fill="#FBE6C4"/>
<path d="M192.962 130.812H282.631L287.037 97.1738L231.123 96.145C228.614 96.0979 226.142 96.7666 223.999 98.0726L190.129 118.707L192.962 130.812Z" fill="#FBE6C4"/>
<path d="M151.835 148.714C150.97 148.713 150.139 148.368 149.527 147.757C148.915 147.145 148.571 146.315 148.57 145.45C148.571 144.584 148.915 143.755 149.527 143.143C150.139 142.531 150.97 142.187 151.835 142.186C152.701 142.187 153.53 142.531 154.143 143.143C154.755 143.755 155.099 144.584 155.1 145.45C155.1 146.315 154.756 147.145 154.144 147.757C153.532 148.369 152.701 148.714 151.835 148.714Z" fill="#FBE6C4"/>
<path opacity="0.5" d="M81.1055 189.9C81.1055 189.9 90.1583 165.139 117.668 165.402C145.178 165.664 151.84 191.586 151.84 191.586C151.84 191.586 149.565 160.736 117.668 159.439C85.771 158.142 81.1055 189.9 81.1055 189.9Z" fill="#FBE6C4"/>
<path opacity="0.5" d="M328.156 189.9C328.156 189.9 337.209 165.139 364.719 165.402C392.229 165.664 398.891 191.586 398.891 191.586C398.891 191.586 396.616 160.736 364.719 159.439C332.822 158.142 328.156 189.9 328.156 189.9Z" fill="#FBE6C4"/>
<path d="M415.03 156.386H413.916C413.56 156.386 413.219 156.244 412.968 155.992C412.716 155.741 412.574 155.399 412.574 155.043V144.7C412.575 144.345 412.716 144.003 412.968 143.752C413.219 143.5 413.561 143.359 413.916 143.358H415.03C415.386 143.358 415.727 143.499 415.979 143.751C416.231 144.003 416.373 144.344 416.373 144.7V155.043C416.373 155.22 416.338 155.394 416.271 155.557C416.204 155.72 416.105 155.868 415.981 155.993C415.856 156.118 415.708 156.217 415.544 156.284C415.381 156.351 415.207 156.386 415.03 156.386Z" fill="#CE9840"/>
<path opacity="0.5" d="M153.145 172.82H330.636L322.73 190.149H157.496L153.145 172.82Z" fill="#FBE6C4"/>
<path opacity="0.5" d="M166.512 132.731H405.984L394.372 136.534H174.779L166.512 132.731Z" fill="#FBE6C4"/>
<path d="M267.036 184.837H173.924C172.868 184.836 171.856 184.416 171.11 183.67C170.363 182.925 169.943 181.913 169.941 180.858V130.811C169.941 130.723 169.977 130.637 170.039 130.575C170.102 130.512 170.187 130.477 170.276 130.477C170.365 130.477 170.45 130.512 170.513 130.575C170.576 130.637 170.611 130.723 170.611 130.811V180.858C170.611 181.738 170.961 182.582 171.583 183.204C172.206 183.827 173.05 184.176 173.931 184.176H267.042C268.727 184.176 270.364 183.617 271.696 182.585C273.027 181.554 273.978 180.109 274.398 178.478L286.719 130.763L289.293 97.2578C289.304 97.173 289.347 97.0959 289.413 97.042C289.48 96.9882 289.565 96.9618 289.65 96.9684C289.735 96.975 289.815 97.014 289.872 97.0774C289.93 97.1408 289.961 97.2234 289.959 97.309L287.382 130.872V130.902L275.053 178.647C274.593 180.421 273.555 181.992 272.104 183.113C270.652 184.233 268.87 184.84 267.036 184.837Z" fill="#E8993C"/>
<path d="M278.418 138.906H264.068L262.785 134.171H279.903L278.418 138.906Z" fill="#E8993C"/>
<path d="M194.454 135.216L192.158 135.94C191.983 135.995 191.8 136.016 191.618 136C191.436 135.985 191.259 135.934 191.097 135.85C190.934 135.766 190.79 135.65 190.672 135.51C190.555 135.371 190.465 135.209 190.41 135.035L185.341 118.964C185.231 118.613 185.264 118.233 185.434 117.906C185.604 117.579 185.896 117.333 186.246 117.221L188.546 116.497C188.897 116.386 189.279 116.419 189.606 116.589C189.934 116.758 190.181 117.051 190.293 117.402L195.362 133.473C195.473 133.824 195.44 134.206 195.269 134.533C195.099 134.859 194.805 135.105 194.454 135.216Z" fill="#E8993C"/>
<path d="M318.332 209.644H173.496C173.213 209.644 172.934 209.588 172.673 209.48C172.412 209.372 172.175 209.213 171.975 209.014C171.776 208.814 171.618 208.577 171.51 208.316C171.402 208.055 171.347 207.775 171.348 207.493C171.348 206.923 171.574 206.377 171.977 205.973C172.38 205.57 172.926 205.343 173.496 205.342H318.332C318.615 205.342 318.895 205.397 319.156 205.505C319.417 205.613 319.654 205.772 319.854 205.972C320.054 206.171 320.213 206.409 320.321 206.67C320.429 206.931 320.484 207.21 320.483 207.493C320.484 207.775 320.429 208.056 320.321 208.317C320.213 208.578 320.054 208.815 319.854 209.015C319.654 209.215 319.417 209.373 319.156 209.481C318.895 209.589 318.615 209.644 318.332 209.644Z" fill="#CE9840"/>
<path d="M318.332 260.488H173.496C172.926 260.488 172.38 260.262 171.977 259.859C171.574 259.457 171.348 258.91 171.348 258.341C171.347 258.058 171.402 257.779 171.51 257.518C171.618 257.257 171.776 257.02 171.975 256.82C172.175 256.621 172.412 256.462 172.673 256.354C172.934 256.246 173.213 256.19 173.496 256.19H318.332C318.615 256.19 318.895 256.245 319.156 256.353C319.417 256.461 319.654 256.619 319.854 256.819C320.054 257.019 320.213 257.256 320.321 257.517C320.429 257.778 320.484 258.058 320.483 258.341C320.483 258.623 320.428 258.902 320.32 259.163C320.212 259.424 320.053 259.661 319.854 259.861C319.654 260.06 319.416 260.218 319.155 260.326C318.894 260.433 318.615 260.489 318.332 260.488Z" fill="#CE9840"/>
<path d="M279.814 208.992L277.948 206.556L245.259 231.588L247.124 234.024L279.814 208.992Z" fill="#CE9840"/>
<path d="M245.919 234.012L247.785 231.576L215.092 206.551L213.226 208.986L245.919 234.012Z" fill="#CE9840"/>
<path d="M212.001 257.899L213.867 260.335L246.561 235.309L244.695 232.873L212.001 257.899Z" fill="#CE9840"/>
<path d="M245.905 232.882L244.039 235.318L276.733 260.343L278.598 257.908L245.905 232.882Z" fill="#CE9840"/>
<path d="M249.831 242.086C254.899 239.987 257.306 234.179 255.207 229.112C253.107 224.046 247.296 221.64 242.228 223.738C237.16 225.837 234.753 231.645 236.852 236.712C238.952 241.779 244.762 244.185 249.831 242.086Z" fill="#F3B755"/>
<path d="M246.006 239.138C244.775 239.138 243.571 238.773 242.548 238.089C241.524 237.406 240.726 236.434 240.255 235.297C239.784 234.16 239.661 232.908 239.901 231.701C240.141 230.494 240.734 229.386 241.605 228.515C242.475 227.645 243.585 227.053 244.792 226.812C246 226.572 247.251 226.696 248.389 227.167C249.526 227.638 250.498 228.435 251.182 229.458C251.866 230.482 252.231 231.685 252.231 232.915C252.23 234.565 251.574 236.147 250.407 237.314C249.24 238.481 247.657 239.136 246.006 239.138ZM246.006 226.943C244.824 226.943 243.668 227.293 242.685 227.949C241.701 228.605 240.934 229.538 240.481 230.63C240.029 231.722 239.91 232.924 240.141 234.083C240.372 235.243 240.94 236.308 241.776 237.144C242.613 237.98 243.678 238.549 244.838 238.779C245.998 239.009 247.2 238.891 248.292 238.438C249.385 237.986 250.318 237.219 250.975 236.236C251.631 235.253 251.981 234.097 251.981 232.915C251.978 231.332 251.348 229.815 250.228 228.695C249.108 227.576 247.59 226.946 246.006 226.943Z" fill="white"/>
<path d="M102.667 250.912H58.9146C58.3385 250.912 57.7854 250.683 57.3779 250.276C56.9705 249.869 56.7422 249.316 56.7422 248.74V237.04C56.7422 236.464 56.9705 235.912 57.3779 235.504C57.7854 235.097 58.3385 234.868 58.9146 234.868H102.667C103.244 234.868 103.796 235.097 104.203 235.504C104.611 235.912 104.84 236.464 104.84 237.04V248.74C104.84 249.316 104.611 249.869 104.203 250.276C103.796 250.683 103.244 250.912 102.667 250.912Z" fill="#2D395F"/>
<path d="M104.837 237.764H56.7422V239.263H104.837V237.764Z" fill="#57617F"/>
<path d="M104.837 245.955H56.7422V247.455H104.837V245.955Z" fill="#57617F"/>
<path d="M106.476 266.957H62.7232C62.147 266.957 61.5947 266.728 61.1873 266.321C60.7798 265.913 60.5508 265.361 60.5508 264.785V253.085C60.5508 252.509 60.7798 251.956 61.1873 251.549C61.5947 251.142 62.147 250.913 62.7232 250.913H106.476C107.052 250.913 107.605 251.142 108.013 251.549C108.42 251.956 108.648 252.509 108.648 253.085V264.785C108.648 265.361 108.42 265.913 108.013 266.321C107.605 266.728 107.052 266.957 106.476 266.957Z" fill="#171D30"/>
<path d="M108.646 253.805H60.5508V255.305H108.646V253.805Z" fill="#57617F"/>
<path d="M108.646 262H60.5508V263.5H108.646V262Z" fill="#57617F"/>
<path d="M99.4994 282.993H55.7467C55.1705 282.993 54.6181 282.765 54.2107 282.357C53.8033 281.95 53.5742 281.397 53.5742 280.821V269.121C53.5742 268.545 53.8033 267.993 54.2107 267.586C54.6181 267.178 55.1705 266.949 55.7467 266.949H99.4994C100.076 266.949 100.628 267.178 101.035 267.586C101.443 267.993 101.672 268.545 101.672 269.121V280.821C101.672 281.397 101.443 281.95 101.035 282.357C100.628 282.765 100.076 282.993 99.4994 282.993Z" fill="#222B47"/>
<path d="M101.669 269.845H53.5742V271.344H101.669V269.845Z" fill="#57617F"/>
<path d="M101.669 278.04H53.5742V279.539H101.669V278.04Z" fill="#57617F"/>
<path d="M161.989 267.101V272.928L153.347 276.246C152.362 276.624 151.515 277.292 150.917 278.161C150.32 279.03 150 280.06 150 281.114H170.847V267.104L161.989 267.101Z" fill="#2D395F"/>
<path d="M155.017 275.629L154.629 275.781L155.393 277.737L155.781 277.585L155.017 275.629Z" fill="#74A0DD"/>
<path d="M156.642 274.984L156.254 275.136L157.018 277.092L157.406 276.94L156.642 274.984Z" fill="#74A0DD"/>
<path d="M158.353 274.313L157.965 274.464L158.729 276.42L159.117 276.269L158.353 274.313Z" fill="#74A0DD"/>
<path d="M160.216 273.588L159.828 273.739L160.592 275.695L160.98 275.544L160.216 273.588Z" fill="#74A0DD"/>
<path d="M170.85 281.11H150V282.078H170.85V281.11Z" fill="#74A0DD"/>
<path d="M230.556 265.577L233.803 270.666L226.561 276.424C225.734 277.08 225.127 277.971 224.818 278.98C224.509 279.989 224.514 281.067 224.832 282.073L244.714 275.809L237.406 263.423L230.556 265.577Z" fill="#4E9C0B"/>
<path d="M228.145 275.225L227.82 275.486L229.137 277.122L229.462 276.861L228.145 275.225Z" fill="#4E9C0B"/>
<path d="M229.465 274.153L229.141 274.414L230.458 276.049L230.782 275.788L229.465 274.153Z" fill="#4E9C0B"/>
<path d="M230.832 273.039L230.508 273.3L231.825 274.936L232.149 274.675L230.832 273.039Z" fill="#4E9C0B"/>
<path d="M232.457 271.755L232.133 272.016L233.45 273.652L233.774 273.391L232.457 271.755Z" fill="#4E9C0B"/>
<path d="M244.699 275.793L224.812 282.061L225.104 282.984L244.99 276.717L244.699 275.793Z" fill="#4E9C0B"/>
<path d="M191.591 172.823L240.501 262.443L226.841 266.748L168.414 182.068L191.591 172.823Z" fill="#4E9C0B"/>
<path d="M162.15 181.812L164.039 190.161L159.535 215.932C158.72 220.585 158.426 225.315 158.659 230.033L160.47 267.11H172.669L175.343 223.313L191.586 172.829L162.15 181.812Z" fill="#4E9C0B"/>
<path d="M161.021 177.9L159.232 180.44C158.568 181.356 157.671 182.078 156.634 182.53L141.776 188.997L138.629 183.969L150.008 177.146C151.27 176.388 152.359 175.372 153.203 174.166L157.816 166.8L161.021 177.9Z" fill="#F2A392"/>
<path d="M145.638 132.161C145.106 132.361 144.522 132.38 143.977 132.217C143.432 132.054 142.956 131.716 142.621 131.256C142.586 131.584 142.628 131.915 142.743 132.223C142.859 132.532 143.046 132.809 143.288 133.033C142.291 132.815 141.384 132.302 140.684 131.56C140.684 131.56 141.121 136.851 146.058 135.424L146.803 132.206L145.638 132.161Z" fill="black" fill-opacity="0.7"/>
<path d="M149.608 128.057C146.642 128.732 145.332 131.073 145.259 134.572L144.562 138.101L146.071 138.158L146.14 138.46C146.504 139.907 147.421 141.154 148.694 141.934C149.967 142.714 151.494 142.965 152.95 142.632C154.405 142.3 155.672 141.41 156.479 140.155C157.286 138.9 157.57 137.379 157.269 135.917L156.451 132.346C156.285 131.614 155.976 130.923 155.542 130.311C155.108 129.699 154.556 129.179 153.921 128.78C153.285 128.382 152.577 128.113 151.836 127.989C151.096 127.864 150.339 127.888 149.608 128.057Z" fill="#F2A392"/>
<path d="M159.624 146.561C159.273 146.747 158.888 146.862 158.492 146.899C158.096 146.935 157.697 146.894 157.317 146.776C156.938 146.659 156.585 146.467 156.28 146.213C155.975 145.958 155.722 145.646 155.538 145.294L151.211 137.078L156.561 134.264L160.888 142.48C161.074 142.831 161.188 143.215 161.225 143.61C161.262 144.005 161.22 144.404 161.103 144.783C160.986 145.162 160.794 145.514 160.54 145.819C160.286 146.124 159.975 146.376 159.624 146.561Z" fill="#F2A392"/>
<path d="M144.645 132.449L156.536 131.327C156.419 129.92 155.777 128.609 154.738 127.653C153.699 126.697 152.339 126.167 150.927 126.166C145.77 126.136 144.645 132.449 144.645 132.449Z" fill="#4E9C0B"/>
<path d="M149.488 131.99L151.127 134.458C151.278 134.689 151.49 134.874 151.74 134.992C151.989 135.111 152.267 135.158 152.542 135.13L153.513 135.037L155.782 136.886C155.985 137.051 156.221 137.17 156.474 137.233C156.728 137.296 156.992 137.302 157.248 137.251L158.048 137.091C158.285 136.08 158.271 135.027 158.008 134.023C157.745 133.019 157.241 132.095 156.54 131.33L149.488 131.99Z" fill="black" fill-opacity="0.7"/>
<path d="M154.714 134.567C154.814 134.758 154.856 134.975 154.834 135.19C154.811 135.406 154.725 135.61 154.586 135.776C154.448 135.943 154.263 136.064 154.056 136.126C153.848 136.188 153.627 136.186 153.42 136.122C153.213 136.058 153.03 135.934 152.893 135.766C152.757 135.598 152.673 135.394 152.653 135.178C152.633 134.962 152.678 134.746 152.781 134.555C152.884 134.365 153.041 134.209 153.232 134.108C153.36 134.041 153.499 133.999 153.643 133.985C153.786 133.972 153.931 133.987 154.068 134.03C154.206 134.072 154.333 134.142 154.444 134.234C154.555 134.326 154.647 134.439 154.714 134.567Z" fill="#F2A392"/>
<path d="M155.97 129.548C155.919 129.424 162.464 129.681 161.402 130.402C159.528 130.997 157.582 131.33 155.617 131.389C155.855 131.154 156.015 130.852 156.078 130.523C156.141 130.195 156.104 129.855 155.97 129.548Z" fill="#4E9C0B"/>
<path d="M147.282 136.042C147.538 136.531 147.53 137.041 147.261 137.186C146.993 137.331 146.564 137.047 146.304 136.558C146.045 136.069 146.057 135.56 146.329 135.415C146.6 135.27 147.029 135.553 147.282 136.042Z" fill="#2D395F"/>
<path d="M146.938 135.82C147.034 136.004 147.031 136.197 146.938 136.248C146.844 136.3 146.676 136.197 146.579 136.013C146.483 135.829 146.486 135.636 146.579 135.584C146.673 135.533 146.841 135.636 146.938 135.82Z" fill="white"/>
<path d="M145.824 134.781L148.174 134.899C148.174 134.899 145.836 132.913 145.824 134.781Z" fill="#2D395F"/>
<path d="M150.001 138.963C150.281 139.265 150.061 139.944 149.5 140.448C148.938 140.952 148.254 141.102 147.973 140.789C147.693 140.475 147.913 139.808 148.474 139.304C149.035 138.8 149.717 138.649 150.001 138.963Z" fill="white"/>
<path d="M153.168 135.591C153.134 135.591 153.102 135.578 153.077 135.554C153.052 135.531 153.037 135.498 153.036 135.464C153.026 135.099 153.143 134.742 153.368 134.454C153.452 134.366 153.552 134.296 153.663 134.249C153.775 134.202 153.895 134.178 154.016 134.179C154.034 134.177 154.052 134.179 154.069 134.185C154.085 134.19 154.1 134.2 154.113 134.212C154.126 134.224 154.136 134.238 154.143 134.254C154.15 134.271 154.153 134.288 154.153 134.306C154.153 134.323 154.15 134.34 154.144 134.356C154.138 134.372 154.128 134.386 154.116 134.398C154.105 134.411 154.091 134.421 154.075 134.427C154.06 134.434 154.043 134.438 154.026 134.439C153.939 134.436 153.852 134.452 153.772 134.486C153.692 134.519 153.621 134.569 153.561 134.632C153.384 134.869 153.291 135.159 153.299 135.455C153.299 135.472 153.296 135.489 153.29 135.505C153.284 135.521 153.274 135.536 153.263 135.548C153.251 135.56 153.237 135.57 153.221 135.577C153.206 135.584 153.189 135.588 153.172 135.588L153.168 135.591Z" fill="#2D395F"/>
<path d="M162.154 181.806L152.637 148.871C152.478 148.324 152.431 147.751 152.499 147.185C152.567 146.62 152.749 146.074 153.034 145.58C153.319 145.087 153.7 144.656 154.155 144.314C154.611 143.972 155.131 143.725 155.685 143.59L160.573 142.383C162.536 141.89 164.587 141.856 166.565 142.285C168.544 142.714 170.397 143.594 171.979 144.857C178.397 150.011 188.575 159.92 191.592 172.836L162.154 181.806Z" fill="#515151"/>
<path d="M160.578 142.371C160.578 142.371 176.169 148.332 186.528 174.8L189.189 174.013C189.189 174.013 181.666 151.055 162.485 142.04L160.578 142.371Z" fill="#4E9C0B"/>
<path d="M153.152 145.453L142.555 160.053L153.843 169.385L164.821 155.477L153.152 145.453Z" fill="#515151"/>
<path d="M143.804 161.086L138.484 167.918C137.592 169.031 136.356 169.817 134.969 170.153L113.703 175.299L110.95 175.027C110.872 175.027 110.791 175.006 110.715 174.994L106.744 174.258L106.844 174.964C106.874 175.168 106.953 175.363 107.074 175.53C107.195 175.698 107.356 175.834 107.541 175.926L108.917 176.701L109.722 177.479C109.797 177.552 109.856 177.64 109.893 177.738C109.93 177.836 109.946 177.94 109.938 178.044C109.93 178.149 109.9 178.25 109.848 178.341C109.797 178.432 109.726 178.511 109.641 178.571L107.191 180.315L104.23 181.684C104.025 181.779 103.865 181.951 103.785 182.162C103.706 182.374 103.713 182.609 103.805 182.815L104.246 183.807C104.295 183.917 104.366 184.016 104.456 184.096C104.545 184.177 104.65 184.238 104.764 184.275L106.922 184.613C108.755 184.905 110.632 184.587 112.266 183.708L115.776 181.808L115.748 181.72L140.138 178.004C141.789 177.752 143.317 176.979 144.499 175.799L152.241 168.065L143.804 161.086Z" fill="#F2A392"/>
<path d="M135.395 267.467H89.6602V282.992H135.395V267.467Z" fill="#4E9C0B"/>
<path d="M101.26 267.468H98.2188V272.424H101.26V267.468Z" fill="#F3B755"/>
<path d="M126.85 267.468H123.809V272.424H126.85V267.468Z" fill="#F3B755"/>
<path d="M141.521 267.579L146.811 256.491H102.729L95.7891 267.579H141.521Z" fill="#408108"/>
<path d="M146.816 256.491C146.816 256.491 151.418 266.351 141.523 267.579L146.816 256.491Z" fill="#408108"/>
<path d="M102.718 256.491C103.053 257.237 103.306 258.018 103.473 258.819C103.652 259.623 103.753 260.442 103.774 261.265C103.793 262.095 103.706 262.923 103.515 263.73C103.314 264.534 102.947 265.287 102.438 265.941C102.765 265.21 102.999 264.441 103.134 263.651C103.249 262.866 103.297 262.072 103.28 261.278C103.26 260.479 103.198 259.681 103.095 258.889C102.999 258.089 102.875 257.293 102.718 256.491Z" fill="#408108"/>
<path d="M141.399 267.579H135.395V282.992H141.399V267.579Z" fill="#408108"/>
<path d="M140.766 267.764H135.518C135.485 267.764 135.454 267.751 135.431 267.728C135.407 267.705 135.395 267.673 135.395 267.641C135.395 267.608 135.407 267.576 135.431 267.553C135.454 267.53 135.485 267.517 135.518 267.517H140.766C140.798 267.517 140.829 267.53 140.853 267.553C140.876 267.576 140.889 267.608 140.889 267.641C140.889 267.673 140.876 267.705 140.853 267.728C140.829 267.751 140.798 267.764 140.766 267.764Z" fill="#264B05"/>
<path d="M292.691 222.421H412.577V282.997H292.691V222.421Z" fill="#4E9C0B"/>
<path d="M294.695 224.672H335.971V236.538H294.695V224.672Z" fill="#F3B755"/>
<path d="M318.945 226.029H311.715V227.707H318.945V226.029Z" fill="#CE9840"/>
<path d="M335.971 238.621H294.695V250.488H335.971V238.621Z" fill="#F3B755"/>
<path d="M318.945 239.979H311.715V241.657H318.945V239.979Z" fill="#CE9840"/>
<path d="M335.971 252.576H294.695V264.442H335.971V252.576Z" fill="#F3B755"/>
<path d="M318.945 253.933H311.715V255.611H318.945V253.933Z" fill="#CE9840"/>
<path d="M294.695 266.529H335.971V278.395H294.695V266.529Z" fill="#F3B755"/>
<path d="M318.945 267.886H311.715V269.564H318.945V267.886Z" fill="#CE9840"/>
<path d="M410.878 278.643H337.695V224.769H410.878V278.643ZM338.187 278.148H410.382V225.264H338.187V278.148Z" fill="#F3B755"/>
</svg>
