<svg width="80" height="80" viewBox="0 0 80 80" fill="none" xmlns="http://www.w3.org/2000/svg">
<path d="M73.3923 36.6563C72.247 35.1359 67.9923 34.0891 66.1923 31.3531C64.3923 28.6172 62.9188 22.6922 58.3376 20.4156C53.7563 18.1391 45.0001 17.5 40.0001 17.5C35.0001 17.5 26.2501 18.125 21.6626 20.4109C17.0751 22.6969 15.6079 28.6172 13.8079 31.3484C12.0079 34.0797 7.75322 35.1359 6.60791 36.6563C5.4626 38.1766 4.65635 47.7875 5.14697 52.5C5.6376 57.2125 6.55322 60 6.55322 60H19.9907C22.1907 60 22.9063 59.1734 27.4063 58.75C32.3438 58.2812 37.1876 58.125 40.0001 58.125C42.8126 58.125 47.8126 58.2812 52.747 58.75C57.247 59.1766 57.986 60 60.1626 60H73.4438C73.4438 60 74.3595 57.2125 74.8501 52.5C75.3407 47.7875 74.5313 38.1766 73.3923 36.6563ZM62.5001 60H71.2501V62.5H62.5001V60ZM8.7501 60H17.5001V62.5H8.7501V60Z" stroke="#F3B755" stroke-width="4" stroke-linecap="round" stroke-linejoin="round"/>
<path d="M56.9484 48.3063C56.0249 47.2391 53.0155 46.3485 49.0312 45.7516C45.0468 45.1547 43.5937 45.0001 40.0312 45.0001C36.4687 45.0001 34.8484 45.2563 31.0296 45.7516C27.2108 46.2469 24.3437 47.1282 23.114 48.3063C21.2687 50.0938 23.9718 52.1001 26.0937 52.3438C28.1499 52.5782 32.2609 52.4922 40.0484 52.4922C47.8359 52.4922 51.9468 52.5782 54.003 52.3438C56.1218 52.086 58.6312 50.2188 56.9484 48.3063ZM67.4327 37.9766C67.424 37.8525 67.3697 37.736 67.2803 37.6495C67.1909 37.563 67.0727 37.5126 66.9484 37.5079C65.103 37.4422 63.2296 37.5735 59.9062 38.5532C58.2106 39.0482 56.6184 39.8453 55.2062 40.9063C54.8499 41.1844 54.9765 41.936 55.4234 42.0157C58.1627 42.337 60.9184 42.4987 63.6765 42.5001C65.3312 42.5001 67.039 42.0313 67.3562 40.5563C67.5179 39.7059 67.5437 38.8352 67.4327 37.9766ZM12.5671 37.9766C12.5759 37.8525 12.6302 37.736 12.7196 37.6495C12.809 37.563 12.9272 37.5126 13.0515 37.5079C14.8968 37.4422 16.7702 37.5735 20.0937 38.5532C21.7892 39.0482 23.3814 39.8453 24.7937 40.9063C25.1499 41.1844 25.0233 41.936 24.5765 42.0157C21.8371 42.337 19.0815 42.4987 16.3233 42.5001C14.6687 42.5001 12.9608 42.0313 12.6437 40.5563C12.4819 39.7059 12.4561 38.8352 12.5671 37.9766Z" fill="#4E9C0B"/>
<path d="M67.5 30H70M10 30H12.5M12.1875 32.9688C12.1875 32.9688 19.4297 31.0938 40 31.0938C60.5703 31.0938 67.8125 32.9688 67.8125 32.9688" stroke="#F3B755" stroke-width="4" stroke-linecap="round" stroke-linejoin="round"/>
</svg>
