<svg width="24" height="24" viewBox="0 0 24 24" fill="none" xmlns="http://www.w3.org/2000/svg">
<path d="M22.3402 10.6431L22.3327 10.6398L2.31328 2.33637C2.1449 2.26589 1.96167 2.23825 1.77999 2.25592C1.59831 2.27359 1.42384 2.33602 1.27219 2.43762C1.11197 2.5426 0.980359 2.68577 0.889207 2.85425C0.798055 3.02273 0.750218 3.21122 0.75 3.40277V8.71324C0.750089 8.97511 0.841528 9.22874 1.00856 9.43043C1.17558 9.63211 1.40774 9.7692 1.665 9.81809L12.5836 11.837C12.6265 11.8451 12.6652 11.868 12.6931 11.9016C12.7209 11.9352 12.7362 11.9775 12.7362 12.0212C12.7362 12.0649 12.7209 12.1072 12.6931 12.1408C12.6652 12.1744 12.6265 12.1973 12.5836 12.2054L1.66547 14.2243C1.40828 14.2731 1.17614 14.41 1.00903 14.6115C0.841932 14.813 0.750328 15.0665 0.75 15.3282V20.6397C0.749876 20.8226 0.795166 21.0026 0.881807 21.1637C0.968448 21.3248 1.09373 21.4619 1.24641 21.5626C1.43006 21.6846 1.6456 21.7499 1.86609 21.7501C2.01938 21.75 2.1711 21.7192 2.31234 21.6597L22.3313 13.4036L22.3402 13.3993C22.6096 13.2835 22.8392 13.0913 23.0006 12.8463C23.1619 12.6014 23.2479 12.3145 23.2479 12.0212C23.2479 11.7279 23.1619 11.441 23.0006 11.1961C22.8392 10.9512 22.6096 10.7589 22.3402 10.6431Z" fill="#4E9C0B"/>
</svg>
