<svg width="480" height="360" viewBox="0 0 480 360" fill="none" xmlns="http://www.w3.org/2000/svg">
<path opacity="0.5" d="M82.2476 341.03C82.2476 341.03 22.4752 298.565 5.27229 226.298C-11.9306 154.02 14.3334 66.3933 64.1364 22.1271C113.95 -22.1391 203.609 7.67374 243.454 44.7133L283.298 81.7528C283.298 81.7528 321.337 102.527 371.151 100.726C420.965 98.9135 465.341 166.672 477.116 219.977C488.891 273.282 460.81 343.748 460.81 343.748L82.2476 341.04V341.03Z" fill="#F5F5F5"/>
<g style="mix-blend-mode:multiply" opacity="0.5">
<path d="M55.0905 351.868C55.0905 351.868 13.4293 329.281 2.56254 276.882C-8.30417 224.483 38.7849 176.604 43.3155 150.404C47.846 124.205 37.8766 91.6848 79.5379 66.3804C121.199 41.087 195.46 50.1149 223.541 43.7943C251.622 37.4736 284.222 -5.89744 340.372 4.04745C396.522 13.9814 450.867 43.7943 453.581 108.845C456.294 173.897 435.469 175.698 456.295 210.936C477.12 246.174 485.272 270.562 475.314 306.695C465.356 342.829 444.52 352.774 444.52 352.774L55.0905 351.868Z" fill="#EBEBEB"/>
</g>
<g style="mix-blend-mode:multiply" opacity="0.5">
<path d="M142.061 340.122C139.468 337.415 101.462 261.524 143.791 191.964C186.119 122.405 292.368 130.526 334.697 157.632C377.026 184.737 397.752 219.965 402.075 257.004C406.397 294.044 377.89 351.868 377.89 351.868L142.061 340.122Z" fill="#E0E0E0"/>
</g>
<path d="M440.102 177.134H391.272C388.251 177.134 385.801 179.578 385.801 182.592V206.914C385.801 209.928 388.251 212.372 391.272 212.372H440.102C443.123 212.372 445.573 209.928 445.573 206.914V182.592C445.573 179.578 443.123 177.134 440.102 177.134Z" fill="#CACACA"/>
<path d="M415.688 226.149L423.425 207.853H407.951L415.688 226.149Z" fill="#CACACA"/>
<path d="M415.498 188.705H429.484V190.746L436.334 186.805L429.484 182.864V184.906H415.498V188.705Z" fill="#4E4E4E"/>
<path d="M436.334 196.717H422.359V194.687L415.498 198.628L422.359 202.568V200.527H436.334V196.717Z" fill="white"/>
<path d="M406.926 200.308L406.258 200.549C406.258 200.549 404.179 198.191 403.107 195.614C402.034 193.038 401.99 189.905 401.99 189.905L402.472 189.698L399.517 182.646C398.992 183.06 398.489 183.584 398.084 184.272C396.409 187.089 396.574 191.422 398.259 195.647C399.944 199.872 401.739 203.649 405.022 206.018C406.959 207.415 408.622 207.666 409.902 207.459L406.915 200.319L406.926 200.308Z" fill="#4E4E4E"/>
<path d="M409.046 199.477L408.127 199.815L411.147 207.042C411.487 206.933 411.793 206.791 412.067 206.649C412.844 206.223 413.194 205.284 412.865 204.455L411.29 200.481C410.939 199.597 409.944 199.16 409.057 199.477H409.046Z" fill="#4E4E4E"/>
<path d="M401.832 181.4C401.46 181.531 401.055 181.716 400.65 181.957L403.671 189.161L404.688 188.736C405.575 188.365 405.991 187.371 405.651 186.476L404.065 182.415C403.725 181.531 402.73 181.072 401.843 181.4H401.832Z" fill="#4E4E4E"/>
<path d="M127.941 327.931V246.625C127.941 246.625 127.032 224.716 138.578 218.395C150.123 212.074 198.799 215.459 198.799 215.459V327.931H127.93H127.941Z" fill="#734801"/>
<path d="M214.026 139.341C214.026 139.341 211.082 163.957 209.955 165.988L208.828 168.018L203.17 171.861C203.17 171.861 214.037 187.22 227.398 189.698C240.76 192.187 239.622 184.273 239.622 184.273L237.587 179.983L240.301 156.491C240.301 156.491 216.072 145.421 214.037 139.33L214.026 139.341Z" fill="#FF9D8C"/>
<path d="M196.131 173.901L204.962 170.059C204.962 170.059 210.62 179.316 223.752 184.741C236.884 190.167 237.114 187.001 237.792 184.741C238.471 182.482 237.562 180.004 237.562 180.004L238.536 172.1L243.789 173.847L262.021 320.946L215.15 323.206L196.131 173.912V173.901Z" fill="white"/>
<path d="M239.378 172.244C239.378 172.244 242.552 179.547 245.495 196.707C248.439 213.868 251.153 242.786 251.832 262.654C252.51 282.522 252.959 327.923 252.959 327.923H312.053C312.731 327.923 316.802 305.566 316.802 305.566C316.802 305.566 290.987 283.504 289.63 279.891C288.722 277.478 289.181 232.841 285.329 212.285C281.477 191.729 276.498 187.592 266.08 182.472C255.312 177.178 239.367 172.233 239.367 172.233L239.378 172.244Z" fill="#4E9C0B"/>
<path d="M270.172 302.06C269.865 302.06 269.624 301.82 269.624 301.514C269.624 299.899 269.34 276.952 269.055 254.77C268.782 232.577 268.486 209.63 268.486 208.015C268.486 207.709 268.727 207.469 269.033 207.469C269.34 207.469 269.581 207.709 269.581 208.015C269.581 209.63 269.865 232.577 270.15 254.759C270.423 276.952 270.719 299.899 270.719 301.514C270.719 301.82 270.478 302.06 270.172 302.06Z" fill="#297727"/>
<path d="M152.435 296.538L151.986 327.934H220.82C220.82 327.934 223.764 301.287 222.636 298.798C221.509 296.309 152.446 296.538 152.446 296.538H152.435Z" fill="#263238"/>
<g style="mix-blend-mode:multiply">
<path d="M229.039 165.323C231.841 167.582 235.682 169.383 238.669 170.486L240.289 156.513C240.289 156.513 222.09 148.195 215.918 142.016C217.209 149.046 220.383 158.358 229.039 165.323Z" fill="#9C9C9C"/>
</g>
<path d="M261.571 93.4905C261.571 93.4905 266.32 101.623 267.228 111.557C268.137 121.491 267.228 147.014 259.076 157.854C250.923 168.694 233.939 165.528 226.246 158.978C219.176 152.963 212.205 146.326 210.4 133.226C208.583 120.127 214.252 95.2808 230.328 90.0846C246.403 84.8883 261.571 93.4686 261.571 93.4686V93.4905Z" fill="#FF9D8C"/>
<path d="M281.998 313.742C281.998 313.742 281.199 313.742 279.984 313.709C279.7 313.698 279.382 313.709 279.054 313.698C277.883 313.665 276.46 313.633 275.027 313.589C274.71 313.578 274.381 313.567 274.064 313.556C272.641 313.524 271.427 313.698 270.288 313.633H270.256C270.015 313.622 269.665 313.655 269.38 313.665C269.238 313.676 269.107 313.687 269.019 313.676C268.362 313.556 268.231 313.403 267.52 313.087C266.601 312.672 254.158 309.899 244.035 309.965C233.924 310.008 224.852 310.696 223.374 309.463C221.886 308.207 220.989 295.533 229.623 294.704L240.238 298.721C240.238 298.721 264.478 295.85 273.364 302.389C282.271 308.928 281.998 313.742 281.998 313.742Z" fill="#FF9D8C"/>
<path d="M270.253 313.633C270.012 313.622 269.662 313.654 269.377 313.665C269.158 313.316 268.699 312.683 268.447 312.421C265.711 309.637 259.101 307.836 256.705 307.257C256.486 307.203 256.344 306.985 256.398 306.766C256.442 306.548 256.672 306.417 256.902 306.461C260.393 307.301 267.801 309.452 269.903 312.978C269.968 313.076 270.143 313.414 270.253 313.633Z" fill="#263238"/>
<path d="M275.025 313.579C274.708 313.579 274.38 313.569 274.062 313.547C271.075 308.11 266.183 306.549 260.153 304.617L259.792 304.497C259.584 304.432 259.464 304.191 259.53 303.973C259.595 303.766 259.825 303.646 260.055 303.711L260.405 303.831C266.796 305.872 271.928 307.521 275.036 313.579H275.025Z" fill="#263238"/>
<path d="M279.985 313.697C279.701 313.697 279.383 313.697 279.055 313.687C277.238 309.888 271.242 303.523 263.319 302.05C263.089 302.006 262.946 301.798 262.979 301.569C263.023 301.351 263.242 301.209 263.461 301.242C271.635 302.77 278.223 309.429 279.996 313.697H279.985Z" fill="#263238"/>
<path d="M215.824 122.07C215.824 122.07 220.803 119.701 224.316 113.031C227.828 106.372 227.369 100.379 227.369 100.379C227.369 100.379 233.705 99.3641 243.215 102.191C252.725 105.019 264.04 108.85 273.55 103.436C283.059 98.0104 283.059 89.3209 278.419 85.7076C273.221 81.6576 262.913 84.1247 262.913 84.1247C262.913 84.1247 266.874 80.2821 264.729 78.0224C262.574 75.7627 254.771 78.6992 254.771 78.6992C254.771 78.6992 245.261 71.1341 227.259 72.0402C209.258 72.9463 200.656 85.4783 199.638 99.4842C198.621 113.49 203.709 127.496 203.709 127.496L215.824 122.07Z" fill="#263238"/>
<g style="mix-blend-mode:multiply">
<path d="M252.346 125.465C251.329 127.976 251.351 130.891 251.099 133.543C250.902 135.618 250.519 138.03 252.423 139.427C253.331 140.093 257.632 141.894 255.421 143.357C254.579 143.914 253.167 143.761 252.204 143.718C251.548 143.685 250.88 143.663 250.212 143.608C249.501 143.554 248.812 143.346 248.1 143.335C247.685 143.335 247.553 143.881 247.892 144.1C249.031 144.809 250.716 145.038 252.04 145.082C253.375 145.137 254.272 145.082 255.476 144.482C256.209 144.121 256.932 143.597 257.041 142.724C257.172 141.742 256.428 140.857 255.684 140.301C254.831 139.668 253.78 139.373 252.915 138.751C251.712 137.899 251.81 136.447 251.898 135.115C252.106 131.906 252.839 128.751 253.123 125.553C253.167 125.061 252.489 125.061 252.335 125.443L252.346 125.465Z" fill="#9C9C9C"/>
</g>
<path d="M261.605 132.965C261.266 134.865 259.876 136.218 258.508 135.978C257.13 135.738 256.298 133.991 256.626 132.092C256.965 130.192 258.355 128.839 259.723 129.079C261.102 129.319 261.934 131.066 261.605 132.965Z" fill="#263238"/>
<path d="M244.286 131.458C243.979 133.51 242.524 134.995 241.046 134.776C239.569 134.558 238.606 132.713 238.912 130.661C239.219 128.608 240.674 127.124 242.152 127.342C243.629 127.56 244.592 129.405 244.286 131.458Z" fill="#263238"/>
<path d="M257.573 125.128C258.635 125.303 259.696 125.128 260.769 125.204C261.02 125.226 261.283 125.259 261.535 125.281C261.721 125.303 261.195 125.226 261.447 125.27C261.502 125.27 261.557 125.292 261.611 125.292C261.743 125.314 261.874 125.346 262.005 125.379C262.235 125.434 262.454 125.521 262.684 125.565C262.892 125.608 263.121 125.663 263.329 125.652C263.45 125.641 263.559 125.619 263.68 125.608C263.603 125.619 263.537 125.63 263.461 125.652C263.461 125.674 263.855 125.619 263.898 125.608C264.5 125.466 264.883 124.768 264.708 124.178C264.664 124.004 264.588 123.862 264.478 123.72C264.435 123.665 264.391 123.6 264.336 123.545C264.38 123.589 264.424 123.643 264.468 123.687C264.424 123.621 264.38 123.567 264.325 123.501C264.271 123.403 264.183 123.316 264.084 123.261C263.997 123.196 263.92 123.13 263.833 123.065C263.548 122.868 263.187 122.759 262.848 122.672C262.213 122.508 261.557 122.432 260.9 122.421C260.254 122.421 259.609 122.486 258.974 122.573C258.405 122.65 257.781 122.846 257.322 123.185C256.971 123.447 256.752 123.785 256.807 124.244C256.862 124.626 257.157 125.062 257.573 125.128Z" fill="#263238"/>
<path d="M245.499 122.102C245.356 122.014 245.203 121.938 245.061 121.872C244.93 121.818 244.579 121.632 244.842 121.774C244.744 121.719 244.645 121.665 244.547 121.621C244.109 121.403 243.649 121.25 243.179 121.13C242.15 120.868 241.056 120.802 239.994 120.912C238.867 121.032 237.827 121.305 236.853 121.894C236.711 121.981 236.569 122.058 236.459 122.178C236.383 122.276 236.306 122.374 236.23 122.473C236.251 122.44 236.273 122.407 236.295 122.374C235.989 122.582 235.814 122.931 235.825 123.291C235.825 123.641 236.011 123.935 236.317 124.099C236.689 124.307 237.039 124.208 237.411 124.099H236.842C237.16 124.154 237.379 124.165 237.696 124.099C237.707 124.099 238.002 124.023 237.805 124.066C237.619 124.11 238.112 124.034 238.167 124.023C238.232 124.023 238.571 123.979 238.21 124.023C238.276 124.023 238.342 124.012 238.407 124.001C238.582 123.979 238.747 123.957 238.922 123.946C239.666 123.892 240.41 123.859 241.165 123.826C241.854 123.804 242.566 123.794 243.266 123.826C243.562 123.837 243.857 123.848 244.153 123.859C244.317 123.859 244.251 123.892 244.131 123.859C244.196 123.881 244.251 123.892 244.317 123.903C244.437 123.935 244.557 123.979 244.678 124.023C245.159 124.208 245.739 123.859 245.914 123.411C246.111 122.931 245.947 122.374 245.488 122.102H245.499Z" fill="#263238"/>
<path d="M250.874 153.498C251.913 151.413 253.807 149.885 255.984 148.903C254.091 148.706 245.129 147.887 242.874 149.165C240.346 150.595 243.345 156.359 248.576 156.642C249.123 156.675 249.626 156.632 250.108 156.555C250.152 155.507 250.392 154.459 250.874 153.498Z" fill="#263238"/>
<path d="M209.494 141.381C209.494 141.381 210.402 144.886 215.611 148.947C220.82 153.007 228.371 155.988 228.371 155.988L228.973 153.357C228.973 153.357 221.16 149.973 217.537 146.239C213.915 142.517 213.467 140.475 213.467 140.475L209.505 141.381H209.494Z" fill="#DEE1EB"/>
<path d="M229.87 151.404C234.061 151.207 236.403 154.515 236.687 156.655C236.983 158.794 234.969 161.196 230.253 159.089C224.398 156.469 225.667 151.6 229.859 151.404H229.87Z" fill="#263238"/>
<path d="M212.775 115.52C212.775 115.52 214.581 102.541 223.303 93.7202C239.948 76.8979 254.097 77.9132 254.097 77.9132C254.097 77.9132 253.988 75.5443 248.658 73.7321C243.657 72.0401 241.414 72.9462 241.414 72.9462C241.414 72.9462 227.713 74.0706 216.168 86.8319C204.623 99.5932 203.375 115.859 203.375 115.859L212.775 115.52Z" fill="#E9E9E9"/>
<path d="M211.528 113.938C200.628 112.093 194.544 120.597 194.095 129.188C193.646 137.768 199.895 144.296 208.245 143.641C227.034 142.179 224.89 116.198 211.528 113.938Z" fill="white"/>
<path d="M206.1 135.292C203.222 135.292 200.792 133.851 199.402 131.307C197.914 128.589 198.034 125.237 199.72 122.77C199.851 122.585 200.103 122.541 200.289 122.661C200.475 122.792 200.529 123.043 200.398 123.229C198.888 125.445 198.779 128.458 200.125 130.914C201.394 133.239 203.648 134.56 206.318 134.473C208.814 134.407 210.926 133.272 212.261 131.274C213.793 128.993 214.143 125.849 213.158 123.251C212.173 120.674 209.492 118.928 207.052 119.244C206.833 119.277 206.625 119.113 206.592 118.895C206.559 118.677 206.723 118.469 206.942 118.437C209.798 118.054 212.797 120.009 213.924 122.967C215.007 125.805 214.614 129.244 212.939 131.733C211.44 133.96 209.098 135.226 206.34 135.292C206.264 135.292 206.187 135.292 206.111 135.292H206.1Z" fill="#676767"/>
<path d="M198.168 170.733C198.168 170.733 165.108 178.866 153.563 191.966C142.017 205.066 136.579 269.658 136.36 281.634C136.141 293.609 144.512 298.576 149.492 301.96C154.471 305.344 176.434 311.447 194.097 312.353C211.759 313.259 228.513 312.353 228.513 312.353C228.513 312.353 228.459 308.51 231.173 302.866C233.69 297.626 236.885 296.546 236.885 296.546L221.718 291.12C221.718 291.12 219.058 243.644 214.922 220.654C210.172 194.226 198.168 170.744 198.168 170.744V170.733Z" fill="#4E9C0B"/>
<path d="M252.957 283.535C252.88 283.535 252.804 283.524 252.738 283.491C252.464 283.371 252.333 283.043 252.464 282.77C255.561 275.795 258.768 262.117 260.573 252.51L260.727 251.735C261.274 248.908 261.952 245.403 260.595 242.969C259.906 241.735 258.341 239.05 256.831 236.474C255.266 233.799 253.8 231.267 253.384 230.513C252.585 229.04 255.102 225.099 258.735 219.695C259.72 218.232 260.563 216.977 261.055 216.125C262.346 213.888 261.493 211.846 260.486 209.466L260.147 208.648C259.238 206.432 258.21 204.216 257.214 202.065C256.809 201.192 256.404 200.308 255.999 199.423C255.463 198.255 254.938 197.065 254.39 195.865C251.195 188.747 247.879 181.389 243.644 174.283C243.491 174.021 243.578 173.693 243.83 173.529C244.093 173.377 244.421 173.464 244.585 173.715C248.853 180.876 252.18 188.267 255.386 195.406C255.923 196.607 256.459 197.797 256.984 198.954C257.389 199.838 257.794 200.711 258.199 201.585C259.195 203.746 260.234 205.973 261.143 208.211L261.482 209.019C262.5 211.431 263.55 213.942 261.985 216.639C261.471 217.523 260.617 218.8 259.621 220.274C257.728 223.09 253.789 228.952 254.325 229.968C254.73 230.71 256.196 233.232 257.75 235.895C259.26 238.482 260.825 241.168 261.526 242.412C263.08 245.185 262.357 248.919 261.777 251.91L261.624 252.685C260.967 256.178 257.477 274.081 253.438 283.185C253.351 283.393 253.143 283.513 252.935 283.513L252.957 283.535Z" fill="#297727"/>
<path d="M220.696 285.457C220.554 285.457 220.411 285.402 220.313 285.293C217.741 282.706 205.332 261.277 204.412 257.248C203.909 255.043 205.178 249.443 206.404 244.029C207.356 239.837 208.341 235.503 208.056 234.324C207.641 232.566 204.467 229.979 201.403 227.479C197.693 224.455 193.863 221.333 193.119 218.517C192.276 215.318 192.998 195.298 193.469 182.056C193.644 177.296 193.775 173.53 193.775 172.187C193.775 171.882 194.016 171.642 194.323 171.642C194.629 171.642 194.87 171.882 194.87 172.187C194.87 173.552 194.738 177.318 194.563 182.089C194.115 194.468 193.37 215.187 194.169 218.233C194.826 220.7 198.678 223.844 202.081 226.617C205.441 229.357 208.604 231.933 209.107 234.051C209.446 235.47 208.527 239.542 207.455 244.247C206.305 249.29 205.014 255.011 205.463 256.976C206.371 260.927 218.551 281.952 221.079 284.496C221.287 284.714 221.287 285.053 221.079 285.271C220.97 285.38 220.838 285.435 220.696 285.435V285.457Z" fill="#297727"/>
<path d="M176.213 276.08C176.213 276.08 176.158 276.08 176.136 276.08C175.841 276.036 175.633 275.763 175.666 275.457C176.07 272.619 182.352 216.072 182.636 211.738C182.658 211.432 182.921 211.203 183.216 211.225C183.523 211.247 183.742 211.509 183.731 211.804C183.446 216.137 177.154 272.761 176.749 275.599C176.705 275.872 176.475 276.069 176.213 276.069V276.08Z" fill="#297727"/>
<path d="M221.27 291.44C221.205 291.44 221.128 291.429 221.062 291.397C219.673 290.829 213.522 288.766 205.742 286.146C190.027 280.862 168.512 273.625 164.42 271.496C164.146 271.354 164.048 271.026 164.19 270.764C164.332 270.492 164.66 270.393 164.923 270.535C168.939 272.62 191.296 280.142 206.092 285.12C213.894 287.75 220.056 289.814 221.478 290.392C221.763 290.501 221.894 290.829 221.785 291.102C221.697 291.309 221.489 291.44 221.281 291.44H221.27Z" fill="#297727"/>
<path d="M213.711 313.959C199.879 313.959 173.079 311.47 152.713 304.287C152.429 304.189 152.276 303.872 152.385 303.588C152.484 303.305 152.801 303.152 153.085 303.261C178.813 312.343 214.806 313.894 221.503 312.387C221.799 312.322 222.094 312.507 222.16 312.802C222.225 313.097 222.039 313.391 221.744 313.457C220.299 313.784 217.487 313.959 213.733 313.959H213.711Z" fill="#297727"/>
<path d="M55.4328 178.352C59.7226 182.118 65.1615 184.531 68.926 188.887C70.4033 190.601 71.7384 192.424 73.1172 194.225C74.1131 195.535 76.7942 197.707 77.221 199.345C77.407 200.065 77.3742 199.083 77.1772 198.362C77.1772 198.329 77.1553 198.308 77.1444 198.275C76.7723 194.945 76.4987 191.605 76.3784 188.254C76.258 184.913 76.4659 181.562 76.258 178.232C75.9625 173.527 74.4852 168.975 70.6331 166.028C68.7509 164.587 66.3324 163.713 64.5924 162.109C62.9509 160.591 63.6075 158.856 64.5705 157.163C65.4788 155.581 66.5731 154.02 66.9233 152.196C67.3282 150.122 66.5403 147.983 65.4898 146.225C63.2464 142.47 58.2781 138.278 53.5615 138.846C49.6329 139.315 49.1842 143.834 49.2499 146.978C49.3046 150.035 49.611 153.092 49.6329 156.148C49.6657 159.292 49.1295 162.382 49.0857 165.515C49.0091 170.842 51.4823 174.903 55.4 178.341L55.4328 178.352Z" fill="#F3B755"/>
<path d="M95.3198 227.236C96.5126 224.387 97.8915 221.734 99.5767 219.147C101.886 215.599 104.457 212.139 106.011 208.165C107.598 204.104 107.368 199.77 107.522 195.502C107.631 192.358 108.572 189.236 108.32 186.081C108.2 184.575 107.325 182.129 105.366 182.381C103.845 182.577 102.936 184.455 102.356 185.666C101.339 187.762 100.627 190 99.8722 192.205C99.5767 193.068 99.2922 193.941 98.9201 194.771C98.7013 195.251 98.0118 196.43 97.3552 196.277C96.239 196.004 97.2567 191.474 97.4209 190.666C98.2526 186.638 99.5001 182.894 99.6752 178.745C99.9269 172.73 99.4564 165.58 93.5579 162.283C92.0149 161.421 90.067 160.908 88.6006 162.196C87.156 163.462 86.7511 165.657 86.5323 167.469C85.8757 173.025 87.1889 178.276 88.9726 183.505C90.45 187.817 92.2009 192.271 92.3322 196.889C92.4526 201.331 90.1436 205.261 89.0492 209.464C87.3202 216.145 87.6704 219.693 87.6704 221.854C87.6704 224.562 87.7579 227.247 87.9549 229.954C88.141 232.443 88.3489 234.921 88.6553 237.399C88.7209 237.902 88.7757 238.426 88.8413 238.95C87.8783 236.646 87.55 234.015 86.7512 231.701C85.3395 227.596 83.7089 223.568 82.3519 219.442C81.2357 216.036 80.1742 212.597 78.7078 209.311C77.329 206.233 75.6546 202.98 73.072 200.72C71.5071 199.356 69.6248 198.559 67.5347 198.57C66.1996 198.57 64.9958 199.039 63.7264 199.377C62.1615 199.792 60.9249 199.65 59.6336 198.657C55.4095 195.415 54.1182 189.607 50.9993 185.503C48.6684 182.446 43.1311 177.228 39.0601 180.568C36.9043 182.337 36.3024 185.754 36.4228 188.385C36.5651 191.67 38.0096 194.683 39.7167 197.434C41.5443 200.36 43.8971 202.98 45.5714 205.982C46.5673 207.761 46.7205 209.464 46.5563 211.462C46.4031 213.351 46.239 215.174 46.8846 216.997C48.8216 222.466 54.8732 221.702 59.5789 221.844C62.8728 221.942 66.3966 222.433 69.5264 223.481C73.1376 224.693 75.4905 227.04 76.7818 230.599C77.712 233.175 78.2154 236.111 79.9772 238.295C80.8089 239.321 81.9033 240.085 83.107 240.62C84.9455 241.428 90.5375 241.777 90.5704 241.275C90.7126 239.572 91.5224 237.771 92.0258 236.155C92.9779 233.12 94.0941 230.162 95.3307 227.225L95.3198 227.236Z" fill="#F3B755"/>
<path d="M121.289 226.21C120.808 223.088 120.895 219.639 119.418 216.768C119.309 216.56 119.035 216.506 118.838 216.615C117.777 217.204 117.733 218.918 117.645 219.966C117.503 221.713 117.612 223.459 117.394 225.195C117.022 228.252 116.31 231.396 115.205 234.267C113.957 237.52 111.692 239.365 108.398 240.38C106.286 241.035 104.207 241.603 102.434 243C100.847 244.255 99.753 245.98 98.9432 247.803C96.7436 252.726 95.693 258.217 94.6753 263.479C93.9859 267.016 93.4278 270.575 92.5632 274.079C91.6987 277.583 90.7795 281.066 90.287 284.646C90.1995 284.832 90.1119 285.006 90.0353 285.192C89.8055 285.727 90.6482 286.011 90.9327 285.574C94.3361 280.356 98.4726 275.662 104.13 272.791C106.68 271.492 110.073 271.219 112.206 269.178C113.826 267.627 114.045 265.259 113.804 263.141C113.487 260.368 112.152 258.086 110.762 255.718C109.996 254.418 109.099 253.032 109.405 251.449C109.7 249.965 110.937 248.862 112.163 248.098C114.516 246.646 117.262 245.991 119.177 243.895C120.961 241.952 121.957 239.518 122.154 236.898C122.417 233.404 121.815 229.649 121.279 226.199L121.289 226.21Z" fill="#F3B755"/>
<path d="M74.9208 244.234C71.9223 240.38 68.3001 237.051 64.2292 234.354C62.0514 232.913 56.93 230.075 55.8903 234.322C55.2885 236.811 57.7288 239.256 59.3375 240.817C61.756 243.164 64.5465 245.183 66.582 247.891C64.0541 248.699 61.4167 248.851 59.2281 250.587C56.6345 252.65 55.4636 256.624 58.0462 259.156C59.3047 260.39 60.968 261.143 62.522 261.897C64.5575 262.879 66.6257 263.763 68.705 264.637C73.2027 266.514 77.7551 268.414 81.5853 271.481C85.492 274.603 89.169 279.898 89.4754 284.996C89.5082 285.487 89.3222 285.039 89.6067 284.821C89.7709 284.963 90.2961 284.712 90.2961 284.428C90.2195 276.863 88.8516 269.647 85.7547 262.715C82.8766 256.285 79.2543 249.812 74.9208 244.245V244.234Z" fill="#F3B755"/>
<path d="M64.5587 173.766C66.2111 177.194 67.9401 180.545 69.7786 183.886C71.5514 187.106 73.3133 190.294 74.6375 193.733C76.268 197.957 77.9752 202.116 79.6933 206.308C81.488 210.664 83.0857 215.096 84.3661 219.626C86.8721 228.469 88.7325 237.562 89.6517 246.71C90.1223 251.36 90.3302 256.033 90.1989 260.705C90.1004 264.351 89.6845 267.964 89.3453 271.6C88.9841 275.377 88.7324 279.208 89.0498 282.996C89.3124 286.162 89.8158 289.939 92.289 292.199C92.7705 292.647 93.46 292.09 93.1754 291.522C90.2426 285.529 90.4068 278.99 90.9649 272.495C91.2713 268.903 91.6981 265.334 91.8294 261.731C91.9826 257.146 91.8075 252.55 91.3698 247.987C90.5162 239.014 88.7215 230.15 86.4015 221.449C85.2087 216.985 83.7313 212.607 82.0351 208.317C80.328 204.016 78.3582 199.824 76.7057 195.501C73.7182 187.674 69.1658 180.742 65.1277 173.45C64.9198 173.068 64.3726 173.406 64.5477 173.788L64.5587 173.766Z" fill="#8D8D8D"/>
<path d="M89.8033 237.738C90.2739 232.04 90.7882 226.549 92.7033 221.123C93.6007 218.591 94.6841 216.124 95.5595 213.58C96.2708 211.473 97.3433 208.591 96.7961 206.353C96.7305 206.102 96.3693 206.113 96.3037 206.353C95.9316 207.631 95.9754 209.028 95.7127 210.338C95.4501 211.615 95.1109 212.86 94.7169 214.104C93.8743 216.735 92.769 219.257 91.8169 221.855C89.9675 226.865 89.0154 232.411 89.4203 237.738C89.4422 237.989 89.7924 237.989 89.8143 237.738H89.8033Z" fill="#8D8D8D"/>
<path d="M56.7034 204.999C58.9687 210.457 65.7864 210.774 70.7547 211.996C74.3003 212.87 76.9158 215.228 78.798 218.295C80.8553 221.647 82.2452 225.576 83.3942 229.321C83.4051 229.364 83.4708 229.343 83.4599 229.299C82.0701 222.749 80.0784 214.867 73.3154 211.822C67.8875 209.376 60.7415 210.61 57.2834 204.759C57.1083 204.475 56.5831 204.661 56.7253 204.999H56.7034Z" fill="#8D8D8D"/>
<path d="M86.21 236.875C86.4836 237.235 86.7244 237.617 87.0089 237.977C87.1511 238.152 87.2825 238.316 87.4576 238.458C87.6327 238.6 87.8406 238.785 88.0923 238.774C88.1908 238.774 88.2674 238.654 88.2126 238.567C88.1032 238.381 87.8953 238.272 87.7421 238.141C87.5779 237.999 87.4138 237.857 87.2606 237.704C86.9432 237.41 86.6587 237.082 86.3413 236.777C86.2866 236.722 86.1662 236.798 86.221 236.875H86.21Z" fill="#8D8D8D"/>
<path d="M72.0469 254.21C75.9537 257.408 79.565 261.196 82.4321 265.355C83.8 267.342 85.0695 269.438 86.2185 271.556C87.4661 273.87 88.2977 276.315 89.2717 278.75C89.3483 278.935 89.6876 278.935 89.6547 278.695C89.1076 273.554 85.8464 269.154 83.2419 264.875C81.885 262.659 80.1997 260.869 78.3831 259.013C76.5118 257.103 74.5967 255.29 72.408 253.751C72.1454 253.566 71.7952 254.002 72.0579 254.21H72.0469Z" fill="#8D8D8D"/>
<path d="M103.175 248.154C101.293 249.224 101.227 252.182 101.194 254.081C101.129 257.727 102.026 261.144 100.428 264.616C98.9837 267.749 96.6747 270.369 94.8581 273.273C93.1619 276.002 91.4766 279.484 91.5204 282.759C91.5204 282.945 91.8158 283.054 91.9034 282.857C92.5928 281.373 92.8336 279.68 93.326 278.119C93.8732 276.362 94.6502 274.768 95.646 273.229C97.3969 270.522 99.5418 268.065 100.964 265.162C102.464 262.094 102.245 259.059 102.146 255.741C102.081 253.623 101.873 250.217 103.58 248.645C103.843 248.394 103.503 247.979 103.197 248.154H103.175Z" fill="#8D8D8D"/>
<path d="M90.5867 283.097C83.003 282.988 68.5469 282.911 68.5469 282.911L72.1253 309.395C72.9351 315.355 78.0238 319.798 84.0536 319.798H97.1199C103.15 319.798 108.249 315.355 109.048 309.395L112.627 282.911C112.627 282.911 98.1705 282.999 90.5867 283.097Z" fill="white"/>
<path d="M457.306 234.434L414.025 319.954L287.838 320.86L326.774 233.223L457.306 234.434Z" fill="#F6F7FA"/>
<path d="M204.094 320.323L204.116 313.478H285.808L323.387 231.267H454.028L457.311 234.432H329.69L290.634 320.258C290.634 320.258 204.094 320.105 204.094 320.323Z" fill="#D9DEE8"/>
<path d="M391.78 281.625C390.357 285.893 382.62 289.19 374.5 288.982C366.38 288.775 360.952 285.162 362.386 280.893C363.809 276.625 371.545 273.328 379.665 273.536C387.785 273.743 393.213 277.356 391.78 281.625Z" fill="#D9DEE8"/>
<path d="M290.638 320.802C290.561 320.802 290.485 320.791 290.408 320.759C290.135 320.639 290.014 320.311 290.135 320.038L329.333 233.896H457.305C457.611 233.896 457.852 234.137 457.852 234.442C457.852 234.748 457.611 234.988 457.305 234.988H330.034L291.119 320.497C291.032 320.693 290.824 320.813 290.616 320.813L290.638 320.802Z" fill="white"/>
<path d="M198.391 326.805H48.2812V360.002H198.391V326.805Z" fill="#CC963E"/>
<path d="M467.618 326.805H197.537V360.002H467.618V326.805Z" fill="#F3B755"/>
<g style="mix-blend-mode:multiply">
<path d="M198.395 326.804H197.541H48.2852V332.895H197.541H198.395H467.622V326.804H198.395Z" fill="#BDC4D7"/>
</g>
<path d="M204.963 320.255H41.043V328.388H204.963V320.255Z" fill="#CC963E"/>
<path d="M474.193 320.255H204.111V328.388H474.193V320.255Z" fill="#F3B755"/>
<path d="M160.504 107.822H107.516C104.235 107.822 101.574 110.476 101.574 113.75V140.135C101.574 143.409 104.235 146.063 107.516 146.063H160.504C163.786 146.063 166.446 143.409 166.446 140.135V113.75C166.446 110.476 163.786 107.822 160.504 107.822Z" fill="white"/>
<path d="M181.548 126.937L161.643 118.564V135.32L181.548 126.937Z" fill="white"/>
<path d="M121.436 130.595C123.46 130.595 125.102 128.957 125.102 126.938C125.102 124.918 123.46 123.281 121.436 123.281C119.411 123.281 117.77 124.918 117.77 126.938C117.77 128.957 119.411 130.595 121.436 130.595Z" fill="#223A7A"/>
<path d="M134.012 130.595C136.036 130.595 137.678 128.957 137.678 126.938C137.678 124.918 136.036 123.281 134.012 123.281C131.987 123.281 130.346 124.918 130.346 126.938C130.346 128.957 131.987 130.595 134.012 130.595Z" fill="#223A7A"/>
<path d="M146.572 130.595C148.597 130.595 150.238 128.957 150.238 126.938C150.238 124.918 148.597 123.281 146.572 123.281C144.548 123.281 142.906 124.918 142.906 126.938C142.906 128.957 144.548 130.595 146.572 130.595Z" fill="#223A7A"/>
<path d="M430.288 26.6367H307.953C300.096 26.6367 293.727 32.9901 293.727 40.8281V98.7181C293.727 106.556 300.096 112.909 307.953 112.909H318.918C319.225 118.16 318.469 125.966 314.081 135.943C328.22 129.437 336.351 119.678 340.608 112.909H430.299C438.157 112.909 444.526 106.556 444.526 98.7181V40.8281C444.526 32.9901 438.157 26.6367 430.299 26.6367H430.288Z" fill="#FFD591"/>
<path d="M378.096 54.2329H317.415C315.751 54.2329 314.395 52.8793 314.395 51.22C314.395 49.5607 315.751 48.207 317.415 48.207H378.096C379.759 48.207 381.116 49.5498 381.116 51.22C381.116 52.8793 379.77 54.2329 378.096 54.2329Z" fill="white"/>
<path d="M421.606 71.7772H316.244C315.226 71.7772 314.395 70.9475 314.395 69.9323C314.395 68.9171 315.226 68.0874 316.244 68.0874H421.606C422.624 68.0874 423.456 68.9171 423.456 69.9323C423.456 70.9475 422.624 71.7772 421.606 71.7772Z" fill="#FFEFD6"/>
<path d="M421.606 82.0169H316.244C315.226 82.0169 314.395 81.1873 314.395 80.172C314.395 79.1568 315.226 78.3271 316.244 78.3271H421.606C422.624 78.3271 423.456 79.1568 423.456 80.172C423.456 81.1873 422.624 82.0169 421.606 82.0169Z" fill="#FFEFD6"/>
<path d="M398.628 92.9334H316.258C315.24 92.9334 314.408 92.1038 314.408 91.0885C314.408 90.0733 315.24 89.2437 316.258 89.2437H398.628C399.646 89.2437 400.477 90.0733 400.477 91.0885C400.477 92.1038 399.646 92.9334 398.628 92.9334Z" fill="#FFEFD6"/>
<path d="M420.78 54.2329H391.835C390.171 54.2329 388.814 52.8793 388.814 51.22C388.814 49.5607 390.171 48.207 391.835 48.207H420.78C422.443 48.207 423.8 49.5498 423.8 51.22C423.8 52.8793 422.443 54.2329 420.78 54.2329Z" fill="white"/>
<path d="M347.813 160.615H314.95C313.742 160.615 312.762 161.592 312.762 162.798V185.199C312.762 186.405 313.742 187.382 314.95 187.382H347.813C349.022 187.382 350.002 186.405 350.002 185.199V162.798C350.002 161.592 349.022 160.615 347.813 160.615Z" fill="white"/>
<path d="M331.606 177.992C331.42 177.992 331.234 177.926 331.081 177.806L313.189 163.069C312.839 162.785 312.795 162.261 313.079 161.912C313.375 161.562 313.889 161.519 314.239 161.803L331.595 176.103L348.503 161.431C348.842 161.137 349.367 161.169 349.663 161.508C349.958 161.846 349.926 162.37 349.586 162.665L332.154 177.795C332 177.926 331.803 177.992 331.617 177.992H331.606Z" fill="#6F7FA9"/>
<path d="M313.722 186.757C313.514 186.757 313.317 186.681 313.153 186.528C312.825 186.211 312.814 185.698 313.12 185.371L325.629 172.249C325.935 171.922 326.46 171.911 326.789 172.216C327.117 172.533 327.128 173.046 326.821 173.374L314.313 186.495C314.149 186.659 313.941 186.746 313.722 186.746V186.757Z" fill="#6F7FA9"/>
<path d="M349.05 186.279C348.842 186.279 348.634 186.203 348.47 186.039L336.006 173.573C335.688 173.256 335.688 172.732 336.006 172.415C336.323 172.099 336.848 172.099 337.166 172.415L349.63 184.882C349.947 185.199 349.947 185.723 349.63 186.039C349.466 186.203 349.258 186.279 349.05 186.279Z" fill="#6F7FA9"/>
<path d="M351.705 170.733C357.767 170.733 362.681 165.831 362.681 159.784C362.681 153.737 357.767 148.835 351.705 148.835C345.643 148.835 340.729 153.737 340.729 159.784C340.729 165.831 345.643 170.733 351.705 170.733Z" fill="#FF5F42"/>
<path d="M349.059 159.752L349.033 159.45C349.366 159.599 349.655 159.791 349.9 160.027C350.145 160.262 350.333 160.52 350.464 160.8C350.596 161.079 350.661 161.367 350.661 161.664C350.661 162.162 350.521 162.62 350.241 163.04C349.97 163.45 349.602 163.782 349.138 164.035C348.674 164.28 348.158 164.402 347.589 164.402C347.019 164.402 346.503 164.28 346.039 164.035C345.575 163.782 345.203 163.45 344.923 163.04C344.651 162.62 344.516 162.162 344.516 161.664C344.516 161.262 344.599 160.917 344.765 160.629C344.94 160.332 345.155 160.083 345.409 159.883C345.671 159.682 345.93 159.516 346.183 159.385L346.078 159.752C345.859 159.664 345.645 159.542 345.435 159.385C345.234 159.219 345.067 159.009 344.936 158.756C344.805 158.503 344.739 158.206 344.739 157.865C344.739 157.376 344.866 156.935 345.12 156.542C345.374 156.14 345.715 155.822 346.144 155.586C346.582 155.35 347.063 155.232 347.589 155.232C348.123 155.232 348.6 155.35 349.02 155.586C349.449 155.822 349.79 156.14 350.044 156.542C350.298 156.935 350.425 157.376 350.425 157.865C350.425 158.241 350.351 158.555 350.202 158.808C350.053 159.062 349.873 159.263 349.663 159.411C349.453 159.559 349.252 159.673 349.059 159.752ZM346.315 157.891C346.315 158.127 346.367 158.337 346.472 158.52C346.586 158.704 346.739 158.852 346.932 158.966C347.125 159.07 347.343 159.123 347.589 159.123C347.834 159.123 348.048 159.07 348.232 158.966C348.425 158.852 348.573 158.704 348.678 158.52C348.792 158.337 348.849 158.127 348.849 157.891C348.849 157.542 348.727 157.254 348.481 157.027C348.245 156.791 347.947 156.673 347.589 156.673C347.221 156.673 346.914 156.791 346.669 157.027C346.433 157.254 346.315 157.542 346.315 157.891ZM347.589 162.961C348.009 162.961 348.363 162.834 348.652 162.581C348.941 162.319 349.086 162.005 349.086 161.638C349.086 161.385 349.02 161.158 348.889 160.957C348.757 160.756 348.578 160.599 348.35 160.485C348.123 160.363 347.869 160.302 347.589 160.302C347.308 160.302 347.054 160.363 346.827 160.485C346.599 160.599 346.42 160.756 346.288 160.957C346.157 161.158 346.091 161.385 346.091 161.638C346.091 162.005 346.236 162.319 346.525 162.581C346.814 162.834 347.168 162.961 347.589 162.961Z" fill="white"/>
<path d="M354.35 164.533C354.026 164.533 353.68 164.485 353.312 164.389C352.944 164.284 352.642 164.136 352.406 163.944C352.292 163.847 352.2 163.725 352.13 163.577C352.069 163.42 352.038 163.271 352.038 163.131C352.038 162.983 352.1 162.843 352.222 162.712C352.353 162.581 352.537 162.516 352.774 162.516C352.931 162.516 353.128 162.599 353.365 162.765C353.505 162.852 353.658 162.93 353.824 163C353.991 163.07 354.161 163.105 354.336 163.105C354.757 163.105 355.12 163.031 355.426 162.882C355.733 162.725 355.969 162.511 356.135 162.241C356.302 161.97 356.385 161.651 356.385 161.284C356.385 160.952 356.306 160.669 356.149 160.433C356 160.197 355.798 160.014 355.545 159.883C355.299 159.752 355.032 159.686 354.743 159.686C354.472 159.686 354.236 159.73 354.034 159.817C353.833 159.904 353.649 159.996 353.483 160.092C353.316 160.18 353.15 160.223 352.984 160.223C352.695 160.223 352.48 160.162 352.34 160.04C352.2 159.909 352.113 159.756 352.078 159.581C352.043 159.407 352.034 159.249 352.051 159.11L352.459 155.926C352.494 155.743 352.581 155.595 352.721 155.481C352.87 155.359 353.045 155.298 353.246 155.298H357.042C357.252 155.298 357.427 155.368 357.567 155.507C357.707 155.647 357.777 155.822 357.777 156.031C357.777 156.232 357.707 156.402 357.567 156.542C357.427 156.673 357.252 156.739 357.042 156.739H353.654L353.798 156.621L353.443 159.28L353.273 158.782C353.325 158.695 353.439 158.612 353.614 158.533C353.789 158.455 353.991 158.389 354.218 158.337C354.446 158.276 354.669 158.245 354.888 158.245C355.475 158.245 356 158.38 356.464 158.651C356.928 158.913 357.291 159.276 357.554 159.738C357.825 160.193 357.961 160.708 357.961 161.284C357.961 161.939 357.812 162.511 357.514 163C357.217 163.489 356.796 163.869 356.254 164.14C355.72 164.402 355.085 164.533 354.35 164.533Z" fill="white"/>
<path d="M462.021 137.001H397.871C395.454 137.001 393.494 138.956 393.494 141.367V151.378C393.494 153.789 395.454 155.744 397.871 155.744H462.021C464.439 155.744 466.399 153.789 466.399 151.378V141.367C466.399 138.956 464.439 137.001 462.021 137.001Z" fill="#FFD590"/>
<path d="M402.498 151.289C402.214 151.289 401.984 151.191 401.809 150.983C401.634 150.776 401.557 150.525 401.579 150.219L401.852 147.796C401.874 147.73 401.852 147.697 401.82 147.676C401.776 147.654 401.732 147.676 401.666 147.708L399.664 149.149C399.412 149.335 399.16 149.4 398.898 149.346C398.635 149.291 398.416 149.138 398.252 148.866C398.066 148.538 398.033 148.254 398.143 148.003C398.252 147.752 398.449 147.588 398.712 147.479L400.955 146.464C401.021 146.442 401.043 146.409 401.043 146.377C401.043 146.344 401.01 146.3 400.955 146.289L398.712 145.274C398.427 145.154 398.241 144.957 398.154 144.695C398.077 144.433 398.099 144.161 398.241 143.899C398.405 143.637 398.624 143.473 398.887 143.418C399.149 143.364 399.412 143.418 399.653 143.582L401.655 145.056C401.721 145.099 401.765 145.11 401.809 145.088C401.852 145.067 401.863 145.023 401.841 144.968L401.568 142.545C401.546 142.239 401.634 141.977 401.82 141.781C402.006 141.573 402.246 141.475 402.564 141.475C402.848 141.475 403.089 141.573 403.275 141.781C403.461 141.988 403.527 142.239 403.494 142.545L403.22 144.968C403.198 145.034 403.22 145.067 403.253 145.088C403.297 145.11 403.341 145.088 403.406 145.056L405.409 143.615C405.65 143.429 405.912 143.364 406.197 143.418C406.47 143.473 406.678 143.626 406.832 143.899C407.018 144.226 407.05 144.51 406.941 144.761C406.832 145.001 406.635 145.176 406.372 145.285L404.129 146.3C404.063 146.322 404.041 146.355 404.041 146.388C404.041 146.42 404.074 146.464 404.129 146.475L406.372 147.49C406.657 147.61 406.853 147.807 406.941 148.069C407.029 148.331 406.996 148.604 406.832 148.866C406.689 149.128 406.481 149.291 406.197 149.346C405.923 149.4 405.661 149.346 405.409 149.182L403.406 147.708C403.341 147.665 403.297 147.654 403.253 147.676C403.209 147.697 403.198 147.741 403.22 147.796L403.494 150.219C403.538 150.525 403.461 150.787 403.264 150.983C403.067 151.191 402.815 151.289 402.509 151.289H402.498Z" fill="white"/>
<path d="M415.768 151.289C415.483 151.289 415.253 151.191 415.078 150.983C414.903 150.776 414.826 150.525 414.848 150.219L415.122 147.796C415.144 147.73 415.122 147.697 415.089 147.676C415.045 147.654 415.002 147.676 414.936 147.708L412.933 149.149C412.682 149.335 412.43 149.4 412.167 149.346C411.905 149.291 411.686 149.138 411.522 148.866C411.336 148.538 411.303 148.254 411.412 148.003C411.522 147.752 411.719 147.588 411.981 147.479L414.225 146.464C414.29 146.442 414.312 146.409 414.312 146.377C414.312 146.344 414.279 146.3 414.225 146.289L411.981 145.274C411.697 145.154 411.511 144.957 411.423 144.695C411.346 144.433 411.368 144.161 411.511 143.899C411.675 143.637 411.894 143.473 412.156 143.418C412.419 143.364 412.682 143.418 412.922 143.582L414.925 145.056C414.991 145.099 415.034 145.11 415.078 145.088C415.122 145.067 415.133 145.023 415.111 144.968L414.837 142.545C414.816 142.239 414.903 141.977 415.089 141.781C415.275 141.573 415.516 141.475 415.833 141.475C416.118 141.475 416.359 141.573 416.545 141.781C416.731 141.988 416.796 142.239 416.763 142.545L416.49 144.968C416.468 145.034 416.479 145.067 416.523 145.088C416.566 145.11 416.61 145.088 416.676 145.056L418.679 143.615C418.919 143.429 419.182 143.364 419.466 143.418C419.74 143.473 419.948 143.626 420.101 143.899C420.287 144.226 420.32 144.51 420.211 144.761C420.101 145.001 419.904 145.176 419.642 145.285L417.398 146.3C417.332 146.322 417.311 146.355 417.311 146.388C417.311 146.42 417.343 146.464 417.398 146.475L419.642 147.49C419.926 147.61 420.123 147.807 420.211 148.069C420.298 148.331 420.265 148.604 420.101 148.866C419.959 149.128 419.751 149.291 419.466 149.346C419.193 149.4 418.93 149.346 418.679 149.182L416.676 147.708C416.61 147.665 416.566 147.654 416.523 147.676C416.479 147.697 416.468 147.741 416.49 147.796L416.763 150.219C416.807 150.525 416.731 150.787 416.534 150.983C416.337 151.191 416.085 151.289 415.779 151.289H415.768Z" fill="white"/>
<path d="M429.035 151.289C428.751 151.289 428.521 151.191 428.346 150.983C428.171 150.776 428.094 150.525 428.116 150.219L428.39 147.796C428.411 147.73 428.39 147.697 428.357 147.676C428.313 147.654 428.269 147.676 428.203 147.708L426.201 149.149C425.949 149.335 425.697 149.4 425.435 149.346C425.172 149.291 424.953 149.138 424.789 148.866C424.603 148.538 424.57 148.254 424.68 148.003C424.789 147.752 424.986 147.588 425.249 147.479L427.492 146.464C427.558 146.442 427.58 146.409 427.58 146.377C427.58 146.344 427.547 146.3 427.492 146.289L425.249 145.274C424.964 145.154 424.778 144.957 424.691 144.695C424.614 144.433 424.636 144.161 424.778 143.899C424.942 143.637 425.161 143.473 425.424 143.418C425.686 143.364 425.949 143.418 426.19 143.582L428.193 145.056C428.258 145.099 428.302 145.11 428.346 145.088C428.39 145.067 428.4 145.023 428.379 144.968L428.105 142.545C428.083 142.239 428.171 141.977 428.357 141.781C428.543 141.573 428.783 141.475 429.101 141.475C429.385 141.475 429.626 141.573 429.812 141.781C429.998 141.988 430.064 142.239 430.031 142.545L429.757 144.968C429.736 145.034 429.746 145.067 429.79 145.088C429.834 145.11 429.878 145.088 429.943 145.056L431.946 143.615C432.187 143.429 432.449 143.364 432.734 143.418C433.008 143.473 433.216 143.626 433.369 143.899C433.555 144.226 433.588 144.51 433.478 144.761C433.369 145.001 433.172 145.176 432.909 145.285L430.666 146.3C430.6 146.322 430.578 146.355 430.578 146.388C430.578 146.42 430.611 146.464 430.666 146.475L432.909 147.49C433.194 147.61 433.391 147.807 433.478 148.069C433.566 148.331 433.533 148.604 433.369 148.866C433.226 149.128 433.019 149.291 432.734 149.346C432.46 149.4 432.198 149.346 431.946 149.182L429.943 147.708C429.878 147.665 429.834 147.654 429.79 147.676C429.746 147.697 429.736 147.741 429.757 147.796L430.031 150.219C430.075 150.525 429.998 150.787 429.801 150.983C429.604 151.191 429.352 151.289 429.046 151.289H429.035Z" fill="white"/>
<path d="M442.301 151.289C442.016 151.289 441.786 151.191 441.611 150.983C441.436 150.776 441.36 150.525 441.382 150.219L441.655 147.796C441.677 147.73 441.655 147.697 441.622 147.676C441.579 147.654 441.535 147.676 441.469 147.708L439.466 149.149C439.215 149.335 438.963 149.4 438.7 149.346C438.438 149.291 438.219 149.138 438.055 148.866C437.869 148.538 437.836 148.254 437.945 148.003C438.055 147.752 438.252 147.588 438.514 147.479L440.758 146.464C440.823 146.442 440.845 146.409 440.845 146.377C440.845 146.344 440.812 146.3 440.758 146.289L438.514 145.274C438.23 145.154 438.044 144.957 437.956 144.695C437.88 144.433 437.902 144.161 438.044 143.899C438.208 143.637 438.427 143.473 438.69 143.418C438.952 143.364 439.215 143.418 439.456 143.582L441.458 145.056C441.524 145.099 441.568 145.11 441.611 145.088C441.655 145.067 441.666 145.023 441.644 144.968L441.371 142.545C441.349 142.239 441.436 141.977 441.622 141.781C441.808 141.573 442.049 141.475 442.366 141.475C442.651 141.475 442.892 141.573 443.078 141.781C443.264 141.988 443.329 142.239 443.297 142.545L443.023 144.968C443.001 145.034 443.012 145.067 443.056 145.088C443.1 145.11 443.143 145.088 443.209 145.056L445.212 143.615C445.452 143.429 445.715 143.364 446 143.418C446.273 143.473 446.481 143.626 446.634 143.899C446.82 144.226 446.853 144.51 446.744 144.761C446.634 145.001 446.437 145.176 446.175 145.285L443.931 146.3C443.866 146.322 443.844 146.355 443.844 146.388C443.844 146.42 443.877 146.464 443.931 146.475L446.175 147.49C446.459 147.61 446.656 147.807 446.744 148.069C446.831 148.331 446.798 148.604 446.634 148.866C446.492 149.128 446.284 149.291 446 149.346C445.726 149.4 445.463 149.346 445.212 149.182L443.209 147.708C443.143 147.665 443.1 147.654 443.056 147.676C443.012 147.697 443.001 147.741 443.023 147.796L443.297 150.219C443.34 150.525 443.264 150.787 443.067 150.983C442.87 151.191 442.618 151.289 442.312 151.289H442.301Z" fill="white"/>
<path d="M455.576 151.289C455.292 151.289 455.062 151.191 454.887 150.983C454.712 150.776 454.635 150.525 454.657 150.219L454.931 147.796C454.952 147.73 454.931 147.697 454.898 147.676C454.854 147.654 454.81 147.676 454.744 147.708L452.742 149.149C452.49 149.335 452.238 149.4 451.976 149.346C451.713 149.291 451.494 149.138 451.33 148.866C451.144 148.538 451.111 148.254 451.221 148.003C451.33 147.752 451.527 147.588 451.79 147.479L454.033 146.464C454.099 146.442 454.121 146.409 454.121 146.377C454.121 146.344 454.088 146.3 454.033 146.289L451.79 145.274C451.505 145.154 451.319 144.957 451.232 144.695C451.155 144.433 451.177 144.161 451.319 143.899C451.483 143.637 451.702 143.473 451.965 143.418C452.228 143.364 452.49 143.418 452.731 143.582L454.734 145.056C454.799 145.099 454.843 145.11 454.887 145.088C454.931 145.067 454.941 145.023 454.92 144.968L454.646 142.545C454.624 142.239 454.712 141.977 454.898 141.781C455.084 141.573 455.324 141.475 455.642 141.475C455.926 141.475 456.167 141.573 456.353 141.781C456.539 141.988 456.605 142.239 456.572 142.545L456.298 144.968C456.277 145.034 456.287 145.067 456.331 145.088C456.375 145.11 456.419 145.088 456.484 145.056L458.487 143.615C458.728 143.429 458.991 143.364 459.275 143.418C459.549 143.473 459.757 143.626 459.91 143.899C460.096 144.226 460.129 144.51 460.019 144.761C459.91 145.001 459.713 145.176 459.45 145.285L457.207 146.3C457.141 146.322 457.119 146.355 457.119 146.388C457.119 146.42 457.152 146.464 457.207 146.475L459.45 147.49C459.735 147.61 459.932 147.807 460.019 148.069C460.107 148.331 460.074 148.604 459.91 148.866C459.767 149.128 459.56 149.291 459.275 149.346C459.001 149.4 458.739 149.346 458.487 149.182L456.484 147.708C456.419 147.665 456.375 147.654 456.331 147.676C456.287 147.697 456.277 147.741 456.298 147.796L456.572 150.219C456.616 150.525 456.539 150.787 456.342 150.983C456.145 151.191 455.894 151.289 455.587 151.289H455.576Z" fill="#6AA636"/>
</svg>
