<svg width="526" height="517" viewBox="0 0 526 517" fill="none" xmlns="http://www.w3.org/2000/svg">
<path d="M396.141 187.59L396.013 435.303C395.995 438.983 394.52 442.507 391.911 445.103C389.301 447.699 385.771 449.156 382.09 449.156L14.5356 448.971C10.855 448.952 7.33151 447.477 4.7355 444.868C2.13946 442.259 0.682159 438.728 0.682219 435.048L0.809792 187.335C0.809791 185.51 1.17039 183.703 1.87095 182.018C2.57148 180.332 3.59815 178.802 4.89194 177.515C6.18574 176.227 7.72114 175.208 9.40995 174.516C11.0988 173.824 12.9077 173.473 14.7328 173.482L382.276 173.667C385.958 173.683 389.485 175.156 392.083 177.766C394.682 180.375 396.141 183.908 396.141 187.59Z" fill="#455A64"/>
<path d="M28.179 182.729L28.0439 440.803L358.157 440.976L358.292 182.902L28.179 182.729Z" fill="white"/>
<path d="M376.219 300.866C378.309 300.868 380.352 301.49 382.088 302.653C383.825 303.816 385.178 305.468 385.976 307.399C386.774 309.331 386.982 311.456 386.573 313.505C386.164 315.555 385.156 317.437 383.677 318.914C382.199 320.391 380.315 321.397 378.265 321.804C376.215 322.211 374.091 322.001 372.16 321.2C370.229 320.4 368.579 319.045 367.418 317.307C366.257 315.569 365.638 313.526 365.638 311.436C365.638 310.047 365.911 308.672 366.443 307.388C366.975 306.105 367.755 304.94 368.738 303.958C369.72 302.976 370.887 302.198 372.171 301.667C373.454 301.137 374.83 300.865 376.219 300.866Z" fill="#263238"/>
<path d="M12.1911 271.19L12.1492 351.317C12.1488 352.099 12.7822 352.733 13.5639 352.733L15.0955 352.734C15.8772 352.734 16.5113 352.101 16.5117 351.319L16.5537 271.193C16.5541 270.411 15.9207 269.777 15.1389 269.776L13.6074 269.776C12.8256 269.775 12.1915 270.409 12.1911 271.19Z" fill="#263238"/>
<g filter="url(#filter0_d_633_4785)">
<path d="M52.5293 189.367H333.808C337.685 189.367 341.403 190.907 344.145 193.649C346.887 196.391 348.427 200.109 348.427 203.986V389.73H37.9102V203.986C37.9102 200.109 39.4504 196.391 42.192 193.649C44.9336 190.907 48.652 189.367 52.5293 189.367Z" fill="#FFEAC7"/>
</g>
<path d="M324.677 404.408C324.677 408.086 264.866 411.056 191.086 411.056C117.306 411.056 57.4834 408.086 57.4834 404.408C57.4834 400.73 117.294 397.76 191.086 397.76C264.877 397.76 324.677 400.776 324.677 404.408Z" fill="#EBEBEB"/>
<path d="M323.354 210.402C323.335 210.38 323.312 210.363 323.286 210.351C323.26 210.339 323.232 210.333 323.203 210.332L311.856 210.262H307.552L307.459 209.613L307.285 208.336C307.279 208.291 307.257 208.25 307.223 208.22C307.189 208.19 307.145 208.173 307.099 208.174H303.943C303.7 208.174 303.537 208.174 303.537 208.383C303.537 208.592 303.7 208.58 303.943 208.592L306.832 208.65L308.445 221.087C308.45 221.134 308.472 221.176 308.506 221.208C308.54 221.24 308.584 221.259 308.631 221.261H317.913H321.393C321.683 221.261 321.834 221.261 321.834 221.064C321.834 220.867 321.683 220.855 321.393 220.844L308.967 220.681L308.665 218.477L321.73 218.662C321.775 218.663 321.819 218.646 321.853 218.617C321.888 218.587 321.91 218.545 321.915 218.5L322.89 213.302L323.401 210.506C323.398 210.467 323.382 210.43 323.354 210.402ZM307.598 210.68L322.762 210.877L321.428 218.152H312.146H308.665L307.598 210.68Z" fill="#263238"/>
<path d="M312.088 224.174C312.025 223.834 311.839 223.528 311.565 223.316C311.365 223.15 311.125 223.038 310.869 222.992C310.613 222.945 310.35 222.965 310.104 223.049C309.8 223.158 309.538 223.358 309.353 223.622C309.168 223.886 309.068 224.2 309.068 224.522C309.068 224.845 309.168 225.159 309.353 225.423C309.538 225.687 309.8 225.887 310.104 225.996C310.276 226.054 310.456 226.085 310.637 226.089C310.977 226.085 311.307 225.971 311.577 225.764C311.854 225.545 312.046 225.238 312.122 224.894C312.141 224.775 312.141 224.653 312.122 224.534C312.129 224.413 312.117 224.292 312.088 224.174ZM310.254 225.485C310.06 225.41 309.893 225.278 309.775 225.106C309.658 224.934 309.594 224.731 309.594 224.522C309.594 224.314 309.658 224.111 309.775 223.939C309.893 223.767 310.06 223.635 310.254 223.559C310.367 223.525 310.484 223.506 310.602 223.501C310.829 223.497 311.05 223.571 311.229 223.71C311.42 223.854 311.561 224.052 311.635 224.279V224.499V224.569C311.621 224.644 311.602 224.717 311.577 224.789C311.511 225.02 311.368 225.221 311.171 225.358C311.038 225.447 310.886 225.504 310.727 225.526C310.569 225.548 310.407 225.534 310.254 225.485Z" fill="#263238"/>
<path d="M320.407 224.245C320.34 223.902 320.155 223.594 319.885 223.374C319.708 223.235 319.503 223.135 319.284 223.082C319.065 223.03 318.838 223.025 318.617 223.069C318.396 223.113 318.188 223.204 318.006 223.336C317.823 223.469 317.672 223.639 317.563 223.836C317.453 224.032 317.387 224.25 317.37 224.475C317.353 224.699 317.384 224.925 317.463 225.136C317.541 225.347 317.665 225.538 317.824 225.697C317.984 225.855 318.176 225.978 318.388 226.055C318.555 226.117 318.732 226.149 318.91 226.147C319.254 226.152 319.589 226.04 319.861 225.829C320.133 225.618 320.325 225.321 320.407 224.987C320.419 224.868 320.419 224.747 320.407 224.628C320.428 224.501 320.428 224.371 320.407 224.245ZM318.573 225.579C318.38 225.503 318.214 225.371 318.098 225.199C317.982 225.027 317.921 224.823 317.924 224.616C317.93 224.409 317.997 224.208 318.117 224.039C318.237 223.87 318.403 223.74 318.597 223.665C318.712 223.643 318.83 223.643 318.945 223.665C319.171 223.66 319.393 223.734 319.571 223.873C319.762 224.017 319.904 224.215 319.977 224.442C319.977 224.535 319.977 224.616 319.977 224.662V224.732C319.962 224.806 319.943 224.88 319.919 224.952C319.851 225.182 319.708 225.382 319.513 225.521C319.372 225.604 319.214 225.653 319.05 225.663C318.887 225.673 318.723 225.644 318.573 225.579Z" fill="#263238"/>
<path d="M61.7305 229.511L62.1366 228.722C63.0206 229.489 64.157 229.903 65.3272 229.883C67.1372 229.883 67.9262 229.128 67.9262 228.165C67.9262 225.52 61.9741 227.144 61.9741 223.524C61.9741 222.109 63.1344 220.879 65.5361 220.879C66.5947 220.867 67.6343 221.161 68.5295 221.726L68.1814 222.55C67.3951 222.034 66.4765 221.756 65.5361 221.749C63.7609 221.749 62.9835 222.527 62.9835 223.501C62.9835 226.147 68.9356 224.545 68.9356 228.073C68.9356 229.488 67.7754 230.706 65.3272 230.706C64.0217 230.767 62.7401 230.341 61.7305 229.511Z" fill="#263238"/>
<path d="M71.0703 226.552V221.018H72.0913V226.506C72.0913 228.826 73.1704 229.847 75.0499 229.847C76.9295 229.847 78.0202 228.803 78.0202 226.506V221.018H79.018V226.552C79.018 229.325 77.5213 230.764 75.0499 230.764C72.5786 230.764 71.0703 229.325 71.0703 226.552Z" fill="#263238"/>
<path d="M89.657 224.324C89.657 226.39 88.1718 227.631 85.7121 227.631H83.1132V230.682H82.127V221.018H85.7469C88.1718 221.018 89.657 222.259 89.657 224.324ZM88.6359 224.324C88.6359 222.781 87.6149 221.899 85.6889 221.899H83.1132V226.738H85.6889C87.6149 226.738 88.6359 225.844 88.6359 224.324Z" fill="#263238"/>
<path d="M98.7069 229.801V230.682H91.873V221.018H98.4981V221.899H92.8941V225.38H97.8947V226.25H92.8941V229.847L98.7069 229.801Z" fill="#263238"/>
<path d="M107.722 230.684L105.506 227.574C105.262 227.574 105.007 227.574 104.728 227.574H102.141V230.638H101.12V220.973H104.728C107.188 220.973 108.685 222.214 108.685 224.279C108.719 224.963 108.517 225.638 108.114 226.191C107.711 226.744 107.13 227.142 106.469 227.319L108.789 230.638L107.722 230.684ZM107.664 224.326C107.664 222.783 106.643 221.901 104.705 221.901H102.141V226.739H104.705C106.643 226.739 107.652 225.846 107.652 224.326H107.664Z" fill="#263238"/>
<path d="M122.968 224.523C122.968 226.681 121.355 228.004 118.768 228.004H116.819V230.673H114.614V221.008H118.803C121.355 221.019 122.968 222.354 122.968 224.523ZM120.706 224.523C120.706 223.456 120.009 222.841 118.64 222.841H116.819V226.194H118.64C120.009 226.194 120.706 225.579 120.706 224.523Z" fill="#263238"/>
<path d="M130.718 230.682L128.85 227.991H126.796V230.682H124.557V221.018H128.745C131.321 221.018 132.934 222.352 132.934 224.498C132.96 225.15 132.783 225.794 132.428 226.34C132.073 226.887 131.556 227.31 130.95 227.55L133.177 230.682H130.718ZM128.618 222.839H126.796V226.204H128.618C129.987 226.204 130.671 225.566 130.671 224.522C130.671 223.477 129.987 222.839 128.618 222.839Z" fill="#263238"/>
<path d="M134.709 221.018H136.948V230.682H134.709V221.018Z" fill="#263238"/>
<path d="M138.631 225.845C138.68 224.789 139.042 223.771 139.672 222.923C140.302 222.074 141.17 221.432 142.167 221.08C143.163 220.727 144.242 220.68 145.266 220.944C146.289 221.208 147.211 221.771 147.913 222.561L146.474 223.884C146.182 223.521 145.813 223.229 145.394 223.028C144.974 222.827 144.514 222.723 144.049 222.724C143.627 222.698 143.204 222.759 142.807 222.902C142.409 223.046 142.045 223.269 141.737 223.559C141.429 223.849 141.184 224.198 141.016 224.587C140.848 224.975 140.762 225.393 140.762 225.816C140.762 226.238 140.848 226.657 141.016 227.045C141.184 227.433 141.429 227.783 141.737 228.072C142.045 228.362 142.409 228.585 142.807 228.729C143.204 228.873 143.627 228.934 144.049 228.908C144.515 228.911 144.976 228.809 145.396 228.608C145.816 228.407 146.185 228.113 146.474 227.747L147.913 229.07C147.212 229.86 146.291 230.423 145.269 230.687C144.246 230.952 143.168 230.905 142.172 230.554C141.176 230.203 140.307 229.563 139.676 228.716C139.046 227.869 138.682 226.853 138.631 225.798V225.845Z" fill="#263238"/>
<path d="M156.847 228.884V230.682H149.422V221.018H156.731V222.804H151.65V224.904H156.128V226.645H151.65V228.884H156.847Z" fill="#263238"/>
<path d="M69.8984 262.706V266.28H67.2762V262.706C64.466 262.633 61.7438 261.711 59.4678 260.061L60.9065 256.847C62.7611 258.233 64.9685 259.07 67.2762 259.26V252.89C63.7955 252.032 59.9551 250.883 59.9551 246.451C59.9551 243.202 62.2756 240.371 67.2762 239.884V236.287H69.8984V239.826C72.174 239.944 74.3838 240.63 76.3262 241.822L75.0151 245.047C73.4371 244.12 71.6821 243.535 69.8636 243.33V249.758C73.3443 250.628 77.2544 251.742 77.2544 256.162C77.2892 259.399 74.8991 262.196 69.8984 262.706ZM67.2762 249.073V243.4C65.0137 243.748 64.0623 244.896 64.0623 246.3C64.0623 247.704 65.4314 248.528 67.2762 249.073ZM73.2051 256.429C73.2051 254.875 71.8012 254.109 69.8984 253.598V259.225C72.2189 258.889 73.2051 257.798 73.2051 256.429Z" fill="#263238"/>
<path d="M95.9575 258.948V262.429H79.5168V259.656L88.3811 251.244C90.5391 249.179 90.922 247.868 90.922 246.603C90.922 244.561 89.5181 243.389 86.7799 243.389C85.7882 243.336 84.7981 243.519 83.8906 243.922C82.9831 244.326 82.184 244.938 81.5588 245.71L78.6582 243.482C79.683 242.247 80.9829 241.268 82.4536 240.626C83.9244 239.983 85.5253 239.694 87.128 239.781C91.9778 239.781 95.0989 242.24 95.0989 246.185C95.0989 248.355 94.4956 250.327 91.3977 253.228L85.4457 258.902L95.9575 258.948Z" fill="#263238"/>
<path d="M116.064 255.535C116.064 259.967 112.467 262.775 107.942 262.775C101.863 262.775 98.2891 258.853 98.2891 251.683C98.2891 244.037 102.744 239.825 109.219 239.825C111.267 239.755 113.295 240.252 115.078 241.264L113.558 244.385C112.279 243.615 110.802 243.24 109.311 243.306C105.111 243.306 102.466 245.916 102.466 250.975C103.231 250.181 104.16 249.562 105.187 249.161C106.215 248.76 107.317 248.588 108.418 248.654C112.781 248.689 116.064 251.358 116.064 255.535ZM112.05 255.732C112.05 253.411 110.298 251.938 107.594 251.938C104.891 251.938 103.069 253.562 103.069 255.767C103.069 257.971 104.728 259.526 107.71 259.526C110.263 259.526 112.05 258.064 112.05 255.743V255.732Z" fill="#263238"/>
<path d="M118.432 260.038C118.432 259.346 118.707 258.682 119.196 258.192C119.686 257.703 120.35 257.428 121.042 257.428C121.735 257.428 122.399 257.703 122.888 258.192C123.378 258.682 123.653 259.346 123.653 260.038C123.653 260.731 123.378 261.395 122.888 261.884C122.399 262.374 121.735 262.649 121.042 262.649C120.35 262.649 119.686 262.374 119.196 261.884C118.707 261.395 118.432 260.731 118.432 260.038Z" fill="#263238"/>
<path d="M125.949 251.301C125.949 243.968 129.964 239.826 135.231 239.826C140.499 239.826 144.513 243.968 144.513 251.301C144.513 258.634 140.499 262.776 135.231 262.776C129.964 262.776 125.949 258.634 125.949 251.301ZM140.417 251.301C140.417 245.917 138.306 243.435 135.254 243.435C132.203 243.435 130.126 245.917 130.126 251.301C130.126 256.685 132.226 259.167 135.254 259.167C138.283 259.167 140.417 256.685 140.417 251.301Z" fill="#263238"/>
<path d="M147.391 251.301C147.391 243.968 151.405 239.826 156.673 239.826C161.94 239.826 165.955 243.968 165.955 251.301C165.955 258.634 161.94 262.776 156.673 262.776C151.405 262.776 147.391 258.634 147.391 251.301ZM161.859 251.301C161.859 245.917 159.759 243.435 156.696 243.435C153.633 243.435 151.568 245.917 151.568 251.301C151.568 256.685 153.668 259.167 156.696 259.167C159.724 259.167 161.859 256.685 161.859 251.301Z" fill="#263238"/>
<path d="M168.844 251.301C168.844 243.968 172.858 239.826 178.126 239.826C183.393 239.826 187.408 243.968 187.408 251.301C187.408 258.634 183.393 262.776 178.126 262.776C172.858 262.776 168.844 258.634 168.844 251.301ZM183.3 251.301C183.3 245.917 181.2 243.435 178.149 243.435C175.097 243.435 173.009 245.917 173.009 251.301C173.009 256.685 175.121 259.167 178.149 259.167C181.177 259.167 183.3 256.685 183.3 251.301Z" fill="#263238"/>
<path d="M91.1826 275.41H67.4326C63.0143 275.41 59.4326 278.992 59.4326 283.41V287.169C59.4326 291.587 63.0143 295.169 67.4326 295.169H91.1827C95.6009 295.169 99.1827 291.587 99.1827 287.169V283.41C99.1827 278.992 95.6009 275.41 91.1826 275.41Z" fill="#4E9C0B"/>
<path d="M73.3557 282.037V289.393H72.1954L68.2042 284.416V289.393H66.8467V282.037H68.0069L72.0562 287.015V282.037H73.3557Z" fill="white"/>
<path d="M80.8276 288.233V289.393H75.3164V282.037H80.6883V283.197H76.6855V285.112H80.2358V286.272H76.6855V288.233H80.8276Z" fill="white"/>
<path d="M92.9868 282.037L90.5503 289.393H89.0884L87.2668 283.952L85.4336 289.393H83.9717L81.5352 282.037H82.9623L84.7838 287.629L86.6866 282.037H87.9281L89.7961 287.653L91.6757 282.037H92.9868Z" fill="white"/>
<path d="M286.714 378.649C286.714 378.812 237.752 378.951 177.361 378.951C116.97 378.951 67.9844 378.812 67.9844 378.649C67.9844 378.487 116.947 378.348 177.361 378.348C237.775 378.348 286.714 378.475 286.714 378.649Z" fill="#E0E0E0"/>
<path d="M320.454 340.582H62.2988V378.464H320.454V340.582Z" fill="#F3B755"/>
<g opacity="0.5">
<path d="M320.454 340.582H62.2988V378.464H320.454V340.582Z" fill="black"/>
</g>
<path d="M72.0906 377.85C72.0177 382.775 73.4069 387.611 76.0827 391.746C78.7585 395.881 82.6005 399.13 87.1228 401.081C91.6451 403.032 96.6446 403.598 101.489 402.708C106.333 401.817 110.804 399.51 114.337 396.078C117.869 392.646 120.305 388.243 121.335 383.427C122.365 378.61 121.944 373.597 120.124 369.02C118.304 364.443 115.168 360.509 111.112 357.715C107.056 354.92 102.262 353.392 97.3376 353.323C90.7387 353.233 84.3737 355.765 79.6402 360.364C74.9067 364.962 72.1914 371.251 72.0906 377.85Z" fill="#263238"/>
<path d="M72.1024 377.791C72.1035 377.81 72.1035 377.83 72.1024 377.849C72.0017 381.151 72.559 384.44 73.7419 387.524C74.9248 390.608 76.7097 393.426 78.9924 395.814C81.2752 398.202 84.0103 400.111 87.0384 401.432C90.0664 402.752 93.327 403.456 96.63 403.504C99.933 403.552 103.213 402.942 106.277 401.71C109.342 400.477 112.132 398.648 114.482 396.327C116.833 394.006 118.699 391.241 119.97 388.192C121.242 385.143 121.894 381.872 121.889 378.568V378.51L72.1024 377.791Z" fill="#263238"/>
<path d="M79.5048 377.966C79.4545 381.425 80.4316 384.821 82.3123 387.725C84.193 390.629 86.8928 392.909 90.0701 394.278C93.2473 395.647 96.7592 396.042 100.161 395.414C103.563 394.786 106.703 393.163 109.182 390.75C111.661 388.338 113.369 385.244 114.09 381.86C114.81 378.476 114.51 374.955 113.228 371.742C111.947 368.528 109.741 365.767 106.889 363.808C104.038 361.849 100.669 360.78 97.2101 360.736C92.5778 360.674 88.1104 362.454 84.7903 365.685C81.4701 368.916 79.569 373.333 79.5048 377.966Z" fill="#FAFAFA"/>
<path d="M97.211 360.736C92.5755 360.671 88.104 362.45 84.7795 365.681C81.455 368.911 79.5496 373.33 79.4824 377.966L114.441 378.465C114.506 373.829 112.727 369.358 109.496 366.033C106.265 362.709 101.846 360.803 97.211 360.736Z" fill="#E0E0E0"/>
<path d="M86.338 378.058C86.2968 380.167 86.8825 382.24 88.0209 384.015C89.1593 385.791 90.7991 387.188 92.7324 388.031C94.6658 388.873 96.8057 389.122 98.881 388.747C100.956 388.372 102.874 387.39 104.39 385.924C105.906 384.458 106.953 382.575 107.398 380.514C107.843 378.452 107.666 376.305 106.89 374.345C106.113 372.384 104.772 370.698 103.037 369.5C101.301 368.302 99.2486 367.646 97.1399 367.616C94.3257 367.579 91.6109 368.656 89.5874 370.612C87.564 372.568 86.3959 375.245 86.338 378.058Z" fill="#263238"/>
<path d="M262.441 377.85C262.368 382.775 263.757 387.61 266.433 391.745C269.108 395.88 272.949 399.128 277.471 401.08C281.993 403.031 286.991 403.598 291.835 402.708C296.679 401.819 301.15 399.513 304.683 396.082C308.216 392.651 310.653 388.249 311.684 383.434C312.715 378.618 312.296 373.605 310.478 369.028C308.66 364.451 305.525 360.516 301.471 357.72C297.416 354.925 292.624 353.394 287.7 353.323C281.099 353.23 274.731 355.761 269.995 360.36C265.259 364.959 262.542 371.25 262.441 377.85Z" fill="#263238"/>
<path d="M262.453 377.791C262.454 377.81 262.454 377.83 262.453 377.849C262.352 381.151 262.91 384.44 264.093 387.524C265.275 390.608 267.06 393.426 269.343 395.814C271.626 398.202 274.361 400.111 277.389 401.432C280.417 402.752 283.678 403.456 286.981 403.504C290.284 403.552 293.563 402.942 296.628 401.71C299.693 400.477 302.482 398.648 304.833 396.327C307.184 394.006 309.049 391.241 310.321 388.192C311.592 385.143 312.244 381.872 312.239 378.568V378.51L262.453 377.791Z" fill="#263238"/>
<path d="M269.867 377.966C269.819 381.421 270.797 384.813 272.677 387.713C274.557 390.613 277.254 392.89 280.428 394.257C283.602 395.623 287.11 396.018 290.509 395.391C293.907 394.764 297.043 393.144 299.521 390.734C301.998 388.325 303.705 385.235 304.427 381.856C305.148 378.476 304.851 374.958 303.574 371.748C302.296 368.537 300.095 365.777 297.249 363.817C294.403 361.857 291.039 360.785 287.584 360.736C285.289 360.704 283.011 361.124 280.878 361.973C278.746 362.821 276.802 364.081 275.157 365.681C273.511 367.281 272.197 369.19 271.29 371.297C270.382 373.405 269.899 375.671 269.867 377.966Z" fill="#FAFAFA"/>
<path d="M287.583 360.736C285.288 360.704 283.01 361.124 280.878 361.973C278.745 362.821 276.801 364.081 275.156 365.681C273.511 367.281 272.197 369.19 271.289 371.297C270.381 373.405 269.898 375.671 269.866 377.966L304.813 378.465C304.878 373.829 303.099 369.358 299.869 366.033C296.638 362.709 292.219 360.803 287.583 360.736Z" fill="#E0E0E0"/>
<path d="M276.69 378.058C276.648 380.167 277.234 382.24 278.373 384.015C279.511 385.791 281.151 387.188 283.084 388.031C285.017 388.873 287.157 389.122 289.233 388.747C291.308 388.372 293.225 387.39 294.741 385.924C296.258 384.458 297.305 382.575 297.75 380.514C298.195 378.452 298.018 376.305 297.241 374.345C296.465 372.384 295.124 370.698 293.388 369.5C291.652 368.302 289.6 367.646 287.491 367.616C284.677 367.579 281.963 368.656 279.939 370.612C277.916 372.568 276.747 375.245 276.69 378.058Z" fill="#263238"/>
<path d="M129.616 319.28C129.616 319.28 92.9635 321.983 79.377 325.081C69.7934 327.227 51.3339 330.882 51.5311 342.554L52.993 350.885C50.9417 351.927 49.2175 353.516 48.0099 355.474C46.8023 357.433 46.1579 359.687 46.1476 361.988C46.1476 369.971 44.4768 382.351 60.465 382.873C63.0988 382.954 68.0994 382.873 68.0994 382.873C68.0994 382.873 65.0364 348.831 96.305 347.833C128.131 346.812 126.019 382.559 126.019 382.559H258.844C258.844 382.559 253.391 347.752 287.653 347.682C321.915 347.613 316.659 382.791 316.659 382.791C316.659 382.791 329.259 383.882 335.13 373.289C341.001 362.696 339.458 355.154 339.458 355.154L339.272 348.471C339.241 347.372 338.793 346.326 338.02 345.544C337.247 344.762 336.206 344.303 335.107 344.26C335.107 344.26 337.427 327.401 333.877 324.535C330.327 321.67 311.113 304.022 311.113 304.022L312.03 303.442C312.377 303.227 312.655 302.917 312.833 302.549C313.011 302.182 313.081 301.771 313.035 301.365C312.989 300.959 312.828 300.575 312.572 300.256C312.316 299.938 311.975 299.699 311.589 299.567C304.279 297.061 289.823 292.083 286.435 290.9C285.925 290.72 285.395 290.607 284.857 290.563C282.826 290.413 277.083 290.041 266.548 289.937C253.704 289.798 202.734 289.937 202.734 289.937C202.734 289.937 185.203 291.376 175.422 295.68C165.189 300.077 129.616 319.28 129.616 319.28Z" fill="#F3B755"/>
<g opacity="0.4">
<path d="M55.4417 361.014C54.1075 360.735 52.077 360.712 51.056 361.617C50.3795 362.375 50.0003 363.352 49.9886 364.367C49.7814 365.739 49.8128 367.136 50.0814 368.498C50.2232 369.174 50.5023 369.815 50.9014 370.38C51.3005 370.944 51.8112 371.421 52.4019 371.781C53.0048 372.124 53.7017 372.266 54.3907 372.184C55.0796 372.103 55.7245 371.803 56.2307 371.329C56.9866 370.3 57.3226 369.022 57.1705 367.755C57.2427 366.058 57.1689 364.358 56.9501 362.673C56.8791 362.303 56.7243 361.953 56.4976 361.652C56.382 361.47 56.2252 361.317 56.0398 361.206C55.8544 361.095 55.6456 361.029 55.4301 361.014" fill="black"/>
</g>
<path d="M53.0168 350.885C56.9153 350.885 60.6861 350.665 64.6193 350.41C65.035 350.42 65.4425 350.293 65.7795 350.05C66.0959 349.65 66.2418 349.141 66.1856 348.635C66.1856 346.546 66.0928 344.179 64.5149 342.833C63.4754 342.089 62.2314 341.684 60.9529 341.673C57.7966 341.333 54.6041 341.653 51.5781 342.613L53.0168 350.885Z" fill="#FAFAFA"/>
<path d="M133.828 381.412C133.82 381.303 133.82 381.195 133.828 381.087L133.759 380.112C133.759 379.242 133.642 377.977 133.561 376.353C133.48 374.729 133.364 372.721 133.12 370.424C132.887 367.81 132.429 365.221 131.751 362.685C130.908 359.615 129.647 356.676 128.004 353.948C126.158 350.784 123.696 348.023 120.764 345.827C114.487 341.36 106.005 338.865 97.1295 338.726C88.7066 338.548 80.4588 341.145 73.6577 346.117C70.7271 348.291 68.1584 350.915 66.0465 353.89C64.2068 356.485 62.7057 359.304 61.5796 362.279C60.665 364.74 60.0344 367.298 59.7 369.902C59.4435 371.863 59.3658 373.844 59.4679 375.819C59.5436 377.069 59.6986 378.313 59.932 379.544C60.0016 379.961 60.0597 380.286 60.1061 380.507C60.1525 380.727 60.1061 380.843 60.1061 380.843L60.0365 380.518C60.0365 380.298 59.9204 379.973 59.8392 379.555C59.5857 378.327 59.4151 377.082 59.3287 375.831C59.207 373.845 59.2731 371.852 59.5259 369.879C59.8427 367.262 60.4658 364.692 61.3823 362.221C62.4914 359.223 63.9893 356.383 65.8377 353.774C67.9509 350.772 70.5324 348.127 73.4837 345.943C80.3124 340.923 88.6101 338.304 97.0831 338.494C106.005 338.598 114.487 341.139 120.845 345.653C123.791 347.847 126.269 350.608 128.131 353.774C129.776 356.516 131.033 359.472 131.867 362.558C132.538 365.102 132.988 367.698 133.213 370.32C133.434 372.64 133.526 374.636 133.608 376.26C133.689 377.884 133.724 379.161 133.77 380.019C133.77 380.449 133.77 380.773 133.77 381.005C133.77 381.237 133.828 381.412 133.828 381.412Z" fill="white"/>
<path d="M135.232 381.99C135.227 381.897 135.227 381.804 135.232 381.711V380.888C135.232 380.157 135.232 379.078 135.139 377.674C135.058 374.854 134.942 370.712 134.791 365.468C134.64 360.224 134.466 353.866 134.269 346.533C134.269 344.7 134.164 342.82 134.118 340.882C134.08 339.894 134.123 338.905 134.246 337.924L134.454 336.427L134.768 334.919C135.766 330.712 137.631 326.76 140.244 323.316L163.24 308.825L169.459 304.915C171.549 303.523 173.745 302.297 176.026 301.248C178.349 300.155 180.736 299.202 183.173 298.394C184.391 297.965 185.645 297.617 186.898 297.234C188.151 296.851 189.415 296.561 190.715 296.306C195.591 295.256 200.548 294.628 205.531 294.426C210.427 294.21 215.211 294.21 219.883 294.426H220.023V294.565C217.818 304.416 215.753 313.698 213.85 322.202C212.718 324.079 211.788 326.07 211.077 328.143C210.375 330.114 210.059 332.202 210.149 334.292C210.3 336.334 210.358 338.33 210.416 340.267C210.474 342.205 210.485 344.096 210.52 345.918C210.625 353.227 210.659 359.597 210.671 364.841C210.683 370.086 210.671 374.216 210.671 377.036C210.671 378.44 210.671 379.519 210.671 380.25V381.073C210.676 381.166 210.676 381.259 210.671 381.352C210.671 381.352 210.671 381.259 210.671 381.073V380.25C210.671 379.519 210.671 378.44 210.671 377.036C210.671 374.216 210.671 370.074 210.601 364.841C210.532 359.609 210.52 353.239 210.393 345.918C210.393 344.096 210.311 342.217 210.277 340.279C210.242 338.341 210.161 336.346 209.998 334.304C209.91 332.19 210.229 330.078 210.938 328.085C211.643 325.993 212.577 323.985 213.722 322.098C215.614 313.593 217.679 304.3 219.883 294.449L219.988 294.6C215.215 294.35 210.432 294.35 205.659 294.6C200.688 294.803 195.743 295.428 190.877 296.468C189.589 296.723 188.336 297.083 187.072 297.408C185.807 297.733 184.577 298.127 183.359 298.568C180.936 299.375 178.561 300.32 176.247 301.399C173.973 302.444 171.785 303.666 169.703 305.054L163.345 308.987L140.337 323.455C137.74 326.881 135.883 330.808 134.884 334.988C133.84 338.98 134.362 342.913 134.373 346.591C134.547 353.9 134.71 360.27 134.837 365.526C134.965 370.782 135.058 374.912 135.127 377.732C135.127 379.136 135.185 380.215 135.197 380.946V382.048L135.232 381.99Z" fill="#263238"/>
<path d="M219.709 295.194H219.918H220.556L223.027 295.135L232.193 294.95L263.079 294.428H263.125L267.453 299.718L279.868 314.918C280.332 315.498 280.808 316.078 281.272 316.635C281.728 317.208 282.117 317.831 282.432 318.491C283.012 319.715 283.328 321.047 283.358 322.4C283.388 323.754 283.131 325.098 282.606 326.346C282.119 327.506 281.655 328.585 281.202 329.63L276.932 339.503L275.772 342.183C275.633 342.485 275.54 342.717 275.459 342.88C275.427 342.96 275.388 343.038 275.343 343.112L275.436 342.868L275.726 342.172C275.993 341.545 276.364 340.629 276.886 339.469L281.074 329.56C281.887 327.448 283.29 325.244 283.198 322.599C283.176 321.23 282.864 319.881 282.281 318.642C281.961 317.998 281.572 317.391 281.121 316.832L279.705 315.103L267.337 300.02L263.009 294.718H263.102L232.216 295.159L223.05 295.263H220.579H219.732L219.709 295.194Z" fill="#263238"/>
<path d="M204.115 336.301C204.115 336.301 204.243 336.301 204.486 336.301C204.834 336.236 205.165 336.101 205.461 335.906C205.932 335.6 206.284 335.141 206.459 334.607C206.562 334.277 206.606 333.931 206.586 333.586C206.581 333.182 206.482 332.785 206.296 332.426C206.088 332.036 205.779 331.709 205.401 331.478C205.024 331.248 204.592 331.122 204.15 331.114H193.824C193.227 331.116 192.651 331.337 192.207 331.735C191.762 332.133 191.478 332.68 191.41 333.273C191.333 333.839 191.434 334.415 191.7 334.92C191.964 335.387 192.371 335.757 192.861 335.976C193.356 336.148 193.882 336.211 194.404 336.162H198.662H202.618H203.697H204.08C203.953 336.178 203.824 336.178 203.697 336.162H202.618H198.662H193.603C193.321 336.14 193.043 336.077 192.779 335.976C192.227 335.743 191.767 335.335 191.468 334.816C191.174 334.269 191.056 333.645 191.132 333.029C191.211 332.378 191.524 331.777 192.012 331.339C192.501 330.902 193.133 330.657 193.789 330.65H204.115C204.595 330.655 205.064 330.791 205.473 331.042C205.882 331.294 206.214 331.652 206.435 332.077C206.62 332.437 206.719 332.834 206.726 333.238C206.742 333.6 206.691 333.962 206.575 334.305C206.379 334.861 205.998 335.332 205.496 335.639C205.183 335.827 204.836 335.95 204.475 335.999C204.371 336.118 204.25 336.22 204.115 336.301Z" fill="#263238"/>
<path d="M272.942 336.301C272.942 336.301 273.07 336.301 273.313 336.301C273.661 336.236 273.993 336.101 274.288 335.906C274.759 335.6 275.111 335.141 275.286 334.607C275.389 334.277 275.433 333.931 275.413 333.586C275.408 333.182 275.309 332.785 275.123 332.426C274.915 332.036 274.606 331.709 274.228 331.478C273.851 331.248 273.419 331.122 272.977 331.115H262.651C262.045 331.116 261.462 331.344 261.015 331.753C260.577 332.146 260.3 332.687 260.237 333.273C260.163 333.84 260.269 334.416 260.539 334.92C260.801 335.388 261.208 335.759 261.699 335.976C262.198 336.148 262.728 336.211 263.254 336.162H267.512H271.468H272.547H272.919C272.796 336.179 272.671 336.179 272.547 336.162H271.468H267.512H262.453C262.167 336.141 261.886 336.079 261.618 335.976C261.066 335.743 260.605 335.335 260.307 334.816C260.015 334.268 259.902 333.644 259.982 333.029C260.054 332.388 260.355 331.795 260.829 331.358C261.317 330.903 261.96 330.65 262.627 330.65H272.965C273.651 330.663 274.304 330.943 274.785 331.43C275.267 331.918 275.538 332.575 275.541 333.261C275.558 333.623 275.507 333.985 275.39 334.328C275.194 334.88 274.818 335.35 274.323 335.663C274.01 335.85 273.663 335.973 273.302 336.022C273.196 336.132 273.075 336.226 272.942 336.301Z" fill="#263238"/>
<path d="M333.297 325.07H319.525C318.6 325.07 317.693 325.323 316.901 325.802C316.11 326.28 315.464 326.966 315.035 327.785C314.68 328.464 314.482 329.213 314.454 329.977C314.426 330.742 314.569 331.503 314.872 332.206L320.279 344.47L334.074 344.331C334.074 344.331 336.998 328.841 333.297 325.07Z" fill="#FAFAFA"/>
<path d="M142.02 323.342L213.085 322.03L259.344 321.183L274.589 312.377C274.887 312.215 275.145 311.99 275.346 311.718C275.547 311.446 275.686 311.133 275.754 310.802C275.821 310.47 275.815 310.128 275.736 309.798C275.657 309.469 275.507 309.162 275.297 308.896L265.795 296.412C265.308 295.771 264.68 295.25 263.96 294.89C263.239 294.53 262.446 294.34 261.641 294.335L209.906 293.918C209.906 293.918 190.425 292.757 175.098 301.378C163.637 308.022 152.59 315.357 142.02 323.342Z" fill="#263238"/>
<path d="M175.133 295.668C175.133 295.668 178.15 296.828 175.841 298.325C173.532 299.822 137.553 322.528 137.553 322.528L129.651 319.279C144.282 311.111 159.249 303.152 175.133 295.668Z" fill="#455A64"/>
<path d="M138.677 323.099H138.457L137.795 323.25L135.278 323.772C133.073 324.201 129.894 324.816 125.996 325.501C118.106 326.858 107.142 328.436 94.959 329.492C91.9192 329.759 88.9373 329.968 86.0599 330.165C83.1825 330.362 80.4211 330.524 77.7874 330.768C73.1124 331.087 68.4801 331.864 63.9572 333.089C60.9176 333.945 57.9921 335.165 55.2438 336.72C54.2576 337.242 53.5498 337.753 53.0509 338.066L52.4824 338.426L52.2852 338.542L52.4708 338.403L53.0161 338.02C53.515 337.706 54.1764 337.173 55.1974 336.639C57.9353 335.042 60.8626 333.795 63.9108 332.926C68.4349 331.652 73.0764 330.84 77.7642 330.501C80.3979 330.246 83.1709 330.072 86.0483 329.875C88.9257 329.678 91.8496 329.469 94.9358 329.202C107.107 328.146 118.071 326.591 125.961 325.28C129.917 324.619 133.096 324.039 135.243 323.633L137.784 323.145L138.433 323.029L138.677 323.099Z" fill="#263238"/>
<path d="M338.808 354.923C338.808 354.993 334.075 355.051 328.227 355.051C322.379 355.051 317.646 354.993 317.646 354.923C317.646 354.853 322.379 354.807 328.227 354.807C334.075 354.807 338.808 354.853 338.808 354.923Z" fill="#263238"/>
<path d="M252.15 367.013C252.15 367.082 225.464 367.129 192.443 367.129C159.423 367.129 132.726 367.129 132.726 367.013C132.726 366.897 159.411 366.897 192.443 366.897C225.476 366.897 252.15 366.943 252.15 367.013Z" fill="#263238"/>
<path d="M64.9441 355.329C64.9441 355.329 61.1617 355.445 56.5091 355.445C51.8565 355.445 48.0625 355.387 48.0625 355.329C48.0625 355.271 51.8449 355.201 56.5091 355.201C61.1733 355.201 64.9441 355.259 64.9441 355.329Z" fill="#263238"/>
<path d="M310.777 303.408C310.777 303.408 307.598 306.959 308.851 309.569C310.104 312.18 322.983 321.299 322.983 321.299L332.346 323.051L310.777 303.408Z" fill="#455A64"/>
<path d="M221.809 297.049L219.697 319.766L257.359 318.699L272.535 309.87L262.708 297.049H221.809Z" fill="#455A64"/>
<path d="M150.941 320.929C150.941 320.929 173.647 304.523 182.616 301.205C191.26 298.06 195.773 297.271 203.895 297.039C211.669 296.819 216.391 297.039 216.391 297.039L210.392 320.14L150.941 320.929Z" fill="#455A64"/>
<path d="M147.611 321.009C147.608 320.3 147.795 319.604 148.152 318.991C148.509 318.379 149.023 317.874 149.642 317.528L154.863 314.593C156.351 313.756 158.029 313.317 159.736 313.316C160.788 313.318 161.834 313.486 162.834 313.815C163.921 314.192 164.868 314.892 165.548 315.82C166.228 316.749 166.609 317.863 166.639 319.013C166.661 319.788 166.527 320.56 166.245 321.283C165.964 322.006 165.54 322.665 164.999 323.221C164.458 323.777 163.811 324.219 163.096 324.52C162.382 324.822 161.614 324.977 160.838 324.977H151.556C150.51 324.965 149.51 324.542 148.772 323.8C148.034 323.058 147.617 322.055 147.611 321.009Z" fill="#F3B755"/>
<path d="M147.611 321.009C147.611 321.009 147.611 321.183 147.681 321.507C147.742 321.989 147.896 322.453 148.133 322.877C148.503 323.543 149.06 324.088 149.734 324.443C150.152 324.668 150.609 324.814 151.08 324.872C151.567 324.872 152.113 324.872 152.681 324.872H160.64C161.396 324.898 162.148 324.776 162.857 324.512C163.591 324.237 164.259 323.81 164.817 323.259C165.408 322.695 165.864 322.005 166.152 321.241C166.444 320.455 166.563 319.616 166.5 318.781C166.443 317.959 166.206 317.159 165.805 316.439C165.403 315.719 164.848 315.097 164.179 314.616C163.531 314.175 162.801 313.867 162.033 313.711C161.273 313.526 160.494 313.437 159.712 313.444C158.305 313.442 156.913 313.739 155.628 314.314C155.036 314.581 154.468 314.929 153.934 315.219L152.38 316.077L149.711 317.563C149.038 317.925 148.482 318.473 148.11 319.141C147.879 319.563 147.722 320.022 147.646 320.498C147.636 320.669 147.617 320.84 147.588 321.009C147.57 320.839 147.57 320.668 147.588 320.498C147.638 320.007 147.784 319.53 148.017 319.094C148.386 318.402 148.945 317.83 149.63 317.447L152.287 315.938L153.83 315.056C154.375 314.755 154.92 314.418 155.535 314.14C156.841 313.536 158.262 313.224 159.701 313.223C160.482 313.215 161.261 313.301 162.021 313.479C162.821 313.644 163.582 313.963 164.26 314.418C164.964 314.92 165.548 315.569 165.973 316.321C166.398 317.073 166.653 317.908 166.72 318.769C166.784 319.641 166.657 320.516 166.349 321.333C166.046 322.125 165.575 322.842 164.968 323.433C164.379 324.001 163.68 324.444 162.915 324.733C162.169 324.994 161.384 325.12 160.594 325.104H152.635C152.094 325.134 151.551 325.134 151.01 325.104C150.523 325.04 150.051 324.887 149.618 324.652C148.937 324.265 148.378 323.694 148.005 323.004C147.779 322.566 147.633 322.09 147.576 321.6C147.574 321.402 147.585 321.205 147.611 321.009Z" fill="#263238"/>
<path d="M322.623 381.633C322.623 381.633 322.623 381.517 322.623 381.308C322.623 381.099 322.623 380.774 322.623 380.357C322.623 379.939 322.704 379.429 322.727 378.825C322.75 378.222 322.727 377.514 322.797 376.725C322.866 375.936 322.797 375.054 322.797 374.091C322.797 373.128 322.739 372.096 322.6 370.982C322.392 368.45 321.942 365.944 321.254 363.498C320.857 362.074 320.365 360.679 319.78 359.322C317.754 354.582 314.457 350.494 310.255 347.51C307.092 345.212 303.561 343.469 299.812 342.359C295.804 341.229 291.655 340.674 287.491 340.711C283.296 340.668 279.12 341.274 275.111 342.51C273.211 343.125 271.367 343.902 269.599 344.83C267.914 345.726 266.313 346.774 264.819 347.963C262.03 350.14 259.548 352.685 257.44 355.527C256.511 356.828 255.689 358.202 254.98 359.635C254.331 361.039 253.751 362.396 253.286 363.73C251.8 367.938 250.898 372.33 250.606 376.783C250.537 378.361 250.537 379.591 250.606 380.415C250.606 380.832 250.606 381.146 250.606 381.366C250.606 381.587 250.606 381.691 250.606 381.691V381.366C250.606 381.146 250.606 380.832 250.525 380.426C250.525 379.591 250.455 378.361 250.525 376.783C250.78 372.312 251.663 367.898 253.147 363.672C253.628 362.268 254.19 360.893 254.83 359.554C255.531 358.106 256.354 356.72 257.289 355.411C259.4 352.551 261.886 349.987 264.68 347.789C266.187 346.594 267.798 345.538 269.495 344.633C271.275 343.704 273.13 342.928 275.041 342.312C279.069 341.048 283.269 340.418 287.491 340.444C291.707 340.396 295.908 340.959 299.963 342.115C303.714 343.236 307.245 344.99 310.405 347.301C311.879 348.384 313.257 349.591 314.524 350.91C315.724 352.151 316.793 353.512 317.715 354.971C318.591 356.32 319.344 357.745 319.966 359.229C320.552 360.593 321.045 361.997 321.439 363.429C322.12 365.887 322.563 368.404 322.762 370.947C322.89 372.107 322.878 373.105 322.936 374.068C322.994 375.031 322.936 375.913 322.936 376.702C322.936 377.491 322.866 378.199 322.832 378.802C322.797 379.405 322.739 379.962 322.716 380.345C322.692 380.728 322.646 381.065 322.623 381.285V381.633Z" fill="white"/>
<path d="M208.977 323.342H207.758L203.303 323.423C199.532 323.493 194.323 323.632 188.579 323.794C182.836 323.957 177.615 324.061 173.844 324.084H167.857H168.171H169.389L173.844 324.003C177.615 323.934 182.825 323.794 188.568 323.643C194.311 323.493 199.532 323.377 203.303 323.342H207.758H208.977Z" fill="white"/>
<path d="M203.234 330.337C200.529 330.491 197.817 330.491 195.112 330.337C197.817 330.169 200.529 330.169 203.234 330.337Z" fill="white"/>
<path d="M204.73 305.439C204.73 305.439 199.694 307.609 193.429 310.08C187.164 312.552 182.058 314.628 182.035 314.559C182.012 314.489 187.059 312.389 193.336 309.86C199.613 307.33 204.695 305.37 204.73 305.439Z" fill="white"/>
<path d="M194.474 307.027C194.474 307.085 189.682 309.208 183.707 311.761C177.732 314.313 172.882 316.344 172.858 316.286C172.835 316.228 177.65 314.093 183.614 311.54C189.578 308.988 194.451 306.957 194.474 307.027Z" fill="white"/>
<path d="M259.505 304.557C259.505 304.615 254.47 306.727 248.204 309.256C241.939 311.785 236.834 313.804 236.811 313.746C236.787 313.688 241.834 311.577 248.111 309.036C254.388 306.495 259.482 304.476 259.505 304.557Z" fill="white"/>
<path d="M249.202 306.146C249.202 306.204 244.411 308.328 238.435 310.88C232.46 313.433 227.61 315.463 227.587 315.405C227.564 315.347 232.379 313.212 238.343 310.66C244.306 308.107 249.202 306.077 249.202 306.146Z" fill="white"/>
<path d="M260.492 323.33C260.492 323.4 250.432 323.516 238.018 323.585C225.603 323.655 215.532 323.666 215.532 323.585C215.532 323.504 225.592 323.411 238.018 323.33C250.444 323.249 260.492 323.272 260.492 323.33Z" fill="white"/>
<path d="M271.63 330C271.63 330.07 268.81 330.151 265.329 330.186C261.849 330.221 259.029 330.186 259.029 330.116C259.029 330.047 261.849 329.977 265.329 329.942C268.81 329.908 271.63 329.873 271.63 330Z" fill="white"/>
<path d="M78.9362 326.52H78.6577L77.8688 326.625C77.5323 326.625 77.1146 326.717 76.6273 326.799C76.14 326.88 75.5831 326.938 74.9798 327.065C73.8195 327.274 72.3344 327.599 70.7565 328.017C69.0541 328.482 67.3772 329.036 65.7326 329.676C64.0877 330.329 62.4768 331.065 60.906 331.88C59.4673 332.646 58.2026 333.389 57.1584 334.05C56.6363 334.375 56.1838 334.7 55.7777 334.978C55.3716 335.257 55.0235 335.489 54.7451 335.698L54.0953 336.162L53.8633 336.301C53.8633 336.301 53.9213 336.231 54.0721 336.115L54.6871 335.616C54.9539 335.408 55.2904 335.141 55.6965 334.862C56.1026 334.584 56.5434 334.247 57.0656 333.911C58.0982 333.215 59.386 332.461 60.8015 331.683C62.3724 330.853 63.9876 330.109 65.6398 329.456C67.296 328.815 68.9846 328.261 70.6985 327.796C72.288 327.39 73.7267 327.089 74.9566 326.891C75.5599 326.787 76.1168 326.729 76.6041 326.659C77.0914 326.59 77.5207 326.555 77.8572 326.532H78.6577C78.7493 326.513 78.8434 326.509 78.9362 326.52Z" fill="white"/>
<path d="M162.022 315.532C161.883 315.378 161.735 315.231 161.581 315.091C161.132 314.75 160.599 314.537 160.038 314.476C159.201 314.409 158.359 314.5 157.555 314.743C156.555 314.996 155.577 315.33 154.631 315.741C152.905 316.488 151.298 317.485 149.863 318.7C148.76 319.628 148.169 320.313 148.134 320.278C148.248 320.102 148.38 319.939 148.528 319.79C148.915 319.384 149.321 318.996 149.747 318.63C151.168 317.365 152.781 316.335 154.527 315.579C155.488 315.155 156.486 314.821 157.509 314.581C158.337 314.343 159.204 314.268 160.061 314.36C160.646 314.441 161.194 314.691 161.639 315.08C161.755 315.189 161.86 315.31 161.952 315.439C162.01 315.474 162.034 315.521 162.022 315.532Z" fill="white"/>
<path d="M311.856 303.233C311.211 303.39 310.547 303.46 309.884 303.442C309.102 303.423 308.325 303.326 307.563 303.152C306.551 302.921 305.558 302.615 304.593 302.235C303.525 301.829 302.377 301.318 301.112 300.796L299.186 300.007C298.513 299.752 297.817 299.52 297.109 299.265C294.006 298.208 290.84 297.344 287.63 296.677C281.791 295.455 275.862 294.718 269.902 294.473C268.741 294.403 267.72 294.403 266.815 294.38H264.495H263.021H262.638C262.557 294.38 262.511 294.38 262.511 294.38H262.638H263.021L264.495 294.299H266.815C267.732 294.299 268.764 294.299 269.913 294.299C275.885 294.493 281.829 295.207 287.676 296.434C290.895 297.108 294.068 297.979 297.179 299.044C297.887 299.311 298.594 299.543 299.256 299.81L301.193 300.611C302.435 301.144 303.572 301.666 304.674 302.084C305.625 302.466 306.602 302.781 307.598 303.024C308.36 303.202 309.137 303.311 309.918 303.349C310.406 303.36 310.895 303.34 311.38 303.291H311.763L311.856 303.233Z" fill="#263238"/>
<path d="M199.61 433.314C204.322 428.602 204.322 420.961 199.61 416.249C194.897 411.537 187.257 411.537 182.545 416.249C177.833 420.961 177.833 428.602 182.545 433.314C187.257 438.026 194.897 438.026 199.61 433.314Z" fill="#EBEBEB"/>
<path d="M191.387 430.049C191.304 430.048 191.222 430.03 191.146 429.997C191.07 429.963 191.002 429.913 190.946 429.852L184.913 422.751C184.863 422.693 184.826 422.626 184.802 422.554C184.778 422.481 184.769 422.405 184.775 422.329C184.781 422.253 184.802 422.179 184.836 422.111C184.871 422.043 184.919 421.983 184.976 421.933C185.034 421.884 185.101 421.846 185.174 421.822C185.246 421.799 185.323 421.79 185.399 421.796C185.475 421.802 185.549 421.822 185.617 421.857C185.685 421.891 185.745 421.939 185.794 421.997L191.364 428.541L196.353 422.02C196.397 421.955 196.455 421.899 196.521 421.856C196.588 421.814 196.663 421.785 196.741 421.773C196.819 421.76 196.899 421.764 196.976 421.784C197.053 421.803 197.125 421.838 197.187 421.887C197.25 421.935 197.302 421.996 197.341 422.065C197.379 422.134 197.403 422.211 197.41 422.29C197.418 422.368 197.409 422.448 197.385 422.523C197.361 422.599 197.321 422.668 197.269 422.728L191.851 429.782C191.8 429.851 191.733 429.907 191.657 429.945C191.58 429.983 191.496 430.003 191.41 430.003L191.387 430.049Z" fill="#263238"/>
<path d="M451.425 467.504L452.168 487.854C452.168 487.854 431.736 495.454 431.504 499.225H471.022L471.161 467.469L451.425 467.504Z" fill="#455A64"/>
<path d="M464.386 486.127C464.773 486.236 465.107 486.485 465.321 486.826C465.535 487.167 465.615 487.575 465.546 487.972C465.452 488.363 465.209 488.703 464.869 488.92C464.53 489.136 464.119 489.212 463.724 489.132C463.325 489.003 462.986 488.733 462.772 488.372C462.558 488.01 462.484 487.583 462.564 487.171C462.71 486.781 463.003 486.463 463.38 486.286C463.757 486.108 464.189 486.084 464.583 486.22" fill="#E0E0E0"/>
<path d="M471.045 499.191L470.929 495.988L433.093 497.218C433.093 497.218 431.33 497.984 431.527 499.225L471.045 499.191Z" fill="#263238"/>
<path d="M451.53 487.66C451.53 487.845 452.505 487.938 453.456 488.553C454.407 489.168 454.906 489.98 455.092 489.911C455.277 489.841 454.976 488.75 453.816 487.985C452.655 487.219 451.495 487.474 451.53 487.66Z" fill="white"/>
<path d="M447.388 489.411C447.388 489.596 448.177 489.921 448.838 490.733C449.499 491.546 449.685 492.416 449.871 492.404C450.056 492.392 450.184 491.302 449.349 490.304C448.513 489.306 447.388 489.19 447.388 489.411Z" fill="white"/>
<path d="M445.045 494.328C445.219 494.328 445.485 493.412 445.045 492.356C444.604 491.3 443.641 490.871 443.559 491.033C443.478 491.196 444.035 491.764 444.43 492.634C444.824 493.505 444.847 494.317 445.045 494.328Z" fill="white"/>
<path d="M451.878 482.993C451.959 483.167 452.841 482.9 453.931 482.993C455.022 483.086 455.869 483.411 455.974 483.237C456.078 483.063 455.254 482.39 453.966 482.32C452.678 482.251 451.785 482.842 451.878 482.993Z" fill="white"/>
<path d="M496.768 469.361L498.334 493.959L493.972 513.776C493.898 514.114 493.895 514.464 493.962 514.804C494.029 515.144 494.165 515.466 494.362 515.751C494.559 516.036 494.812 516.278 495.106 516.461C495.401 516.644 495.729 516.765 496.072 516.815C496.468 516.874 496.873 516.837 497.252 516.708C497.632 516.579 497.975 516.361 498.253 516.073C501.861 512.314 515.077 498.426 514.856 496.639C514.613 494.562 514.926 470.591 514.926 470.591L496.768 469.361Z" fill="#455A64"/>
<path d="M496.071 516.803L514.786 494.955V495.999C514.822 496.903 514.539 497.79 513.985 498.505C512.5 500.408 508.277 505.56 498.287 516.06C497.994 516.369 497.628 516.599 497.222 516.729C496.817 516.859 496.385 516.884 495.967 516.803H496.071Z" fill="#263238"/>
<g opacity="0.6">
<path d="M509.415 487.231C509.12 487.465 508.923 487.799 508.861 488.17C508.799 488.54 508.876 488.921 509.078 489.238C509.301 489.539 509.631 489.744 510.001 489.808C510.37 489.873 510.75 489.793 511.062 489.586C511.373 489.339 511.582 488.984 511.646 488.592C511.71 488.199 511.626 487.797 511.41 487.463C511.147 487.18 510.785 487.008 510.399 486.982C510.013 486.956 509.632 487.078 509.333 487.324" fill="white"/>
</g>
<path d="M501.212 505.816C500.585 505.072 499.826 504.451 498.972 503.983C498.056 503.666 497.087 503.524 496.118 503.566C496.118 503.508 496.397 503.299 496.965 503.194C497.72 503.082 498.491 503.186 499.189 503.494C499.887 503.802 500.484 504.301 500.91 504.935C501.212 505.434 501.316 505.793 501.212 505.816Z" fill="white"/>
<path d="M499.634 509.136C498.908 508.777 498.164 508.455 497.406 508.173C496.606 508.057 495.8 507.983 494.993 507.952C495.364 507.704 495.788 507.546 496.232 507.492C496.675 507.438 497.125 507.488 497.545 507.639C499.007 508.057 499.761 509.136 499.634 509.136Z" fill="white"/>
<path d="M504.344 501.453C503.276 500.798 502.163 500.22 501.014 499.724C499.803 499.402 498.569 499.169 497.324 499.028C498.604 498.719 499.945 498.784 501.189 499.214C502.432 499.643 503.527 500.42 504.344 501.453Z" fill="white"/>
<path d="M504.495 493.935C504.426 494.086 503.045 493.575 501.27 493.587C499.494 493.599 498.114 494.074 498.056 493.923C498.995 493.261 500.136 492.949 501.281 493.042C502.424 492.958 503.56 493.274 504.495 493.935Z" fill="white"/>
<path d="M504.216 486.707C503.128 486.409 502.004 486.257 500.875 486.255C499.758 486.425 498.669 486.745 497.638 487.206C497.638 487.206 497.858 486.835 498.415 486.487C499.149 486.04 499.979 485.773 500.836 485.709C501.693 485.644 502.553 485.784 503.346 486.116C503.95 486.382 504.24 486.661 504.216 486.707Z" fill="white"/>
<path d="M500.863 484.874C500.766 484.575 500.742 484.257 500.794 483.946C500.835 483.087 501.052 482.246 501.432 481.475C501.652 480.888 502.06 480.39 502.592 480.059C502.779 479.964 502.992 479.929 503.2 479.96C503.408 479.992 503.601 480.087 503.752 480.233C504.042 480.55 504.199 480.965 504.193 481.394C504.157 482.212 503.841 482.994 503.299 483.608C502.756 484.223 502.019 484.633 501.211 484.77C500.399 484.886 499.571 484.758 498.831 484.403C498.092 484.048 497.475 483.481 497.058 482.774C496.96 482.599 496.899 482.406 496.879 482.206C496.859 482.007 496.88 481.805 496.942 481.614C497.03 481.424 497.177 481.267 497.36 481.165C497.544 481.063 497.754 481.021 497.963 481.045C498.573 481.158 499.145 481.426 499.622 481.823C500.3 482.314 500.889 482.919 501.362 483.61C501.557 483.857 501.699 484.141 501.78 484.445C501.1 483.56 500.295 482.778 499.39 482.124C498.963 481.794 498.461 481.574 497.928 481.486C497.815 481.471 497.7 481.491 497.6 481.546C497.5 481.6 497.419 481.685 497.371 481.788C497.337 481.919 497.331 482.056 497.353 482.19C497.375 482.324 497.424 482.452 497.499 482.565C497.873 483.166 498.412 483.645 499.052 483.946C499.693 484.246 500.406 484.355 501.107 484.259C501.801 484.145 502.435 483.797 502.905 483.274C503.375 482.751 503.654 482.084 503.694 481.382C503.7 481.097 503.601 480.821 503.416 480.605C503.335 480.524 503.232 480.47 503.119 480.452C503.007 480.433 502.892 480.45 502.789 480.5C502.337 480.772 501.981 481.177 501.768 481.66C501.277 482.669 500.97 483.757 500.863 484.874Z" fill="white"/>
<path d="M434.115 295.475C432.005 303.869 431.157 312.53 431.597 321.174C431.887 326.651 449.476 484.885 449.476 484.885L471.857 482.878L467.994 334.923L468.934 335.77C468.934 335.77 482.265 398.006 483.147 407.845C483.936 416.698 494.587 487.751 494.587 487.751L516.295 486.707L511.375 396.88L504.797 315.373L502.163 291.623L434.115 295.475Z" fill="#263238"/>
<path d="M472.31 322.161C471.981 322.388 471.627 322.575 471.254 322.718C470.27 323.2 469.223 323.539 468.144 323.727C467.377 323.869 466.591 323.869 465.824 323.727C464.956 323.569 464.151 323.167 463.503 322.567C462.822 321.843 462.339 320.956 462.099 319.991C461.833 319.017 461.693 318.007 461.508 316.975C460.812 312.856 460.347 309.097 460.104 306.37C459.976 305.013 459.895 303.91 459.86 303.145C459.818 302.759 459.818 302.37 459.86 301.984C459.969 302.363 460.039 302.752 460.069 303.145C460.173 304.015 460.313 305.082 460.475 306.359C460.823 309.062 461.334 312.809 462.03 316.917C462.378 318.947 462.61 321.012 463.84 322.242C464.417 322.752 465.102 323.126 465.842 323.336C466.583 323.547 467.362 323.59 468.121 323.461C469.175 323.309 470.207 323.033 471.196 322.637C471.548 322.438 471.922 322.278 472.31 322.161Z" fill="#455A64"/>
<path d="M465.244 302.704C465.244 302.704 465.406 302.588 465.754 302.565C466.259 302.571 466.748 302.742 467.147 303.052C467.452 303.278 467.7 303.572 467.873 303.91C468.046 304.248 468.139 304.621 468.145 305.001C468.102 305.473 467.925 305.922 467.634 306.295C467.343 306.669 466.95 306.95 466.503 307.105C466.056 307.261 465.573 307.284 465.113 307.172C464.653 307.061 464.235 306.818 463.91 306.475C463.679 306.174 463.52 305.823 463.446 305.451C463.371 305.079 463.383 304.695 463.48 304.328C463.596 303.837 463.874 303.4 464.269 303.087C464.548 302.878 464.745 302.855 464.757 302.878C464.299 303.279 463.982 303.816 463.852 304.409C463.792 304.715 463.799 305.03 463.873 305.333C463.947 305.635 464.087 305.918 464.281 306.161C464.54 306.432 464.874 306.619 465.24 306.698C465.606 306.777 465.987 306.743 466.335 306.602C466.694 306.498 467.013 306.286 467.249 305.996C467.485 305.706 467.627 305.351 467.657 304.978C467.66 304.667 467.594 304.358 467.463 304.076C467.333 303.793 467.142 303.542 466.903 303.342C466.432 302.957 465.851 302.734 465.244 302.704Z" fill="#455A64"/>
<path d="M504.495 313.876C504.216 313.954 503.926 313.989 503.637 313.98C502.864 314.037 502.089 314.037 501.316 313.98C498.737 313.779 496.213 313.131 493.856 312.066C491.496 311.008 489.334 309.557 487.463 307.773C486.899 307.236 486.375 306.658 485.896 306.044C485.696 305.833 485.531 305.59 485.409 305.325C485.479 305.267 486.256 306.207 487.73 307.495C491.546 310.872 496.302 313.005 501.362 313.609C503.277 313.818 504.484 313.783 504.495 313.876Z" fill="#455A64"/>
<path d="M444.162 302.68C443.833 303.574 443.38 304.417 442.816 305.186C440.281 309.051 436.84 312.237 432.792 314.468C431.983 314.973 431.109 315.363 430.193 315.628C430.968 315.088 431.774 314.592 432.606 314.143C434.536 312.95 436.346 311.575 438.013 310.036C439.667 308.485 441.174 306.783 442.515 304.954C443.023 304.167 443.573 303.408 444.162 302.68Z" fill="#455A64"/>
<path d="M448.85 135.987C449.601 131.12 452.157 126.714 456.01 123.646C459.863 120.578 464.729 119.073 469.641 119.431L470.651 119.5C481.522 120.939 486.372 130.964 484.643 141.789L480.861 180.193L480.675 188.141L454.802 190.461L455.359 173.695C455.359 173.695 444.986 171.305 445.613 160.805C445.926 155.758 447.399 145.374 448.85 135.987Z" fill="#FFBE9D"/>
<path d="M455.266 173.694C460.138 174.053 465.01 173.006 469.305 170.678C469.305 170.678 465.522 177.987 455.126 176.282L455.266 173.694Z" fill="#EB996E"/>
<path d="M450.369 145.724C450.337 146.113 450.458 146.501 450.708 146.802C450.957 147.103 451.315 147.295 451.704 147.336C451.893 147.366 452.086 147.357 452.272 147.311C452.458 147.265 452.633 147.182 452.786 147.068C452.939 146.953 453.068 146.809 453.165 146.644C453.263 146.479 453.326 146.296 453.351 146.106C453.384 145.715 453.263 145.327 453.014 145.024C452.765 144.72 452.407 144.526 452.017 144.482C451.827 144.454 451.634 144.464 451.448 144.512C451.262 144.559 451.087 144.643 450.934 144.759C450.781 144.874 450.652 145.019 450.555 145.185C450.458 145.35 450.395 145.533 450.369 145.724Z" fill="#263238"/>
<path d="M450.741 141.336C450.903 141.545 452.098 140.79 453.711 140.906C455.323 141.022 456.449 141.927 456.635 141.742C456.82 141.556 456.565 141.289 456.078 140.883C455.418 140.347 454.606 140.03 453.757 139.978C452.919 139.909 452.08 140.112 451.367 140.558C450.845 140.848 450.648 141.185 450.741 141.336Z" fill="#263238"/>
<path d="M465.58 147.52C465.548 147.91 465.669 148.297 465.919 148.598C466.168 148.9 466.525 149.092 466.915 149.133C467.104 149.161 467.297 149.15 467.482 149.103C467.667 149.055 467.841 148.971 467.993 148.855C468.145 148.74 468.273 148.595 468.369 148.43C468.465 148.264 468.526 148.081 468.55 147.891C468.583 147.501 468.462 147.114 468.212 146.813C467.963 146.512 467.605 146.32 467.216 146.279C467.027 146.249 466.833 146.258 466.648 146.305C466.462 146.352 466.287 146.436 466.135 146.552C465.982 146.668 465.854 146.813 465.759 146.98C465.664 147.146 465.603 147.33 465.58 147.52Z" fill="#263238"/>
<path d="M466.554 142.728C466.728 142.937 467.923 142.183 469.536 142.311C471.149 142.438 472.263 143.32 472.46 143.135C472.657 142.949 472.39 142.694 471.903 142.276C471.239 141.747 470.43 141.431 469.583 141.371C468.768 141.321 467.957 141.524 467.262 141.951C466.67 142.299 466.473 142.636 466.554 142.728Z" fill="#263238"/>
<path d="M459.837 154.262C459.005 153.934 458.136 153.712 457.249 153.601C456.843 153.531 456.46 153.415 456.414 153.125C456.414 152.711 456.539 152.307 456.774 151.965C457.238 151.002 457.713 149.981 458.224 148.913C460.231 144.586 461.705 141.001 461.554 140.919C461.403 140.838 459.605 144.296 457.586 148.635L456.193 151.698C455.891 152.173 455.771 152.742 455.857 153.299C455.907 153.449 455.991 153.585 456.102 153.697C456.212 153.81 456.347 153.896 456.495 153.949C456.696 154.027 456.907 154.077 457.122 154.1C458.016 154.273 458.928 154.328 459.837 154.262Z" fill="#263238"/>
<path d="M464.501 155.723C464.234 155.723 464.106 157.44 462.517 158.565C460.927 159.691 459.036 159.377 459.036 159.609C459.036 159.842 459.431 159.981 460.196 160.062C461.217 160.152 462.237 159.876 463.074 159.285C463.881 158.719 464.438 157.862 464.628 156.895C464.779 156.164 464.617 155.723 464.501 155.723Z" fill="#263238"/>
<path d="M466.602 136.382C466.729 136.835 468.353 136.742 470.221 137.113C472.089 137.484 473.586 138.099 473.876 137.728C473.992 137.554 473.76 137.113 473.18 136.649C472.398 136.058 471.488 135.661 470.523 135.489C469.564 135.299 468.573 135.343 467.634 135.616C466.926 135.86 466.544 136.173 466.602 136.382Z" fill="#263238"/>
<path d="M451.669 136.694C451.924 137.077 453.061 136.775 454.395 136.857C455.729 136.938 456.843 137.286 457.133 136.857C457.261 136.683 457.133 136.3 456.646 135.917C456.013 135.449 455.252 135.186 454.465 135.163C453.68 135.117 452.9 135.32 452.237 135.743C451.738 136.102 451.553 136.474 451.669 136.694Z" fill="#263238"/>
<path d="M482.218 151.871C482.259 151.487 482.377 151.116 482.566 150.779C482.754 150.443 483.009 150.148 483.315 149.912C483.621 149.677 483.971 149.506 484.345 149.41C484.719 149.314 485.108 149.295 485.49 149.353C487.427 149.678 489.527 150.955 489.098 154.981C488.344 162.139 481.324 159.912 481.336 159.703C481.347 159.494 481.87 154.865 482.218 151.871Z" fill="#FFBE9D"/>
<path d="M483.169 157.174C483.169 157.174 483.285 157.279 483.482 157.395C483.766 157.548 484.097 157.59 484.41 157.511C484.903 157.265 485.322 156.893 485.624 156.432C485.925 155.971 486.099 155.439 486.128 154.889C486.206 154.277 486.15 153.655 485.965 153.067C485.92 152.835 485.82 152.618 485.672 152.434C485.525 152.25 485.335 152.105 485.118 152.011C484.979 151.96 484.827 151.959 484.687 152.007C484.548 152.056 484.429 152.152 484.352 152.278C484.236 152.475 484.271 152.614 484.225 152.626C484.178 152.638 484.086 152.487 484.225 152.197C484.279 152.023 484.394 151.875 484.55 151.779C484.763 151.655 485.017 151.617 485.257 151.675C485.54 151.766 485.795 151.928 485.998 152.145C486.201 152.363 486.345 152.628 486.418 152.916C486.663 153.567 486.739 154.27 486.638 154.958C486.608 155.598 486.389 156.215 486.009 156.731C485.63 157.248 485.106 157.64 484.503 157.859C484.299 157.902 484.087 157.896 483.886 157.842C483.684 157.787 483.498 157.686 483.343 157.546C483.169 157.348 483.146 157.186 483.169 157.174Z" fill="#EB996E"/>
<path d="M420.25 213.271C416.92 222.971 415.806 223.134 412.778 251.142C412.197 256.583 413.659 264.856 418.486 267.385C423.313 269.915 431.875 267.13 434.729 262.478L437.943 241.837L420.25 213.271Z" fill="#FFBE9D"/>
<path d="M432.131 254.485C431.598 253.067 430.994 251.677 430.321 250.32C429.536 249.027 428.684 247.776 427.768 246.572C428.148 246.822 428.482 247.136 428.755 247.5C429.474 248.314 430.101 249.205 430.623 250.157C431.145 251.111 431.561 252.119 431.864 253.162C432.018 253.588 432.108 254.033 432.131 254.485Z" fill="#EB996E"/>
<path d="M502.186 265.878L502.058 242.824L502.139 240.561L525.576 235.096C525.576 235.096 520.935 220.013 516.77 203.7C514.333 194.302 506.235 189.58 504.286 188.617L503.856 188.42L480.918 179.625C476.37 184.475 470.116 187.561 463.735 185.693C460.272 184.742 457.18 182.759 454.871 180.008L439.289 184.579C434.914 186.094 431.215 189.106 428.846 193.084C425.667 198.699 415.527 224.411 415.341 225.037L434.149 226.731C434.149 226.731 430.807 287.702 431.991 298.597C431.991 298.597 436.55 301.753 448.072 302.298C471.427 303.4 506.2 301.741 506.2 301.741C505.655 298.26 505.04 292.343 504.761 289.373L502.186 265.878Z" fill="#4E9C0B"/>
<path d="M434.741 203.99C434.834 203.99 434.335 218.528 433.581 236.477C432.826 254.426 432.223 268.964 432.13 268.964C432.037 268.964 432.525 254.415 433.291 236.477C434.056 218.54 434.636 203.99 434.741 203.99Z" fill="#263238"/>
<path d="M413.357 216.16L420.62 246.396C421.026 248.067 422.511 249.25 424.925 249.877L466.125 250.016C467.112 249.613 467.939 248.898 468.482 247.981C469.025 247.063 469.252 245.993 469.13 244.934L463.735 216.056C463.573 215.213 463.129 214.451 462.474 213.896C461.82 213.341 460.996 213.026 460.138 213.004L416.71 212.007C416.195 211.996 415.684 212.104 415.217 212.321C414.75 212.539 414.339 212.86 414.015 213.261C413.692 213.662 413.464 214.132 413.35 214.634C413.236 215.137 413.238 215.659 413.357 216.16Z" fill="#263238"/>
<path d="M410.643 222.216C410.285 221.745 410.096 221.167 410.107 220.576C410.117 219.984 410.326 219.414 410.701 218.956C411.088 218.507 411.57 218.15 412.111 217.909C412.653 217.669 413.241 217.551 413.833 217.563C415.016 217.595 416.18 217.863 417.256 218.352C418.605 218.91 419.899 219.594 421.12 220.394C421.578 220.63 421.982 220.958 422.308 221.357C422.633 221.756 422.873 222.219 423.011 222.715C423.162 223.736 422.025 224.861 421.143 224.339C421.766 224.62 422.313 225.043 422.74 225.576C423.168 226.108 423.463 226.734 423.603 227.402C423.754 228.69 423.057 229.363 421.804 229.723C422.272 229.921 422.644 230.293 422.841 230.761C423.039 231.229 423.045 231.756 422.86 232.229C422.558 232.684 422.1 233.013 421.572 233.154C421.044 233.295 420.483 233.239 419.994 232.995C419.039 232.504 418.221 231.782 417.616 230.895C418.228 232.365 418.342 233.995 417.941 235.536C415.214 234.538 412.534 231.498 413.3 228.574C412.63 228.031 412.158 227.281 411.959 226.441C411.76 225.602 411.843 224.72 412.197 223.933C411.572 223.641 411.038 223.184 410.652 222.612C410.266 222.04 410.042 221.374 410.005 220.685" fill="#FFBE9D"/>
<path d="M418.114 235.549C417.787 235.256 417.43 234.999 417.047 234.783C416.177 234.207 415.395 233.508 414.726 232.707C414.086 231.892 413.684 230.916 413.566 229.887C413.562 229.449 413.535 229.012 413.485 228.576C413.321 229.001 413.261 229.458 413.311 229.91C413.366 231.014 413.772 232.071 414.471 232.927C415.164 233.767 416.011 234.468 416.966 234.992C417.313 235.243 417.702 235.432 418.114 235.549Z" fill="#EB996E"/>
<path d="M421.77 229.713C421.362 229.43 420.975 229.12 420.609 228.785C419.712 228.004 418.655 227.429 417.511 227.102C416.885 226.964 416.235 226.964 415.609 227.102C415.097 227.214 414.617 227.44 414.205 227.764C413.829 228.095 413.511 228.487 413.265 228.924C413.274 228.785 413.313 228.65 413.381 228.529C413.546 228.188 413.779 227.884 414.065 227.636C414.489 227.267 414.994 227.005 415.539 226.87C416.21 226.708 416.91 226.708 417.581 226.87C418.771 227.201 419.86 227.823 420.749 228.68C421.136 228.975 421.479 229.322 421.77 229.713Z" fill="#EB996E"/>
<path d="M421.596 224.468C421.093 224.327 420.613 224.116 420.169 223.842C419.673 223.575 419.161 223.339 418.637 223.134C418 222.894 417.344 222.708 416.676 222.577C416.017 222.433 415.337 222.41 414.669 222.507C414.131 222.599 413.62 222.809 413.172 223.122C412.758 223.43 412.417 223.826 412.174 224.282C412.186 224.135 412.229 223.993 412.302 223.865C412.48 223.515 412.733 223.21 413.045 222.971C413.503 222.606 414.045 222.363 414.623 222.264C415.32 222.131 416.037 222.131 416.734 222.264C417.42 222.404 418.092 222.606 418.741 222.867C419.267 223.088 419.775 223.348 420.261 223.644C420.724 223.889 421.17 224.164 421.596 224.468Z" fill="#EB996E"/>
<path d="M487.949 144.585C487.358 146.627 487.566 150.038 485.733 149.574C482.09 148.658 482.972 156.118 481.22 155.375C479.468 154.633 477.971 152.533 477.867 147.938C477.727 142.137 480.071 137.914 477.785 131.242C477.054 129.911 475.992 128.791 474.701 127.99C473.411 127.189 471.935 126.735 470.418 126.671C468.887 126.637 467.374 126.996 466.021 127.713C464.669 128.43 463.522 129.481 462.691 130.767C462.366 128.725 461.368 125.661 459.558 124.687C458.653 124.181 457.618 123.957 456.585 124.041C455.552 124.126 454.567 124.516 453.757 125.163C452.977 125.841 452.469 126.779 452.328 127.803C452.187 128.828 452.423 129.868 452.991 130.732C452.567 130.864 452.112 130.855 451.694 130.706C451.275 130.558 450.916 130.278 450.671 129.908C450.635 130.382 450.697 130.858 450.853 131.307C451.009 131.756 451.254 132.168 451.576 132.518C450.828 132.327 450.174 131.874 449.731 131.242C449.916 132.078 450.09 132.925 450.276 133.76C447.213 133.841 444.208 130.871 443.315 128.226C442.027 124.223 443.025 120.185 445.264 116.623C446.362 114.825 447.893 113.331 449.717 112.277C451.541 111.224 453.6 110.643 455.706 110.59C457.684 110.501 459.643 111.02 461.317 112.078C462.991 113.136 464.3 114.682 465.069 116.507C467.796 114.57 473.33 113.908 476.382 115.347C477.902 116.058 479.214 117.147 480.193 118.51C481.172 119.873 481.785 121.465 481.974 123.132C482.957 122.797 484.012 122.728 485.031 122.932C486.049 123.135 486.996 123.605 487.775 124.292C487.903 124.408 488.042 124.513 488.158 124.629C489.239 125.654 490.04 126.938 490.484 128.359C490.929 129.781 491.003 131.292 490.699 132.751C490.479 133.911 490.073 135.071 489.84 136.057C489.237 138.703 487.949 144.585 487.949 144.585Z" fill="#263238"/>
<path d="M450.253 129.734C450.164 129.679 450.082 129.613 450.009 129.537C449.787 129.337 449.585 129.115 449.406 128.876C448.752 127.981 448.351 126.927 448.246 125.824C448.143 125.003 448.217 124.169 448.463 123.378C448.709 122.588 449.122 121.859 449.673 121.241C450.35 120.478 451.202 119.891 452.156 119.529C453.109 119.168 454.137 119.042 455.149 119.165C456.19 119.331 457.181 119.727 458.05 120.325C458.858 120.86 459.579 121.517 460.185 122.274C461.226 123.543 461.978 125.024 462.389 126.613C462.666 127.677 462.783 128.776 462.737 129.874C462.725 130.173 462.698 130.471 462.656 130.767C462.647 130.87 462.623 130.972 462.587 131.069C462.697 129.59 462.556 128.103 462.169 126.671C461.739 125.128 460.988 123.693 459.964 122.46C458.762 120.91 457.032 119.856 455.103 119.501C454.143 119.382 453.168 119.496 452.261 119.833C451.354 120.17 450.542 120.721 449.893 121.439C449.363 122.028 448.962 122.721 448.717 123.475C448.471 124.228 448.386 125.024 448.466 125.813C448.571 126.888 448.942 127.921 449.545 128.818C449.94 129.433 450.276 129.734 450.253 129.734Z" fill="#455A64"/>
<path d="M448.849 132.935C448.767 132.825 448.693 132.708 448.629 132.587C448.501 132.343 448.304 132.007 448.072 131.554C447.384 130.276 446.817 128.935 446.378 127.551C446.1 126.584 445.944 125.587 445.914 124.581C445.886 123.418 446.095 122.261 446.529 121.182C447.05 119.984 447.909 118.964 449 118.246C450.169 117.493 451.511 117.05 452.899 116.958C454.279 116.887 455.659 117.109 456.948 117.608C458.142 118.07 459.26 118.707 460.266 119.499C462.02 120.806 463.296 122.652 463.898 124.755C464.267 126.179 464.19 127.681 463.677 129.06C463.538 129.43 463.359 129.784 463.144 130.115C462.993 130.336 462.9 130.452 462.888 130.44C463.159 129.988 463.385 129.51 463.561 129.013C464.018 127.656 464.059 126.193 463.677 124.813C463.065 122.775 461.807 120.991 460.092 119.731C458.074 118.079 455.529 117.21 452.922 117.283C451.587 117.36 450.295 117.784 449.174 118.513C448.149 119.193 447.342 120.157 446.854 121.286C446.415 122.328 446.202 123.451 446.227 124.581C446.239 125.566 446.379 126.545 446.645 127.493C447.052 128.871 447.58 130.211 448.223 131.496L448.733 132.552C448.787 132.674 448.826 132.803 448.849 132.935Z" fill="#455A64"/>
<path d="M485.421 139.944C485.421 139.944 486.082 139.411 486.952 138.367C488.098 137.027 488.887 135.419 489.244 133.692C489.601 131.966 489.515 130.177 488.994 128.493C488.611 127.205 488.159 126.474 488.217 126.439C488.347 126.593 488.46 126.76 488.553 126.938C488.813 127.415 489.034 127.911 489.215 128.423C489.794 130.142 489.91 131.983 489.551 133.76C489.177 135.535 488.336 137.177 487.115 138.517C486.77 138.944 486.381 139.333 485.954 139.678C485.791 139.793 485.611 139.883 485.421 139.944Z" fill="#455A64"/>
<path d="M478.888 139.736C478.888 139.736 479.247 139.585 479.816 139.19C480.608 138.649 481.235 137.897 481.626 137.021L481.928 136.324L481.858 137.079C481.765 138.088 481.661 139.248 481.545 140.501L481.313 140.362C482.339 139.664 483.216 138.77 483.893 137.73C484.57 136.69 485.034 135.526 485.257 134.306C485.457 133.189 485.457 132.046 485.257 130.929C485.043 129.906 484.704 128.912 484.248 127.971C484.303 128.021 484.35 128.08 484.387 128.145C484.502 128.32 484.607 128.502 484.701 128.69C485.057 129.387 485.319 130.128 485.478 130.895C485.726 132.039 485.757 133.219 485.571 134.375C485.352 135.64 484.879 136.847 484.181 137.923C483.483 139 482.575 139.925 481.51 140.641L481.243 140.815V140.501C481.382 139.248 481.51 138.088 481.614 137.079L481.846 137.137C481.427 138.047 480.744 138.811 479.885 139.33C479.657 139.471 479.416 139.591 479.166 139.689C479.077 139.722 478.983 139.737 478.888 139.736Z" fill="#455A64"/>
<path d="M476.846 124.651C476.427 123.861 475.865 123.157 475.186 122.574C474.429 121.994 473.547 121.597 472.611 121.414C471.444 121.195 470.239 121.303 469.13 121.728C468.028 122.142 467.038 122.81 466.241 123.677C465.596 124.397 465.071 125.215 464.686 126.102C464.36 126.935 464.1 127.792 463.909 128.666C463.868 128.424 463.868 128.177 463.909 127.935C464.014 127.276 464.189 126.63 464.431 126.009C464.8 125.083 465.326 124.227 465.986 123.479C466.803 122.564 467.83 121.859 468.979 121.426C470.134 120.991 471.388 120.887 472.599 121.124C473.58 121.339 474.493 121.794 475.256 122.447C475.81 122.845 476.28 123.35 476.637 123.932C476.722 124.093 476.796 124.259 476.857 124.431C476.846 124.582 476.915 124.64 476.846 124.651Z" fill="#455A64"/>
<path d="M475.223 119.176C474.595 118.853 473.933 118.6 473.25 118.422C471.58 118.055 469.834 118.302 468.331 119.118C466.844 119.962 465.635 121.219 464.85 122.738C464.224 123.898 464.026 124.699 463.968 124.675C463.973 124.48 464.012 124.288 464.084 124.107C464.222 123.597 464.413 123.103 464.653 122.633C465.396 121.041 466.611 119.716 468.134 118.839C469.701 117.987 471.533 117.759 473.262 118.201C473.778 118.334 474.271 118.545 474.724 118.828C474.91 118.912 475.079 119.03 475.223 119.176Z" fill="#455A64"/>
<path d="M499.611 208.098C499.448 208.098 499.912 221.011 500.666 236.918C501.42 252.825 502.163 265.716 502.372 265.704C502.581 265.692 502.07 252.802 501.316 236.883C500.562 220.965 499.773 208.086 499.611 208.098Z" fill="#263238"/>
<path d="M525.646 246.072C524.892 240.352 524.254 235.293 524.254 235.293L505.539 239.633L506.34 242.649L491.929 227.961L489.609 228.158L482.334 235.723C482.334 235.723 488.681 249.135 492.37 254.356C497.174 261.144 504.727 271.493 515.065 270.6C524.602 269.822 527.015 256.34 525.646 246.072Z" fill="#FFBE9D"/>
<path d="M515.518 249.494C514.363 248.027 512.971 246.764 511.399 245.758C509.939 244.582 508.286 243.667 506.514 243.055C506.433 243.206 508.579 244.459 511.051 246.245C513.522 248.032 515.39 249.622 515.518 249.494Z" fill="#EB996E"/>
<path d="M466.625 208.781L473.053 205.498L481.395 208.143L485.525 211.96L491.93 227.96L497.012 234.4L488.031 246.095L482.358 235.722C482.358 235.722 477.531 233.622 475.605 230.571C473.679 227.519 472.809 225.93 472.809 225.93C472.809 225.93 470.013 224.584 469.502 223.308C469.198 222.571 469.032 221.784 469.015 220.987L470.419 218.933C470.327 218.037 470.476 217.132 470.848 216.311C471.125 215.916 471.507 215.607 471.95 215.418C471.95 215.418 471.544 213.689 472.194 213.097C473.413 212.377 474.704 211.786 476.046 211.334L473.238 209.744C473.238 209.744 466.973 211.624 466.625 208.781Z" fill="#FFBE9D"/>
<path d="M476.174 214.582C476.174 214.663 475.188 214.698 474.004 214.941C472.821 215.185 471.916 215.568 471.881 215.487C472.5 215.065 473.206 214.787 473.946 214.674C474.673 214.479 475.434 214.447 476.174 214.582Z" fill="#EB996E"/>
<path d="M474.236 218.181C473.622 218.291 473.002 218.369 472.38 218.413C471.771 218.554 471.155 218.662 470.535 218.738C471.67 218.139 472.975 217.942 474.236 218.181Z" fill="#EB996E"/>
<path d="M471.52 223.808C471.439 223.808 471.393 223.437 471.393 222.984C471.393 222.532 471.474 222.172 471.555 222.172C471.636 222.172 471.683 222.543 471.671 222.996C471.659 223.448 471.59 223.808 471.52 223.808Z" fill="#EB996E"/>
<path d="M472.75 225.537C472.694 224.997 472.487 224.484 472.153 224.057C471.818 223.63 471.37 223.307 470.859 223.123C470.859 223.123 471.068 223.065 471.369 223.123C471.764 223.262 472.111 223.512 472.367 223.843C472.631 224.176 472.792 224.579 472.831 225.003C472.855 225.351 472.785 225.548 472.75 225.537Z" fill="#EB996E"/>
<path d="M477.774 220.407C477.704 220.407 477.426 219.722 476.613 219.247C476.131 219.026 475.612 218.9 475.082 218.875C475.082 218.875 475.256 218.748 475.569 218.724C475.976 218.708 476.378 218.809 476.729 219.014C477.091 219.209 477.389 219.503 477.588 219.861C477.785 220.233 477.808 220.395 477.774 220.407Z" fill="#EB996E"/>
<path d="M480.709 216.846C480.628 216.846 480.384 216.219 479.677 215.778C479.236 215.549 478.762 215.389 478.273 215.303C478.273 215.303 478.447 215.198 478.737 215.21C479.121 215.22 479.497 215.333 479.823 215.537C480.149 215.741 480.415 216.029 480.593 216.37C480.721 216.66 480.732 216.846 480.709 216.846Z" fill="#EB996E"/>
<path d="M482.648 215.104C482.648 215.104 482.648 214.883 482.578 214.558C482.531 214.13 482.371 213.721 482.114 213.375C481.857 213.028 481.513 212.756 481.116 212.586C480.941 212.526 480.77 212.452 480.606 212.366C480.606 212.366 480.838 212.308 481.186 212.366C481.648 212.509 482.054 212.793 482.346 213.178C482.628 213.566 482.782 214.032 482.787 214.512C482.787 214.907 482.648 215.115 482.648 215.104Z" fill="#EB996E"/>
<path d="M479.944 210.951C479.944 211.044 478.598 211.067 476.974 211.311C475.35 211.554 474.132 212.134 474.097 212.053C474.952 211.499 475.926 211.154 476.939 211.044C477.641 210.93 478.352 210.876 479.063 210.881C479.358 210.855 479.656 210.879 479.944 210.951Z" fill="#EB996E"/>
<path d="M26.0557 499.634C26.0557 499.808 137.509 499.935 274.952 499.935C412.395 499.935 523.871 499.854 523.871 499.634C523.871 499.413 412.487 499.332 274.952 499.332C137.416 499.332 26.0557 499.471 26.0557 499.634Z" fill="#263238"/>
<defs>
<filter id="filter0_d_633_4785" x="29.9102" y="180.367" width="326.517" height="216.363" filterUnits="userSpaceOnUse" color-interpolation-filters="sRGB">
<feFlood flood-opacity="0" result="BackgroundImageFix"/>
<feColorMatrix in="SourceAlpha" type="matrix" values="0 0 0 0 0 0 0 0 0 0 0 0 0 0 0 0 0 0 127 0" result="hardAlpha"/>
<feOffset dy="-1"/>
<feGaussianBlur stdDeviation="4"/>
<feComposite in2="hardAlpha" operator="out"/>
<feColorMatrix type="matrix" values="0 0 0 0 0 0 0 0 0 0 0 0 0 0 0 0 0 0 0.08 0"/>
<feBlend mode="normal" in2="BackgroundImageFix" result="effect1_dropShadow_633_4785"/>
<feBlend mode="normal" in="SourceGraphic" in2="effect1_dropShadow_633_4785" result="shape"/>
</filter>
</defs>
</svg>
