<svg width="14" height="20" viewBox="0 0 14 20" fill="none" xmlns="http://www.w3.org/2000/svg">
<path d="M7 0.000456623C5.16409 -0.0213517 3.39527 0.738795 2.08256 2.11372C0.769848 3.48864 0.020744 5.36574 0 7.33218C0 11.2049 6.23662 19.3977 6.5038 19.7508C6.56437 19.8288 6.64022 19.8915 6.72598 19.9346C6.81173 19.9777 6.90528 20 7 20C7.09472 20 7.18827 19.9777 7.27402 19.9346C7.35978 19.8915 7.43563 19.8288 7.4962 19.7508C7.76338 19.3977 14 11.2025 14 7.33218C13.9793 5.36574 13.2302 3.48864 11.9174 2.11372C10.6047 0.738795 8.83591 -0.0213517 7 0.000456623ZM7 9.33298C6.50988 9.32152 6.03383 9.15536 5.6315 8.85534C5.22917 8.55531 4.91846 8.13477 4.73832 7.64641C4.55819 7.15805 4.51663 6.62361 4.61886 6.11006C4.72109 5.59651 4.96257 5.12671 5.31302 4.75953C5.66347 4.39235 6.1073 4.14413 6.5889 4.04598C7.07049 3.94784 7.56842 4.00413 8.02027 4.2078C8.47213 4.41147 8.85781 4.75346 9.12897 5.19091C9.40014 5.62836 9.54472 6.14181 9.54461 6.6669C9.53699 7.38178 9.26467 8.06417 8.78752 8.5641C8.31038 9.06403 7.66743 9.34058 7 9.33298Z" fill="#4E9C0B"/>
</svg>
