<svg width="24" height="24" viewBox="0 0 24 24" fill="none" xmlns="http://www.w3.org/2000/svg">
<path fill-rule="evenodd" clip-rule="evenodd" d="M15.1009 14.859L15.5569 14.406C16.1869 13.78 17.1679 13.651 17.9739 14.089L19.8839 15.128C21.1109 15.795 21.3819 17.43 20.4229 18.383L19.0029 19.795C18.6409 20.155 18.1929 20.417 17.6769 20.465C16.4849 20.576 14.0319 20.516 11.1379 18.822L15.1009 14.859ZM9.19086 8.98298L9.47786 8.69698C10.1849 7.99498 10.2519 6.86698 9.63486 6.04298L8.37486 4.35998C7.61086 3.33998 6.13586 3.20498 5.26086 4.07498L3.69086 5.63498C3.25786 6.06698 2.96786 6.62498 3.00286 7.24498C3.06786 8.38498 3.45586 10.465 5.15186 13.021L9.19086 8.98298Z" fill="#4E9C0B"/>
<path opacity="0.6" d="M11.0643 12.9974C8.11834 10.0684 9.18434 8.98942 9.19134 8.98242L5.15234 13.0224C5.81934 14.0264 6.68734 15.1034 7.81634 16.2264C8.95634 17.3604 10.0763 18.2014 11.1383 18.8224L15.1013 14.8604C15.1013 14.8604 14.0193 15.9364 11.0643 12.9984" fill="#4E9C0B"/>
</svg>
